/* XPM */
static char *result[] = {
/* columns rows colors chars-per-pixel */
"64 64 140 2 ",
"   c #000504",
".  c #000907",
"X  c #070B09",
"o  c #110C0C",
"O  c #302924",
"+  c #411412",
"@  c #621A17",
"#  c #655243",
"$  c #980012",
"%  c #A20F1B",
"&  c #811D27",
"*  c #A61625",
"=  c #A71C27",
"-  c #AF1728",
";  c #AD1C2A",
":  c #8F222F",
">  c #92222E",
",  c #9D242E",
"<  c #9B2433",
"1  c #A3232C",
"2  c #AB252C",
"3  c #AE292F",
"4  c #B0242B",
"5  c #B3292E",
"6  c #BC2A2D",
"7  c #AC2631",
"8  c #E81719",
"9  c #EC1A1E",
"0  c #EC1D20",
"q  c #C32B2E",
"w  c #CB2C2D",
"e  c #D42D2D",
"r  c #DB2F2D",
"t  c #DE312D",
"y  c #E32721",
"u  c #EB2323",
"i  c #E92927",
"p  c #E52F2D",
"a  c #E92C29",
"s  c #F32C27",
"d  c #F22C28",
"f  c #E5312C",
"g  c #E8312C",
"h  c #F2332C",
"j  c #FC342F",
"k  c #E43C32",
"l  c #FC3630",
"z  c #FF3832",
"x  c #AD4032",
"c  c #AB4E35",
"v  c #A56436",
"b  c #A66C38",
"n  c #AC6C3C",
"m  c #A9743B",
"M  c #B0713F",
"N  c #DC4E39",
"B  c #E44337",
"V  c #E24F3E",
"C  c #B94147",
"Z  c #BF514B",
"A  c #AD7B41",
"S  c #B37542",
"D  c #B57B44",
"F  c #BA7C47",
"G  c #BB7E49",
"H  c #8B776B",
"J  c #E15340",
"K  c #E15B46",
"L  c #D96045",
"P  c #DD674C",
"I  c #D76C4D",
"U  c #DD6E52",
"Y  c #D67754",
"T  c #DA7C5A",
"R  c #D0746A",
"E  c #BE824B",
"W  c #C1864D",
"Q  c #C3894F",
"!  c #C58B51",
"~  c #CA9156",
"^  c #DB9D5B",
"/  c #D08C60",
"(  c #CE9B69",
")  c #D39065",
"_  c #D69168",
"`  c #D5986D",
"'  c #E78369",
"]  c #CCA36E",
"[  c #DCA366",
"{  c #DDA569",
"}  c #CBAD76",
"|  c #D1A774",
" . c #D0AB77",
".. c #D4AC7B",
"X. c #CCB57C",
"o. c #C9BD7F",
"O. c #D0B17C",
"+. c #E2AE67",
"@. c #E0A668",
"#. c #E2AA6C",
"$. c #E0B36E",
"%. c #E7B86F",
"&. c #E4AC73",
"*. c #E8B271",
"=. c #E9BB72",
"-. c #E7B67B",
";. c #EBBE7A",
":. c #F1C57B",
">. c #CDBC82",
",. c #D0B780",
"<. c #D1BA83",
"1. c #D8B987",
"2. c #DFB488",
"3. c #DCBC8C",
"4. c #DEB394",
"5. c #E6A783",
"6. c #E0B484",
"7. c #E7B98D",
"8. c #EBBD97",
"9. c #ECBF9A",
"0. c #CDC287",
"q. c #CFCC8F",
"w. c #DEC796",
"e. c #D8CD96",
"r. c #EDC19C",
"t. c #E9C99F",
"y. c #F1C29C",
"u. c #EFC8A3",
"i. c #F3C5A3",
"p. c #FBCBA7",
"a. c #F7CBAC",
"s. c #F9CAAB",
"d. c #FFD0AD",
"f. c #FBCDB1",
"g. c #F3D9B1",
"h. c #FFDBB6",
"j. c #FDDDBB",
"k. c #F2E0B7",
"l. c #FFEAC2",
"z. c None",
/* pixels */
"z.z.z.z.z.z.z.z.z.z.z.z.z.z.z.z.z.z.z.z.z.z.z.z.z.z.z.g g g g f g g g g f g g g g z.z.z.z.z.z.z.z.z.z.z.z.z.z.z.z.z.z.z.z.z.z.z.",
"z.z.z.z.z.z.z.z.z.z.z.z.z.z.z.z.z.z.z.z.z.z.z.z.g g g g g g g g g g g g g g g g g g g z.z.z.z.z.z.z.z.z.z.z.z.z.z.z.z.z.z.z.z.z.",
"z.z.z.z.z.z.z.z.z.z.z.z.z.z.z.z.z.z.z.z.z.z.z.z.g g g f f g g g g f g g g g f g g g g g g z.z.z.z.z.z.z.z.z.z.z.z.z.z.z.z.z.z.z.",
"z.z.z.z.z.z.z.z.z.z.z.z.z.z.z.z.z.z.z.z.z.z.z.z.i g g g g g g g g g g g g g g g g f g g g z.z.z.z.z.z.z.z.z.z.z.z.z.z.z.z.z.z.z.",
"z.z.z.z.z.z.z.z.z.z.z.z.z.z.z.z.z.z.z.z.z.z.z.z.K 9 g g g g f g f g g g g g g g g g f g g g z.z.z.z.z.z.z.z.z.z.z.z.z.z.z.z.z.z.",
"z.z.z.z.z.z.z.z.z.z.z.z.z.z.z.z.z.z.z.z.z.z.z.0._ u f g g g g g g g g g f g g g g g g g f g z.z.z.z.z.z.z.z.z.z.z.z.z.z.z.z.z.z.",
"z.z.z.z.z.z.z.z.z.z.z.z.z.z.z.z.z.z.z.z.z.z.z...O.B u a g g g g g g f g g g g f g g g g g g g z.z.z.z.z.z.z.z.z.z.z.z.z.z.z.z.z.",
"z.z.z.z.z.z.z.z.z.z.z.z.z.z.z.z.z.z.z.z.z.z.z.| 0.U 9 g f g g g g g g g g g g g g g f g g g g z.z.z.z.z.z.z.z.z.z.z.z.z.z.z.z.z.",
"z.z.z.z.z.z.z.z.z.z.z.z.z.z.z.z.z.z.z.z.z.z.z.| ,.` i a g g g g g f g g g g g g g g g g g g g z.z.z.z.z.z.z.z.z.z.z.z.z.z.z.z.z.",
"z.z.z.z.z.z.z.z.z.z.z.z.z.z.z.z.z.z.z.z.z.z.z...] >.V 0 g g g g g g g g g g g f g g f g g g g z.z.z.z.z.z.z.z.z.z.z.z.z.z.z.z.z.",
"z.z.z.z.z.z.z.z.z.z.z.z.z.z.z.z.z.z.z.z.z.z.z.r.] o.T 8 g g g g g g g g f g g g g g g g g f g z.z.z.z.z.z.z.z.z.z.z.z.z.z.z.z.z.",
"z.z.z.z.z.z.z.z.z.z.z.z.z.z.z.z.z.z.z.z.z.z.z.s.8.} ( g i g g g g g f g g g g g f g g g g g g z.z.z.z.z.z.z.z.z.z.z.z.z.z.z.z.z.",
"z.z.z.z.z.z.z.z.z.z.z.z.z.z.z.z.z.z.z.z.z.z.z.s.f.9.<.N 9 g g g g g g g g g g g g g g g f g g z.z.z.z.z.z.z.z.z.z.z.z.z.z.z.z.z.",
"z.z.z.z.z.z.z.z.z.z.z.z.z.z.z.z.z.z.z.z.z.z.z.6.9.f.k.' 8 g g g g g g f g g f g g g g g g g g z.z.z.z.z.z.z.z.z.z.z.z.z.z.z.z.z.",
"z.z.z.z.z.z.z.z.z.z.z.z.z.z.z.z.z.z.z.z.z.z.z.7.2.i.j.5.y p g g f g g g g g g g g g f g g g g z.z.z.z.z.z.z.z.z.z.z.z.z.z.z.z.z.",
"z.z.z.z.z.z.z.z.z.z.z.z.z.z.z.z.z.z.z.z.z.z.z.H p.p.i.} k u g g g g g g f g g g g g g g g g f z.z.z.z.z.z.z.z.z.z.z.z.z.z.z.z.z.",
"z.z.z.z.z.z.z.z.z.z.z.z.z.z.z.z.z.z.z.z.z.z.z.O h.f.r.X.J 0 g g g g g f g g g g f g g g g f g z.z.z.z.z.z.z.z.z.z.z.z.z.z.z.z.z.",
"z.z.z.z.z.z.z.z.z.z.z.z.z.z.z.z.z.z.z.z.z.z.z.# l.i.r.>.P 9 g g g g g g g g g f g g g g g g g z.z.z.z.z.z.z.z.z.z.z.z.z.z.z.z.z.",
"z.z.z.z.z.z.z.z.z.z.z.z.z.z.z.z.z.z.z.z.z.z.z.4.a.i.i.>.T u p g g g g g g f g g g g g g g g g g z.z.z.z.z.z.z.z.z.z.z.z.z.z.z.z.",
"z.z.z.z.z.z.z.z.z.z.z.z.z.z.z.z.z.z.z.z.z.z.z.d.i.i.i.<.) i a g g f g g g g g g g g f g g g g g z.z.z.z.z.z.z.z.z.z.z.z.z.z.z.z.",
"z.z.z.z.z.z.z.z.z.z.z.z.z.z.z.z.z.z.z.z.z.z.z.i.i.i.i.1.` k i g g g g g g g f g g g g g g g g g z.z.z.z.z.z.z.z.z.z.z.z.z.z.z.z.",
"z.z.z.z.z.z.z.z.z.z.z.z.z.z.z.z.z.z.z.z.z.z.z.i.i.i.s.3.( g i g g g g g g g g g g f g g g g f z.z.z.z.z.z.z.z.z.z.z.z.z.z.z.z.z.",
"z.z.z.z.z.z.z.z.z.z.z.z.z.z.z.z.z.z.z.z.z.z.z.i.i.i.s.w.~ i a g g g g g g g g g g g g g g g g z.z.z.z.z.z.z.z.z.z.z.z.z.z.z.z.z.",
"z.z.z.z.z.z.z.z.z.z.z.z.z.z.z.z.z.z.z.z.z.z.z.i.i.i.s.e.P 0 g g g g g g g g f g g g f g f g g z.z.z.z.z.z.z.z.z.z.z.z.z.z.z.z.z.",
"z.z.z.z.z.z.z.z.z.z.z.z.z.z.z.z.z.z.z.z.z.z.z.z.i.s.u.} k u g g g g g g g g g g g g g g g f g z.z.z.z.z.z.z.z.z.z.z.z.z.z.z.z.z.",
"z.z.z.z.z.z.z.z.z.z.z.z.z.z.z.z.z.z.z.z.z.z.z.z.z.g.q.L 9 g g g g g g g f g g g f g g g g g z.z.z.z.z.z.z.z.z.z.z.z.z.z.z.z.z.z.",
"z.z.z.z.z.z.z.z.z.z.z.z.z.z.z.z.z.z.z.z.z.z.z.z.z.z.Y u a g g g g g g g g g g p g g g g g g z.z.z.z.z.z.z.z.z.z.z.z.z.z.z.z.z.z.",
"z.z.z.z.z.z.z.z.z.z.z.z.z.z.z.z.z.z.z.z.z.z.z.z.z.z.u d g f g g g g f g g g g g g g g f g g z.z.z.z.z.z.z.z.z.z.z.z.z.z.z.z.z.z.",
"z.z.z.z.z.z.z.z.z.z.z.z.z.z.z.z.z.z.z.z.z.z.z.z.z.s g t f g g f g g g f g f g z.g g g g g z.z.z.z.z.z.z.z.z.z.z.z.z.z.z.z.z.z.z.",
"z.z.z.z.z.z.z.z.z.z.z.z.z.z.z.z.z.z.z.z.z.z.z.z.z.z.z.1 e h g g g g g g g g g g z.g g g g z.z.z.z.z.z.z.z.z.z.z.z.z.z.z.z.z.z.z.",
"z.z.z.z.z.z.z.z.z.z.z.z.z.z.z.z.z.z.z.z.z.z.z.z.z.z.z.1 r h g g g f g g g g g g f z.g g z.z.z.z.z.z.z.z.z.z.z.z.z.z.z.z.z.z.z.z.",
"z.z.z.z.z.z.z.z.z.z.z.z.z.z.z.z.z.z.z.z.z.z.z.z.z.z.2 1 e h g g g g g g g g g g g g z.z.z.z.z.z.z.z.z.z.z.z.z.z.z.z.z.z.z.z.z.z.",
"z.z.z.z.z.z.z.z.z.z.z.z.z.z.z.z.z.z.z.z.z.z.z.z.z.z.2 2 e h g g g g f g g g g g g g z.z.z.z.z.z.z.z.z.z.z.z.z.z.z.z.z.z.z.z.z.z.",
"z.z.z.z.z.z.z.z.z.z.z.z.z.z.z.z.z.z.z.z.z.z.z.z.z.z.2 1 e h g g g g g g g g f g g g g z.z.z.z.z.z.z.z.z.z.z.z.z.z.z.z.z.z.z.z.z.",
"z.z.z.z.z.z.z.z.z.z.z.z.z.z.z.z.z.z.z.z.z.z.z.z.z.z.2 1 e s g g g g g g g g g g g g g g z.z.z.z.z.z.z.z.z.z.z.z.z.z.z.z.z.z.z.z.",
"z.z.z.z.z.z.z.z.z.z.z.z.z.z.z.z.z.z.z.z.z.z.z.z.z.z.2 1 e h g g g f g g f g g g g f g g g z.z.z.z.z.z.z.z.z.z.z.z.z.z.z.z.z.z.z.",
"z.z.z.z.z.z.z.z.z.z.z.z.z.z.z.z.z.z.z.z.z.z.z.z.z.2 2 1 e h g g g g g g g g g g g f g g g f z.z.z.z.z.z.z.z.z.z.z.z.z.z.z.z.z.z.",
"z.z.z.z.z.z.z.z.z.z.z.z.z.z.z.z.z.z.z.z.z.z.z.z.2 3 2 1 e h g g g f g g g g f g g g g g g g g z.z.z.z.z.z.z.z.z.z.z.z.z.z.z.z.z.",
"z.z.z.z.z.z.z.z.z.z.z.z.z.z.z.z.z.z.z.z.z.z.z.3 2 2 2 1 e g g g g g g g g g g g g g g g g g g g z.z.z.z.z.z.z.z.z.z.z.z.z.z.z.z.",
"z.z.z.z.z.z.z.z.z.z.z.z.z.z.z.@.#.^ #.y.j.R % 2 2 2 2 1 e h g g g g g f g g g g g g f g g f g g g z.z.z.z.z.z.z.z.z.z.z.z.z.z.z.",
"z.z.z.z.z.z.z.z.z.z.z.z.z.@.@.@.[ #.&.^ -.j.C % 2 2 2 1 w h g g g g g g g f g g g g g g g g f g g z.z.z.z.z.z.z.z.z.z.z.z.z.z.z.",
"z.z.z.z.z.z.z.z.z.z.z.z.@.@.z.z.z.z.f.y.#.;.Z $ z.3 2 1 w h g g f g g g g g g g g f g g g g e f g g z.z.z.z.z.z.z.z.z.z.z.z.z.z.",
"z.z.z.z.z.z.z.z.z.z.z.@.z.z.z.z.z.z.i.a.f.#.^ z.z.z.2 1 w h g g g g g f g g f g g g r g g g t e h f g z.z.z.z.z.z.z.z.z.z.z.z.z.",
"z.z.z.z.z.z.z.z.z.z.@.@.z.z.z.z.z.z.z.z.z.z.+.z.z.z.2 1 q h g g g g g g g g g g g g r t h g g w f g g g z.z.z.z.z.z.z.z.z.z.z.z.",
"z.z.z.z.z.z.z.z.z.z.@.z.z.z.z.z.z.z.z.z.z.z.z.=.z.z.2 1 q h g g g g g g g g g g g g g r g g h e w h g g z.z.z.z.z.z.z.z.z.z.z.z.",
"z.z.z.z.z.z.z.z.z.@.@.z.z.z.z.z.z.z.z.z.z.z.z.=.z.z.2 1 q h g g g f g g g f g f g g g e r g g g q r g g g z.z.z.z.z.z.z.z.z.z.z.",
"z.z.z.z.z.z.z.z.z.#.@.z.z.z.z.z.z.z.z.z.z.z.z.%.z.* 2 1 q h g g g g g g g g g f p g g r e g g h e q h g g g z.z.z.z.z.z.z.z.z.z.",
"z.z.z.z.z.z.z.z.z.#.#.z.z.z.z.z.z.z.z.z.z.#.*.:.z.= = 1 6 g g g g g g p f g g g e f g h w e h g g 6 e h f g z.z.z.z.z.z.z.z.z.z.",
"z.z.z.z.z.z.z.z.z.@.` [ @.@.#.{ { { { { { { [ $.z.2 = 1 2 f g g g g g g p p g h r r h g e q h g h t 5 f h g g z.z.z.z.z.z.z.z.z.",
"z.z.z.z.z.z.z.z.z.S n F E M E M G S S G S F n m z.; 2 1 1 g g g g g g g r r h g t e g g h q e h g h q 6 h g f z.z.z.z.z.z.z.z.z.",
"z.z.z.z.z.z.z.z.z.b M F W n F S E F G Q E ! S m c ; 4 , , f g g g g g g p r g g g w t g g f 5 f h g g 5 q g z.z.z.z.z.z.z.z.z.z.",
"z.z.z.z.z.z.z.z.z.n n F W m E S E G Q ! E ~ F E c ; 2 > , f h g g g g g g w p g h w e h g h q 6 h g g r 5 z.z.z.z.z.z.z.z.z.z.z.",
"z.z.z.z.z.z.z.z.z.z.v S Y S G D W G ! ! E ~ S D 3 2 2 : , r h g g g g g h e r g g r w g g g g 5 w h g g z.z.z.z.z.z.z.z.z.z.z.z.",
"z.z.z.z.z.z.z.z.z.z.n v A m S S G G E W ! E b z.z.2 2 < 7 p h g g g g g g e w h g f q g g g h f 7 w g z.z.z.z.z.z.z.z.z.z.z.z.z.",
"z.z.z.z.z.z.z.z.z.z.z.b n S S n S S S S D b A z.z.z.z.z.& 6 h g g g g g g r w h g g q r g g g h w w z.z.z.z.z.z.z.z.z.z.z.z.z.z.",
"z.z.z.z.z.z.z.z.z.z.z.z.z.z.z.z.z.z.z.z.z.z.z.z.z.z.z.z.  @ z g g g g g h r q g g g q e h g f g z.z.z.z.z.z.z.z.z.z.z.z.z.z.z.z.",
"z.z.z.z.z.z.z.z.z.z.z.z.z.z.z.z.z.z.z.z.z.z.z.z.z.z.. X . + l g g g g g g t q f h h q w h f g z.z.z.z.z.z.z.z.z.z.z.z.z.z.z.z.z.",
"z.z.z.z.z.z.z.z.z.z.z.z.z.z.z.z.z.z.z.z.z.z.z.z.z.z.z.o . o p l f g g g g g q r g h q q h g z.z.z.z.z.z.z.z.z.z.z.z.z.z.z.z.z.z.",
"z.z.z.z.z.z.z.z.z.z.z.z.z.z.z.z.z.z.z.z.z.z.z.z.z.z.z.z.z.z.z g g g g f g g 6 r g h w q z.z.z.z.z.z.z.z.z.z.z.z.z.z.z.z.z.z.z.z.",
"z.z.z.z.z.z.z.z.z.z.z.z.z.z.z.z.z.z.z.z.z.z.z.z.z.z.z.z.z.z.h g g g g g g g 6 r h g z.z.z.z.z.z.z.z.z.z.z.z.z.z.z.z.z.z.z.z.z.z.",
"z.z.z.z.z.z.z.z.z.z.z.z.z.z.z.z.z.z.z.z.z.z.z.z.z.z.z.z.z.z.z.g g g g g g g q r z.z.z.z.z.z.z.z.z.z.z.z.z.z.z.z.z.z.z.z.z.z.z.z.",
"z.z.z.z.z.z.z.z.z.z.z.z.z.z.z.z.z.z.z.z.z.z.z.z.z.z.z.z.z.z.z.g g g g g g g z.z.z.z.z.z.z.z.z.z.z.z.z.z.z.z.z.z.z.z.z.z.z.z.z.z.",
"z.z.z.z.z.z.z.z.z.z.z.z.z.z.z.z.z.z.z.z.z.z.z.z.z.z.z.z.z.z.z.z.g g g g z.z.z.z.z.z.z.z.z.z.z.z.z.z.z.z.z.z.z.z.z.z.z.z.z.z.z.z.",
"z.z.z.z.z.z.z.z.z.z.z.z.z.z.z.z.z.z.z.z.z.z.z.z.z.z.z.z.z.z.z.z.z.z.z.z.z.z.z.z.z.z.z.z.z.z.z.z.z.z.z.z.z.z.z.z.z.z.z.z.z.z.z.z."
};
