/* XPM */
static char *result[] = {
/* columns rows colors chars-per-pixel */
"64 64 139 2 ",
"   c #000605",
".  c #000907",
"X  c #070B09",
"o  c #130D0C",
"O  c #352D27",
"+  c #441513",
"@  c #661B18",
"#  c #695546",
"$  c #990012",
"%  c #A20F1B",
"&  c #811E27",
"*  c #A61625",
"=  c #A71B26",
"-  c #AD1A29",
";  c #8F222F",
":  c #95232E",
">  c #9E242D",
",  c #9B2433",
"<  c #A3232C",
"1  c #AC242C",
"2  c #AE292F",
"3  c #B0252B",
"4  c #B3292E",
"5  c #BC2A2D",
"6  c #AD2631",
"7  c #AC3F32",
"8  c #E81718",
"9  c #EC1A1D",
"0  c #EC1E20",
"q  c #C32B2E",
"w  c #CB2C2D",
"e  c #D42D2D",
"r  c #DB2F2D",
"t  c #DE302C",
"y  c #E42620",
"u  c #EB2323",
"i  c #E92927",
"p  c #E52F2B",
"a  c #E92D2A",
"s  c #F32C27",
"d  c #F12C28",
"f  c #E5312C",
"g  c #E8312C",
"h  c #F2332C",
"j  c #FD352F",
"k  c #E33E32",
"l  c #FC3630",
"z  c #FF3832",
"x  c #AB4E34",
"c  c #A56435",
"v  c #A76A39",
"b  c #AC6C3C",
"n  c #AC733D",
"m  c #DC4C38",
"M  c #E54136",
"N  c #E34D3D",
"B  c #E1513F",
"V  c #B83E45",
"C  c #BE4F4A",
"Z  c #AF7C41",
"A  c #B37542",
"S  c #B57A44",
"D  c #B97B47",
"F  c #BB7E49",
"G  c #8D786C",
"H  c #D95E44",
"J  c #E15945",
"K  c #D76A4B",
"L  c #DD654B",
"P  c #DD6C51",
"I  c #D67653",
"U  c #DA7A59",
"Y  c #CF7268",
"T  c #B18042",
"R  c #BE824B",
"E  c #C1854D",
"W  c #C38A4F",
"Q  c #C48B51",
"!  c #D08A5F",
"~  c #CA9156",
"^  c #DB9D5B",
"/  c #DCA05C",
"(  c #D58F65",
")  c #CE9968",
"_  c #D5976B",
"`  c #E78067",
"'  c #CCA46F",
"]  c #DCA365",
"[  c #DDA568",
"{  c #CCA973",
"}  c #D1A774",
"|  c #D0AA76",
" . c #D4AC7B",
".. c #CAB076",
"X. c #CDB47B",
"o. c #D1B07B",
"O. c #E0A567",
"+. c #E3AE67",
"@. c #E0A668",
"#. c #E2AA6C",
"$. c #E0B36E",
"%. c #E7B86F",
"&. c #E4AC73",
"*. c #E8B271",
"=. c #E9BB72",
"-. c #E8B77C",
";. c #EABD7A",
":. c #F1C67C",
">. c #CDBB81",
",. c #D3B984",
"<. c #DFB488",
"1. c #DBBD8C",
"2. c #DEB495",
"3. c #E5A581",
"4. c #E0B485",
"5. c #E7B98C",
"6. c #EABD97",
"7. c #ECBF9A",
"8. c #CEC387",
"9. c #CECC8E",
"0. c #D7CC95",
"q. c #DEC896",
"w. c #EDC09C",
"e. c #E8CA9F",
"r. c #F1C29C",
"t. c #EFC8A2",
"y. c #F3C5A3",
"u. c #F6C8A7",
"i. c #FBCBA7",
"p. c #F7CBAE",
"a. c #F9CAAB",
"s. c #FFD0AD",
"d. c #FBCDB1",
"f. c #F2D9B1",
"g. c #FEDBB7",
"h. c #FCDDBA",
"j. c #F2E0B6",
"k. c #FFEBC3",
"l. c None",
/* pixels */
"l.l.l.l.l.l.l.l.l.l.l.l.l.l.l.l.l.l.l.l.l.l.l.g g g g g f g g g g g g g g l.l.l.l.l.l.l.l.l.l.l.l.l.l.l.l.l.l.l.l.l.l.l.l.l.l.l.",
"l.l.l.l.l.l.l.l.l.l.l.l.l.l.l.l.l.l.l.l.l.g g g g g g g g g g g f g g g g g g g l.l.l.l.l.l.l.l.l.l.l.l.l.l.l.l.l.l.l.l.l.l.l.l.",
"l.l.l.l.l.l.l.l.l.l.l.l.l.l.l.l.l.l.l.g g g g g g g g g g g f g g g g g g g g p l.l.l.l.l.l.l.l.l.l.l.l.l.l.l.l.l.l.l.l.l.l.l.l.",
"l.l.l.l.l.l.l.l.l.l.l.l.l.l.l.l.l.l.l.g g g g g g g g g g g g g g g g p g g p a l.l.l.l.l.l.l.l.l.l.l.l.l.l.l.l.l.l.l.l.l.l.l.l.",
"l.l.l.l.l.l.l.l.l.l.l.l.l.l.l.l.l.l.g g g f g g f g g g g f g g g g g g g g 9 J l.l.l.l.l.l.l.l.l.l.l.l.l.l.l.l.l.l.l.l.l.l.l.l.",
"l.l.l.l.l.l.l.l.l.l.l.l.l.l.l.l.l.l.g g g g g g g g g g g g g f g g g g g p u ( 8.l.l.l.l.l.l.l.l.l.l.l.l.l.l.l.l.l.l.l.l.l.l.l.",
"l.l.l.l.l.l.l.l.l.l.l.l.l.l.l.l.l.g f g g g g g g g g g g g g f g g g g g u M  . .l.l.l.l.l.l.l.l.l.l.l.l.l.l.l.l.l.l.l.l.l.l.l.",
"l.l.l.l.l.l.l.l.l.l.l.l.l.l.l.l.l.g g g g g g f g g f g g g g f g p g g g 9 P 8.| l.l.l.l.l.l.l.l.l.l.l.l.l.l.l.l.l.l.l.l.l.l.l.",
"l.l.l.l.l.l.l.l.l.l.l.l.l.l.l.l.l.g g g g g g g g g g g g g f g g g g g a i _ X.} l.l.l.l.l.l.l.l.l.l.l.l.l.l.l.l.l.l.l.l.l.l.l.",
"l.l.l.l.l.l.l.l.l.l.l.l.l.l.l.l.l.g g g g g g g g f g g g g g g g g g g 9 N ,.'  .l.l.l.l.l.l.l.l.l.l.l.l.l.l.l.l.l.l.l.l.l.l.l.",
"l.l.l.l.l.l.l.l.l.l.l.l.l.l.l.l.l.g g g g g g g g g g g g g g g g g g g 9 U >.' r.l.l.l.l.l.l.l.l.l.l.l.l.l.l.l.l.l.l.l.l.l.l.l.",
"l.l.l.l.l.l.l.l.l.l.l.l.l.l.l.l.l.g g g g g g g g g g g f g g g g g f a p ) ..7.a.l.l.l.l.l.l.l.l.l.l.l.l.l.l.l.l.l.l.l.l.l.l.l.",
"l.l.l.l.l.l.l.l.l.l.l.l.l.l.l.l.l.g g g g g g g g g g g g g g g g f g 9 m ,.w.d.a.l.l.l.l.l.l.l.l.l.l.l.l.l.l.l.l.l.l.l.l.l.l.l.",
"l.l.l.l.l.l.l.l.l.l.l.l.l.l.l.l.l.g g g f g g g p g g g g g g f g g f 8 ` j.a.7.4.l.l.l.l.l.l.l.l.l.l.l.l.l.l.l.l.l.l.l.l.l.l.l.",
"l.l.l.l.l.l.l.l.l.l.l.l.l.l.l.l.l.g g g g g f g g g g f g g p g g g a y 3.h.t.4.5.l.l.l.l.l.l.l.l.l.l.l.l.l.l.l.l.l.l.l.l.l.l.l.",
"l.l.l.l.l.l.l.l.l.l.l.l.l.l.l.l.l.f g g g g g g g g g g g g g g g g u k | t.u.i.G l.l.l.l.l.l.l.l.l.l.l.l.l.l.l.l.l.l.l.l.l.l.l.",
"l.l.l.l.l.l.l.l.l.l.l.l.l.l.l.l.l.g g g g g g g g f g g g g g g g g 9 B X.7.s.g.O l.l.l.l.l.l.l.l.l.l.l.l.l.l.l.l.l.l.l.l.l.l.l.",
"l.l.l.l.l.l.l.l.l.l.l.l.l.l.l.l.l.g g g g g g g g g g g g g g f g g 9 L >.7.a.k.# l.l.l.l.l.l.l.l.l.l.l.l.l.l.l.l.l.l.l.l.l.l.l.",
"l.l.l.l.l.l.l.l.l.l.l.l.l.l.l.l.g g g g g g g f g g f g f g g g g f u U >.w.u.a.6.l.l.l.l.l.l.l.l.l.l.l.l.l.l.l.l.l.l.l.l.l.l.l.",
"l.l.l.l.l.l.l.l.l.l.l.l.l.l.l.l.g g g g g g g g g g g g g g g g g p i ( ,.y.u.y.i.l.l.l.l.l.l.l.l.l.l.l.l.l.l.l.l.l.l.l.l.l.l.l.",
"l.l.l.l.l.l.l.l.l.l.l.l.l.l.l.l.g g g f g g g g g g g g g g g g g i f ) ,.u.y.y.y.l.l.l.l.l.l.l.l.l.l.l.l.l.l.l.l.l.l.l.l.l.l.l.",
"l.l.l.l.l.l.l.l.l.l.l.l.l.l.l.l.l.g g f g f g g f g g g g f g g g i g ) 1.a.y.y.y.l.l.l.l.l.l.l.l.l.l.l.l.l.l.l.l.l.l.l.l.l.l.l.",
"l.l.l.l.l.l.l.l.l.l.l.l.l.l.l.l.l.g g f g g g g g g g g g g g g g p i ( q.a.y.y.y.l.l.l.l.l.l.l.l.l.l.l.l.l.l.l.l.l.l.l.l.l.l.l.",
"l.l.l.l.l.l.l.l.l.l.l.l.l.l.l.l.l.g g g g g g f g g g p g g g g g f 9 K 0.a.y.y.y.l.l.l.l.l.l.l.l.l.l.l.l.l.l.l.l.l.l.l.l.l.l.l.",
"l.l.l.l.l.l.l.l.l.l.l.l.l.l.l.l.l.l.g g g g g g g g g g g g g f g g u g { e.a.r.l.l.l.l.l.l.l.l.l.l.l.l.l.l.l.l.l.l.l.l.l.l.l.l.",
"l.l.l.l.l.l.l.l.l.l.l.l.l.l.l.l.l.l.g g g g g g f g g g g g g g g g g 9 L 9.f.l.l.l.l.l.l.l.l.l.l.l.l.l.l.l.l.l.l.l.l.l.l.l.l.l.",
"l.l.l.l.l.l.l.l.l.l.l.l.l.l.l.l.l.l.g g g g g g g g g g g f g f g g f a u I l.l.l.l.l.l.l.l.l.l.l.l.l.l.l.l.l.l.l.l.l.l.l.l.l.l.",
"l.l.l.l.l.l.l.l.l.l.l.l.l.l.l.l.l.l.g g g g g g g g g f g g g f g g g g d u l.l.l.l.l.l.l.l.l.l.l.l.l.l.l.l.l.l.l.l.l.l.l.l.l.l.",
"l.l.l.l.l.l.l.l.l.l.l.l.l.l.l.l.l.l.l.g g g g g l.g f g g g g f g g f p t h h l.l.l.l.l.l.l.l.l.l.l.l.l.l.l.l.l.l.l.l.l.l.l.l.l.",
"l.l.l.l.l.l.l.l.l.l.l.l.l.l.l.l.l.l.l.g g g g l.g g g g g g g g g f h r > l.l.l.l.l.l.l.l.l.l.l.l.l.l.l.l.l.l.l.l.l.l.l.l.l.l.l.",
"l.l.l.l.l.l.l.l.l.l.l.l.l.l.l.l.l.l.l.l.g g l.g g g g g g g g g g g h r < l.l.l.l.l.l.l.l.l.l.l.l.l.l.l.l.l.l.l.l.l.l.l.l.l.l.l.",
"l.l.l.l.l.l.l.l.l.l.l.l.l.l.l.l.l.l.l.l.l.l.g g g g g g g f g g f g g r < 1 l.l.l.l.l.l.l.l.l.l.l.l.l.l.l.l.l.l.l.l.l.l.l.l.l.l.",
"l.l.l.l.l.l.l.l.l.l.l.l.l.l.l.l.l.l.l.l.l.l.g f g f g g g g g g g g h r < 1 l.l.l.l.l.l.l.l.l.l.l.l.l.l.l.l.l.l.l.l.l.l.l.l.l.l.",
"l.l.l.l.l.l.l.l.l.l.l.l.l.l.l.l.l.l.l.l.l.g g g g g g g g g g p g g g r < 1 l.l.l.l.l.l.l.l.l.l.l.l.l.l.l.l.l.l.l.l.l.l.l.l.l.l.",
"l.l.l.l.l.l.l.l.l.l.l.l.l.l.l.l.l.l.l.l.g g g g g g g g g g g g g g h e < 1 l.l.l.l.l.l.l.l.l.l.l.l.l.l.l.l.l.l.l.l.l.l.l.l.l.l.",
"l.l.l.l.l.l.l.l.l.l.l.l.l.l.l.l.l.l.l.g g g g g g g g f g g g g g g h r < 1 l.l.l.l.l.l.l.l.l.l.l.l.l.l.l.l.l.l.l.l.l.l.l.l.l.l.",
"l.l.l.l.l.l.l.l.l.l.l.l.l.l.l.l.l.l.g g g g f g g g g g g g g f g g h e < 1 1 l.l.l.l.l.l.l.l.l.l.l.l.l.l.l.l.l.l.l.l.l.l.l.l.l.",
"l.l.l.l.l.l.l.l.l.l.l.l.l.l.l.l.l.g g f g g g g g f g g g g g g g f h e < 1 1 1 l.l.l.l.l.l.l.l.l.l.l.l.l.l.l.l.l.l.l.l.l.l.l.l.",
"l.l.l.l.l.l.l.l.l.l.l.l.l.l.l.l.g g g g g g g g g p g g f g g g g f h e < 1 1 1 2 l.l.l.l.l.l.l.l.l.l.l.l.l.l.l.l.l.l.l.l.l.l.l.",
"l.l.l.l.l.l.l.l.l.l.l.l.l.l.l.g g g f g g g g g g g f g g g g g g g h e < 2 1 1 1 % Y h.y.#./ @.@.l.l.l.l.l.l.l.l.l.l.l.l.l.l.l.",
"l.l.l.l.l.l.l.l.l.l.l.l.l.l.l.g g r f f g g g g g g f g g g f g g g h w < 1 1 1 % V g.-.^ &.&.] @.@.@.l.l.l.l.l.l.l.l.l.l.l.l.l.",
"l.l.l.l.l.l.l.l.l.l.l.l.l.l.g g p r h g g g f g g g g g g g g g g g h w > 1 2 l.$ C ;.@.r.d.l.l.l.l.@.@.l.l.l.l.l.l.l.l.l.l.l.l.",
"l.l.l.l.l.l.l.l.l.l.l.l.l.g f h e r g g g f g g g g g g g g g g g g h w < 1 l.l.l.^ #.p.p.y.l.l.l.l.l.l.@.l.l.l.l.l.l.l.l.l.l.l.",
"l.l.l.l.l.l.l.l.l.l.l.l.g g h t w h g g t r h g g g f g f g g g g a h w < 1 l.l.l.$.l.l.l.l.l.l.l.l.l.l.@.@.l.l.l.l.l.l.l.l.l.l.",
"l.l.l.l.l.l.l.l.l.l.l.l.f f h w e h f g e f g g g g g g g f g g g g h q < 1 l.l.=.O.l.l.l.l.l.l.l.l.l.l.l.@.l.l.l.l.l.l.l.l.l.l.",
"l.l.l.l.l.l.l.l.l.l.l.g f h f q g g h t e g g g f g g g g g g g g g d q < 1 l.l.=.l.l.l.l.l.l.l.l.l.l.l.l.@.@.l.l.l.l.l.l.l.l.l.",
"l.l.l.l.l.l.l.l.l.l.g g g h q w h f h w r h g r f g g g g g g g g g h q < 1 % l.%.l.l.l.l.l.l.l.l.l.l.l.l.@.@.l.l.l.l.l.l.l.l.l.",
"l.l.l.l.l.l.l.l.l.l.f g h e 5 h g h e q h g p r g g g f f g g f f g g 5 < 1 = l.:.*.#.l.l.l.l.l.l.l.l.l.l.#.@.l.l.l.l.l.l.l.l.l.",
"l.l.l.l.l.l.l.l.l.g f h f 4 r h g h q r h h r e h g f r g f g g g g g 1 < 1 - l.$.] ] ] [ [ [ [ @.@.@.[ [ ] @.l.l.l.l.l.l.l.l.l.",
"l.l.l.l.l.l.l.l.l.f g h 5 q h f h e 5 h f g w r g h r r h g g g g g g < > 1 - l.n b D S F A S F A F A R D b S l.l.l.l.l.l.l.l.l.",
"l.l.l.l.l.l.l.l.l.l.g q 6 g h g f 4 t h g t w h f h r t g g g g g g g > : 3 - x Z A Q R Q F D R A D b R D b v l.l.l.l.l.l.l.l.l.",
"l.l.l.l.l.l.l.l.l.l.l.4 r h g h 5 q h g h e w h g f e g g g g g g h p > : 1 - x T S ~ R Q E F R A F A W F b b l.l.l.l.l.l.l.l.l.",
"l.l.l.l.l.l.l.l.l.l.l.l.h f h w 4 g h g h w e h h e w h g g g g g h f > ; < - 7 S S ~ R W W R E S R A R A c l.l.l.l.l.l.l.l.l.l.",
"l.l.l.l.l.l.l.l.l.l.l.l.l.h w 6 r h f g f q t g h e w h g g g f g h f 6 , 2 3 l.l.v R W E R D F A A b D c b l.l.l.l.l.l.l.l.l.l.",
"l.l.l.l.l.l.l.l.l.l.l.l.l.l.q w h g g g r q f g h w e h f g g g g h 5 & l.l.l.l.l.l.v S S A A A A b A b v l.l.l.l.l.l.l.l.l.l.l.",
"l.l.l.l.l.l.l.l.l.l.l.l.l.l.l.l.g g f h e q h g f q r h g g g g g z @   l.l.l.l.l.l.l.l.l.l.l.l.l.l.l.l.l.l.l.l.l.l.l.l.l.l.l.l.",
"l.l.l.l.l.l.l.l.l.l.l.l.l.l.l.l.l.g g g w q h g g q p g g g g g g j + . X . l.l.l.l.l.l.l.l.l.l.l.l.l.l.l.l.l.l.l.l.l.l.l.l.l.l.",
"l.l.l.l.l.l.l.l.l.l.l.l.l.l.l.l.l.l.l.h q w h g t 5 f g g g g g j g o . o l.l.l.l.l.l.l.l.l.l.l.l.l.l.l.l.l.l.l.l.l.l.l.l.l.l.l.",
"l.l.l.l.l.l.l.l.l.l.l.l.l.l.l.l.l.l.l.l.q w h h t 5 g g g g g g g l l.l.l.l.l.l.l.l.l.l.l.l.l.l.l.l.l.l.l.l.l.l.l.l.l.l.l.l.l.l.",
"l.l.l.l.l.l.l.l.l.l.l.l.l.l.l.l.l.l.l.l.l.l.g h r 5 g g f g g g g h l.l.l.l.l.l.l.l.l.l.l.l.l.l.l.l.l.l.l.l.l.l.l.l.l.l.l.l.l.l.",
"l.l.l.l.l.l.l.l.l.l.l.l.l.l.l.l.l.l.l.l.l.l.l.l.e q g g g g g g g l.l.l.l.l.l.l.l.l.l.l.l.l.l.l.l.l.l.l.l.l.l.l.l.l.l.l.l.l.l.l.",
"l.l.l.l.l.l.l.l.l.l.l.l.l.l.l.l.l.l.l.l.l.l.l.l.l.l.f h g g g g g l.l.l.l.l.l.l.l.l.l.l.l.l.l.l.l.l.l.l.l.l.l.l.l.l.l.l.l.l.l.l.",
"l.l.l.l.l.l.l.l.l.l.l.l.l.l.l.l.l.l.l.l.l.l.l.l.l.l.l.l.g g g g l.l.l.l.l.l.l.l.l.l.l.l.l.l.l.l.l.l.l.l.l.l.l.l.l.l.l.l.l.l.l.l.",
"l.l.l.l.l.l.l.l.l.l.l.l.l.l.l.l.l.l.l.l.l.l.l.l.l.l.l.l.l.l.l.l.l.l.l.l.l.l.l.l.l.l.l.l.l.l.l.l.l.l.l.l.l.l.l.l.l.l.l.l.l.l.l.l."
};
