/* XPM */
static char *result[] = {
/* columns rows colors chars-per-pixel */
"64 64 114 2 ",
"   c black",
".  c #0F0B07",
"X  c #340406",
"o  c #3C0D0B",
"O  c #440E0D",
"+  c #5C1312",
"@  c #6C1714",
"#  c #6D1815",
"$  c #701715",
"%  c #721816",
"&  c #7C1A17",
"*  c #7C1A18",
"=  c #4C3C24",
"-  c #9D0704",
";  c #851C19",
":  c #8C1E1B",
">  c #9B1A13",
",  c #921F1C",
"<  c #A40A0A",
"1  c #A90B0A",
"2  c #B40B0C",
"3  c #BB0C0E",
"4  c #A0130E",
"5  c #B2130E",
"6  c #A81813",
"7  c #952713",
"8  c #96201D",
"9  c #9D211E",
"0  c #A2221F",
"q  c #B3221C",
"w  c #A72420",
"e  c #AD2521",
"r  c #B52623",
"t  c #B82723",
"y  c #BC2824",
"u  c #AB392C",
"i  c #BF3029",
"p  c #A83B30",
"a  c #C60B0E",
"s  c #CE0312",
"d  c #C00D10",
"f  c #CF0B16",
"g  c #C70E19",
"h  c #D50715",
"j  c #D60E15",
"k  c #DF0C18",
"l  c #C71415",
"z  c #DB121B",
"x  c #D01E1D",
"c  c #D81A1C",
"v  c #C4231E",
"b  c #CC271F",
"n  c #CF281E",
"m  c #D0231F",
"M  c #D02D1F",
"N  c #CF2521",
"B  c #C52A26",
"V  c #CC2C26",
"C  c #CE2C28",
"Z  c #D02721",
"A  c #D32B29",
"S  c #DB2D2A",
"D  c #D03324",
"F  c #E12F2B",
"G  c #E5302C",
"H  c #E8312C",
"J  c #F3332E",
"K  c #FA352F",
"L  c #FE3631",
"P  c #FF3933",
"I  c #FF3F39",
"U  c #B14D2F",
"Y  c #B8473E",
"T  c #B35231",
"R  c #9C683F",
"E  c #A36234",
"W  c #AB6C3B",
"Q  c #AF703F",
"!  c #B0713F",
"~  c #C55C3E",
"^  c #B37542",
"/  c #B77A46",
"(  c #B87A45",
")  c #BB7E49",
"_  c #997D6A",
"`  c #DA5C43",
"'  c #CC6846",
"]  c #C4744C",
"[  c #719F33",
"{  c #72C134",
"}  c #BE824B",
"|  c #BA8D76",
" . c #C1864E",
".. c #C3894E",
"X. c #C58C51",
"o. c #C88F52",
"O. c #CF8B5A",
"+. c #CD945A",
"@. c #D29A5E",
"#. c #E1865C",
"$. c #D59C61",
"%. c #DFA567",
"&. c #DAB873",
"*. c #E1A66F",
"=. c #E2AB6B",
"-. c #E6B06F",
";. c #E3AC72",
":. c #E4B171",
">. c #E9B172",
",. c #EDB876",
"<. c #F7B873",
"1. c #FFC879",
"2. c #FEE4B8",
"3. c None",
/* pixels */
"3.3.3.3.3.3.3.3.3.3.3.3.3.3.3.3.3.3.3.3.3.3.3.3.3.3.3.3.3.3.3.3.3.3.3.3.3.3.3.3.3.3.3.3.3.3.3.3.3.3.3.3.3.3.3.3.3.3.3.3.3.3.3.3.",
"3.3.3.3.3.3.3.3.3.3.3.3.3.3.3.3.3.3.3.3.3.3.3.3.3.3.3.3.3.3.3.3.3.3.3.3.3.3.3.3.3.3.3.3.3.3.3.3.3.3.3.3.3.3.3.3.3.3.3.3.3.3.3.3.",
"3.3.3.3.3.3.3.3.3.3.3.3.3.3.3.3.3.3.3.3.3.% : 0 r y B V V B y r w 8 * 3.3.3.3.3.3.3.3.3.3.3.3.3.3.3.3.3.3.3.3.3.3.3.3.3.3.3.3.3.",
"3.3.3.3.3.3.3.3.3.3.3.3.3.3.3.3.3.9 S L L I L P L L L L L L L P P P P L L G e 3.3.3.3.3.3.3.3.3.3.3.3.3.3.3.3.3.3.3.3.3.3.3.3.3.",
"3.3.3.3.3.3.3.3.3.3.3.3.3.3.3.: P P L H H H H H H H H H H H H H H H H H H L I L C 3.3.3.3.3.3.3.3.3.3.3.3.3.3.3.3.3.3.3.3.3.3.3.",
"3.3.3.3.3.3.3.3.3.3.3.3.3.3.@ I J F H H H H H G H H H H H H H H H H H H H H H H L L 3.3.3.3.3.3.3.3.3.3.3.3.3.3.3.3.3.3.3.3.3.3.",
"3.3.3.3.3.3.3.3.3.3.3.3.3.3.S L G H H H H H H H H H H H H H H H H H H H H H H H G L L 3.3.3.3.3.3.3.3.3.3.3.3.3.3.3.3.3.3.3.3.3.",
"3.3.3.3.3.3.3.3.3.3.3.3.3.3.L J H H H H H H H H H H H H H H H H H H H H H H H H H F I e 3.3.3.3.3.3.3.3.3.3.3.3.3.3.3.3.3.3.3.3.",
"3.3.3.3.3.3.3.3.3.3.3.3.3.3.L H H G H H H H H H H H H H H H H G H H H H H G H H H H H L 3.3.3.3.3.3.3.3.3.3.3.3.3.3.3.3.3.3.3.3.",
"3.3.3.3.3.3.3.3.3.3.3.3.3.3.P H H H H H H H H H H H H H H H H H H H H H H H H H H H G I ; 3.3.3.3.3.3.3.3.3.3.3.3.3.3.3.3.3.3.3.",
"3.3.3.3.3.3.3.3.3.3.3.3.3.3.L H H H H H H G H H H H H H H H H H H H H H H H H H H G H L B 3.3.3.3.3.3.3.3.3.3.3.3.3.3.3.3.3.3.3.",
"3.3.3.3.3.3.3.3.3.3.3.3.3.3.L H H H H H H H H H H G G H H H H H H H H H H H H H H H H K H 3.3.3.3.3.3.3.3.3.3.3.3.3.3.3.3.3.3.3.",
"3.3.3.3.3.3.3.3.3.3.3.3.3.3.P H H H H G H H G H H H H H H H H H H H H H H H H G H H H H L 3.3.3.3.3.3.3.3.3.3.3.3.3.3.3.3.3.3.3.",
"3.3.3.3.3.3.3.3.3.3.3.3.3.3.P H H H H H H H H H H H H H G H H H H H H H G H H H H H H H L 3.3.3.3.3.3.3.3.3.3.3.3.3.3.3.3.3.3.3.",
"3.3.3.3.3.3.3.3.3.3.3.3.3.3.P H H H H H H H H H H H H H H H H H H H H H H H H H H H H H I # 3.3.3.3.3.3.3.3.3.3.3.3.3.3.3.3.3.3.",
"3.3.3.3.3.3.3.3.3.3.3.3.3.3.L H H H G H H H H H H H H G H H H H H G H H H H H H H H G H L : 3.3.3.3.3.3.3.3.3.3.3.3.3.3.3.3.3.3.",
"3.3.3.3.3.3.3.3.3.3.3.3.3.3.P H H H H H H H H H H H H H G H H H H H H H H H H H H H H H P 9 3.3.3.3.3.3.3.3.3.3.3.3.3.3.3.3.3.3.",
"3.3.3.3.3.3.3.3.3.3.3.3.3.3.P H H H H H H H H H H H H H H H H G H H H G H G H H H H H H P e 3.3.3.3.3.3.3.3.3.3.3.3.3.3.3.3.3.3.",
"3.3.3.3.3.3.3.3.3.3.3.3.3.3.L H H H H H H H H H H H H H H H H H H H H H H H H H H H H H L y 3.3.3.3.3.3.3.3.3.3.3.3.3.3.3.3.3.3.",
"3.3.3.3.3.3.3.3.3.3.3.3.3.3.P H H H H H H H H H H H H H H H H H H H H H H H H H H H H H L B 3.3.3.3.3.3.3.3.3.3.3.3.3.3.3.3.3.3.",
"3.3.3.3.3.3.3.3.3.3.3.3.3.3.L H H H H G H H H H H H H H H H H H H H H H H H G H H H H H L V 3.3.3.3.3.3.3.3.3.3.3.3.3.3.3.3.3.3.",
"3.3.3.3.3.3.3.3.3.3.3.3.3.3.I H H H H H H H H H H H H H H H H H G H H H H H H H H H H H L B 3.3.3.3.3.3.3.3.3.3.3.3.3.3.3.3.3.3.",
"3.3.3.3.3.3.3.3.3.3.3.3.3.3.L H H H H H H H H H H H H H H H H H H G H H H H H H H H H H L B 3.3.3.3.3.3.3.3.3.3.3.3.3.3.3.3.3.3.",
"3.3.3.3.3.3.3.3.3.3.3.3.3.3.I H H H H H H H H H H H H H H F G H H H H H H H H H H H H H L r 3.3.3.3.3.3.3.3.3.3.3.3.3.3.3.3.3.3.",
"3.3.3.3.3.3.3.3.3.3.3.3.3.3.L H H H H H H H H H H H H H H H H H H H H H H H H H H H H H L 0 3.3.3.3.3.3.3.3.3.3.3.3.3.3.3.3.3.3.",
"3.3.3.3.3.3.3.3.3.3.3.3.3.3.L H G H H H H H H H H H H H H H H H H H H H H H H G H H H H P : 3.3.3.3.3.3.3.3.3.3.3.3.3.3.3.3.3.3.",
"3.3.3.3.3.3.3.3.3.3.3.3.3.3.L H G H H H H H H H H H H H H H H H H H H H H H H H H H H H I 3.3.3.3.3.3.3.3.3.3.3.3.3.3.3.3.3.3.3.",
"3.3.3.3.3.3.3.3.3.3.3.3.3.3.J J H H H H F H H H H H H H G H H H H H G H H H H H H H H H K 3.3.3.3.3.3.3.3.3.3.3.3.3.3.3.3.3.3.3.",
"3.3.3.3.3.3.3.3.3.3.3.3.3.3.A L H H H H H H H H H H H H H H H H H H G H H H H H H H H L C 3.3.3.3.3.3.3.3.3.3.3.3.3.3.3.3.3.3.3.",
"3.3.3.3.3.3.3.3.3.3.3.3.3.3.e L G H H H H H H H H H H H H H H H H H H H H G H H H H G I & 3.3.3.3.3.3.3.3.3.3.3.3.3.3.3.3.3.3.3.",
"3.3.3.3.3.3.3.3.3.3.3.3.3.3.3.I H H H H H H H H H H H H H H H H H H H H H H H H H H J L 3.3.3.3.3.3.3.3.3.3.3.3.3.3.3.3.3.3.3.3.",
"3.3.3.3.3.3.3.3.3.3.3.3.3.3.3.C I H H H H H H H H H H H H H G H H H H H H H H G H K I % 3.3.3.3.3.3.3.3.3.3.3.3.3.3.3.3.3.3.3.3.",
"3.3.3.3.3.3.3.3.3.3.3.3.3.3.3.3.y L P I P L J G H H H H H H H H H H H H H F K P P L * 3.3.3.3.3.3.3.3.3.3.3.3.3.3.3.3.3.3.3.3.3.",
"3.3.3.3.3.3.3.3.3.3.3.3.3.3.3.3.3.3.# : w V J L H H H H H H H H H G H H H I H 0 3.3.3.3.3.3.3.3.3.3.3.3.3.3.3.3.3.3.3.3.3.3.3.3.",
"3.3.3.3.3.3.3.3.3.3.3.3.3.3.3.3.3.3.3.3.3.3.3.8 K H H H H H H H H H H H L 8 3.3.3.3.3.3.3.3.3.3.3.3.3.3.3.3.3.3.3.3.3.3.3.3.3.3.",
"3.3.3.3.3.3.3.3.3.3.3.3.3.3.3.3.3.3.3.3.3.3.3.+ J S H H H H H H H H H L 3.3.3.3.3.3.3.3.3.3.3.3.3.3.3.3.3.3.3.3.3.3.3.3.3.3.3.3.",
"3.3.3.3.3.3.3.3.3.3.3.3.3.3.3.3.3.3.3.3.3.3.3.t J B V G H H H H J H S H 3.3.3.3.3.3.3.3.3.3.3.3.3.3.3.3.3.3.3.3.3.3.3.3.3.3.3.3.",
"3.3.3.3.3.3.3.3.3.3.3.3.3.3.3.3.3.3.3.3.3.3.3.G J G C B G H H J G C B K r 3.3.3.3.3.3.3.3.3.3.3.3.3.3.3.3.3.3.3.3.3.3.3.3.3.3.3.",
"3.3.3.3.3.3.3.3.3.3.3.3.3.3.3.3.3.3.3.3.3.3.3.K H H G C V S H A B C G L A 3.3.3.3.3.3.3.3.3.3.3.3.3.3.3.3.3.3.3.3.3.3.3.3.3.3.3.",
"3.3.3.3.3.3.3.3.3.3.3.3.3.3.3.3.3.3.3.3.3.3.3.H H H G G S C A C A G H H H 3.3.3.3.3.3.3.3.3.3.3.3.3.3.3.3.3.3.3.3.3.3.3.3.3.3.3.",
"3.3.3.3.3.3.3.3.3.3.3.3.3.3.3.3.3.3.3.3.3.3.3.H H H H H F F S G G G H G H 3.3.3.3.3.3.3.3.3.3.3.3.3.3.3.3.3.3.3.3.3.3.3.3.3.3.3.",
"3.3.3.3.3.3.3.3.3.3.3.3.3.3.3.3.3.3.3.3.3.3.H H H H H H H H H H H H H H H 3.3.3.3.3.3.3.3.3.3.3.3.3.3.3.3.3.3.3.3.3.3.3.3.3.3.3.",
"3.3.3.3.3.3.3.3.3.3.3.3.3.3.3.3.3.3.3.3.3.3.H H H H H H H H H H H G H H H H 3.3.3.3.3.3.3.3.3.3.3.3.3.3.3.3.3.3.3.3.3.3.3.3.3.3.",
"3.3.3.3.3.3.3.3.3.3.3.3.3.3.3.3.3.3.3.3.3.3.H H H H H H H H H H H H H H H H L 3.3.3.3.3.3.3.3.3.3.3.3.3.3.3.3.3.3.3.3.3.3.3.3.3.",
"3.3.3.3.3.3.3.3.3.3.3.3.3.3.3.3.3.3.3.3.3.3.H H H F H H H H H H H H H H H H L o         _ 2.;.[ o.3.3.3.3.3.3.3.3.3.3.3.3.3.3.3.",
"3.3.3.3.3.3.3.3.3.3.3.3.3.3.3.3.3.3.3.3.3.3.H H H H H H H H H H H H H H H H L O         | Y j g k #.:.3.3.3.3.3.3.3.3.3.3.3.3.3.",
"3.3.3.3.3.3.3.3.3.3.3.3.3.3.3.3.3.3.3.3.3.3.H H H H H H H H H H H H H H H J P X   . = 3.p < z s V Z &.:.3.3.3.3.3.3.3.3.3.3.3.3.",
"3.3.3.3.3.3.3.3.3.3.3.3.3.3.3.3.3.3.3.3.3.3.H H H H H H H H H H H H G H H 3.3.3.3.=.1.3.3.7 l c M R { =.:.3.3.3.3.3.3.3.3.3.3.3.",
"3.3.3.3.3.3.3.3.3.3.3.3.3.3.3.3.3.3.3.3.3.3.H H H H H H H H H H H H H H H 3.3.3.3.<.3.2 v i - q l v l 3.=.3.3.3.3.3.3.3.3.3.3.3.",
"3.3.3.3.3.3.3.3.3.3.3.3.3.3.3.3.3.3.3.3.3.3.H H H H H H H H H H H H H H H 3.3.3.=.%.> 3 j f D 6 a h m V %.3.3.3.3.3.3.3.3.3.3.3.",
"3.3.3.3.3.3.3.3.3.3.3.3.3.3.3.3.3.3.3.3.3.3.H H H H H H H H H H H H H H H 3.3.3.=.3.3.1 z b V 4 3 z m D 3.3.3.3.3.3.3.3.3.3.3.3.",
"3.3.3.3.3.3.3.3.3.3.3.3.3.3.3.3.3.3.3.3.3.3.H H H H H H H H F F H H H H H 3.3.3.-.>.3.u 1 b ` %.> 5 m #.,.3.3.3.3.3.3.3.3.3.3.3.",
"3.3.3.3.3.3.3.3.3.3.3.3.3.3.3.3.3.3.3.3.3.3.H H H H H H H H F H H H H H H 3.3.3.@.+.$.O.T ~ %.%.] U ' @.@.3.3.3.3.3.3.3.3.3.3.3.",
"3.3.3.3.3.3.3.3.3.3.3.3.3.3.3.3.3.3.3.3.3.3.H H H H H H H H S H H H H H H 3.3.3.W E / ^ ^ Q Q ^ ! ( ( ^ E 3.3.3.3.3.3.3.3.3.3.3.",
"3.3.3.3.3.3.3.3.3.3.3.3.3.3.3.3.3.3.3.3.3.3.H H H H H H H G S H H H H H H 3.3.3.W !  .) / / ) )  .....o.! 3.3.3.3.3.3.3.3.3.3.3.",
"3.3.3.3.3.3.3.3.3.3.3.3.3.3.3.3.3.3.3.3.3.3.H H H G H H H G S H H H H H H 3.3.3.W W ) ) / } ]  ... ...o.! 3.3.3.3.3.3.3.3.3.3.3.",
"3.3.3.3.3.3.3.3.3.3.3.3.3.3.3.3.3.3.3.3.3.3.H H H F H H H F F H H H H G H 3.3.3.3.E ! ( ^ / ) ) ....o.) W 3.3.3.3.3.3.3.3.3.3.3.",
"3.3.3.3.3.3.3.3.3.3.3.3.3.3.3.3.3.3.3.3.3.3.H H F H H H H S S H H G H H H 3.3.3.3.3.W ! W W ^ / ^ ( ^ W 3.3.3.3.3.3.3.3.3.3.3.3.",
"3.3.3.3.3.3.3.3.3.3.3.3.3.3.3.3.3.3.3.3.3.H H H S H H H H F S H H H H H H 3.3.3.3.3.3.3.3.3.3.3.3.3.3.3.3.3.3.3.3.3.3.3.3.3.3.3.",
"3.3.3.3.3.3.3.3.3.3.3.3.3.3.3.3.3.3.3.3.3.H H F S H H H H S S H H H H H H 3.3.3.3.3.3.3.3.3.3.3.3.3.3.3.3.3.3.3.3.3.3.3.3.3.3.3.",
"3.3.3.3.3.3.3.3.3.3.3.3.3.3.3.3.3.3.3.3.3.H H S F H H H H S S H H H H H H 3.3.3.3.3.3.3.3.3.3.3.3.3.3.3.3.3.3.3.3.3.3.3.3.3.3.3.",
"3.3.3.3.3.3.3.3.3.3.3.3.3.3.3.3.3.3.3.3.3.H F A F H H H H A S F H H H H H H 3.3.3.3.3.3.3.3.3.3.3.3.3.3.3.3.3.3.3.3.3.3.3.3.3.3.",
"3.3.3.3.3.3.3.3.3.3.3.3.3.3.3.3.3.3.3.3.3.J F A F H H H G A S H H H H H H H 3.3.3.3.3.3.3.3.3.3.3.3.3.3.3.3.3.3.3.3.3.3.3.3.3.3.",
"3.3.3.3.3.3.3.3.3.3.3.3.3.3.3.3.3.3.3.3.3.3.F F F J H H 3.3.3.3.3.3.3.3.3.3.3.3.3.3.3.3.3.3.3.3.3.3.3.3.3.3.3.3.3.3.3.3.3.3.3.3."
};
