/* XPM */
static char *result[] = {
/* columns rows colors chars-per-pixel */
"64 64 221 2 ",
"   c black",
".  c #070808",
"X  c #1E1814",
"o  c #181F25",
"O  c #1C2125",
"+  c #2D3338",
"@  c #7A0014",
"#  c #7E0E22",
"$  c #493C32",
"%  c #654F3F",
"&  c #394045",
"*  c #5B5450",
"=  c #6D5849",
"-  c #7A6555",
";  c #9A0817",
":  c #A20B1B",
">  c #B1111E",
",  c #891325",
"<  c #9C1421",
"1  c #840D20",
"2  c #AB1425",
"3  c #A51A24",
"4  c #A31D28",
"5  c #A81826",
"6  c #B41D28",
"7  c #B91A27",
"8  c #AB0D22",
"9  c #8C212E",
"0  c #95222E",
"q  c #9C232D",
"w  c #8A2936",
"e  c #8A303C",
"r  c #A4242D",
"t  c #AC252C",
"y  c #AD292F",
"u  c #B2262C",
"i  c #BB252B",
"p  c #B4292E",
"a  c #BB292D",
"s  c #AD2E30",
"d  c #AE3031",
"f  c #A73B37",
"g  c #B63733",
"h  c #D51B1D",
"j  c #E7080E",
"k  c #E9161A",
"l  c #EA1B1D",
"z  c #E81618",
"x  c #F71D1D",
"c  c #EA0616",
"v  c #ED211E",
"b  c #C51D26",
"n  c #EA1D20",
"m  c #E41A20",
"M  c #C42B2D",
"N  c #CB2C2D",
"B  c #CA2429",
"V  c #D32D2D",
"C  c #DC2F2C",
"Z  c #DB2428",
"A  c #DE302C",
"S  c #C83632",
"D  c #D73A31",
"F  c #E92323",
"G  c #E52B26",
"H  c #E92926",
"J  c #E72429",
"K  c #E42E2A",
"L  c #E82E2A",
"P  c #E62626",
"I  c #FB2D2A",
"U  c #F32828",
"Y  c #E4312C",
"T  c #E9312C",
"R  c #E6382E",
"E  c #F3332C",
"W  c #FA342C",
"Q  c #E73B33",
"!  c #EA3C33",
"~  c #E73730",
"^  c #AC4C3D",
"/  c #B24D3D",
"(  c #B2463B",
")  c #B65539",
"_  c #AD513F",
"`  c #9B7A3D",
"'  c #A66536",
"]  c #AB6B3B",
"[  c #A46738",
"{  c #B6693C",
"}  c #A8723E",
"|  c #DB4934",
" . c #C75D39",
".. c #D14231",
"X. c #E64036",
"o. c #E64A3C",
"O. c #EB4639",
"+. c #E1513D",
"@. c #9E4449",
"#. c #B84343",
"$. c #AE5C44",
"%. c #AF5541",
"&. c #B25C44",
"*. c #B45541",
"=. c #886A56",
"-. c #8D735F",
";. c #AE6E4C",
":. c #B6694A",
">. c #AB7E44",
",. c #A87A41",
"<. c #B37542",
"1. c #B57A45",
"2. c #BA7D46",
"3. c #BB7E49",
"4. c #BA744E",
"5. c #BC7851",
"6. c #997C67",
"7. c #BE7167",
"8. c #C05740",
"9. c #E55342",
"0. c #E45A46",
"q. c #E75C48",
"w. c #EB5543",
"e. c #D76C52",
"r. c #E4644D",
"t. c #E76649",
"y. c #E66C55",
"u. c #E47757",
"i. c #CF7567",
"p. c #EF7F6C",
"a. c #BE824B",
"s. c #B38247",
"d. c #B38D59",
"f. c #B48E75",
"g. c #B9957C",
"h. c #A69067",
"j. c #AEA563",
"k. c #AEA864",
"l. c #B0A764",
"z. c #C1834D",
"x. c #C68B51",
"c. c #CA9155",
"v. c #E28559",
"b. c #F4835F",
"n. c #DE8A65",
"m. c #DD946B",
"M. c #DD996E",
"N. c #D09878",
"B. c #E28B67",
"V. c #E18764",
"C. c #E1936C",
"Z. c #E39A63",
"A. c #DFA464",
"S. c #DCAC7C",
"D. c #DBA676",
"F. c #DAB37E",
"G. c #DEB56F",
"H. c #E1A668",
"J. c #E4AB6D",
"K. c #E1A967",
"L. c #E3AC7F",
"P. c #E4AD72",
"I. c #E3B478",
"U. c #DED179",
"Y. c #E3C47A",
"T. c #E8C47C",
"R. c #BDBEBF",
"E. c #8F9090",
"W. c #E19D86",
"Q. c #D6AB8A",
"!. c #DDB382",
"~. c #DABA84",
"^. c #DCBE88",
"/. c #D4AE90",
"(. c #E3A38A",
"). c #EDA58A",
"_. c #F5A88B",
"`. c #E4B382",
"'. c #E8B38C",
"]. c #E5B886",
"[. c #EABD94",
"{. c #EEBD9B",
"}. c #E8B798",
"|. c #F6BB9A",
" X c #DAC38B",
".X c #DAC88F",
"XX c #DBCC91",
"oX c #DBD899",
"OX c #E3C48E",
"+X c #EAC88C",
"@X c #E3CB93",
"#X c #EDC19B",
"$X c #E6C89B",
"%X c #F1C29D",
"&X c #FCCB9B",
"*X c #E4D59B",
"=X c #E3D196",
"-X c #F1D492",
";X c #DBE09E",
":X c #ECCCA2",
">X c #EAC2A2",
",X c #F3C5A3",
"<X c #F5C9A5",
"1X c #F6C9A9",
"2X c #FACDAB",
"3X c #F8C8A9",
"4X c #EDD3A8",
"5X c #F9D5AB",
"6X c #FCD6B1",
"7X c #F4DBB4",
"8X c #FEDBB4",
"9X c #FFDDB8",
"0X c #F5D5B1",
"qX c #F8CDB4",
"wX c #F6E2BB",
"eX c #FEE3BC",
"rX c #F6E3B4",
"tX c #FFEAC2",
"yX c #FFF5C8",
"uX c #F7FCFF",
"iX c None",
/* pixels */
"iXiXiXiXiXiXiXiXiXiXiXiXiXiXiXiXiXiXiXiXiXiXiXiXiXiXiXiXiXiXT T T T T T L T iXiXiXiXiXiXiXiXiXiXiXiXiXiXiXiXiXiXiXiXiXiXiXiXiXiX",
"iXiXiXiXiXiXiXiXiXiXiXiXiXiXiXiXiXiXiXiXiXiXiXiXiXiXiXT T T T T T Y T T Y Y Y T iXiXiXiXiXiXiXiXiXiXiXiXiXiXiXiXiXiXiXiXiXiXiXiX",
"iXiXiXiXiXiXiXiXiXiXiXiXiXiXiXiXiXiXiXiXiXiXiXiXiXT T T T T T T T Y Y T T Y T T T T iXiXiXiXiXiXiXiXiXiXiXiXiXiXiXiXiXiXiXiXiXiX",
"iXiXiXiXiXiXiXiXiXiXiXiXiXiXiXiXiXiXiXiXiXiXiXiXT T T T L L L L L L L T T L L T T T T iXiXiXiXiXiXiXiXiXiXiXiXiXiXiXiXiXiXiXiXiX",
"iXiXiXiXiXiXiXiXiXiXiXiXiXiXiXiXiXiXiXiXiXiXiXT T T H k n F F F F F n n n F n k P T T T iXiXiXiXiXiXiXiXiXiXiXiXiXiXiXiXiXiXiXiX",
"iXiXiXiXiXiXiXiXiXiXiXiXiXiXiXiXiXiXiXiXiXiXT T G k L y.C.m.C.n.n.B.B.V.V.B.B.y.~ l L T T iXiXiXiXiXiXiXiXiXiXiXiXiXiXiXiXiXiXiX",
"iXiXiXiXiXiXiXiXiXiXiXiXiXiXiXiXiXiXiXiXiXT T z P y.L.@X@X@X@XOX X X X.X@X@X@X=X].t.k P T iXiXiXiXiXiXiXiXiXiXiXiXiXiXiXiXiXiXiX",
"iXiXiXiXiXiXiXiXiXiXiXiXiXiXiXiXiXiXiXiXT L k 9.L.*XOX`.L.I.`.].`.S.`.`.`.`.`.`.OX*Xu.l T T iXiXiXiXiXiXiXiXiXiXiXiXiXiXiXiXiXiX",
"iXiXiXiXiXiXiXiXiXiXiXiXiXiXiXiXiXiXiXiXT l q.*X@XI.`.'.[.{.%X{.#X#X%X%X{.[.[.].L.].*Xt.z T T iXiXiXiXiXiXiXiXiXiXiXiXiXiXiXiXiX",
"iXiXiXiXiXiXiXiXiXiXiXiXiXiXiXiXiXiXiXT F Q OXOX`.[.%X,X,X1X1X,X1X1X,X1X2X3X3X,X%X].OXOXX.n Y iXiXiXiXiXiXiXiXiXiXiXiXiXiXiXiXiX",
"iXiXiXiXiXiXiXiXiXiXiXiXiXiXiXiXiXiXiXT z y.XX].%X1X1X,X,X,X,X,X,X,X,X,X,X,X,X,X1X1X[.=XB.l T iXiXiXiXiXiXiXiXiXiXiXiXiXiXiXiXiX",
"iXiXiXiXiXiXiXiXiXiXiXiXiXiXiXiXiXiXiXL F C.@X3X2X,X3X,X,X,X,X,X,X,X,X,X,X,X,X,X,X1X2X<XOXo.n T iXiXiXiXiXiXiXiXiXiXiXiXiXiXiXiX",
"iXiXiXiXiXiXiXiXiXiXiXiXiXiXiXiXiXiXT H R L.0X1X{.[.[.{.<X,X,X,X,X,X,X,X,X,X,X#X[.[.#X3XrXv.z Y iXiXiXiXiXiXiXiXiXiXiXiXiXiXiXiX",
"iXiXiXiXiXiXiXiXiXiXiXiXiXiXiXiXiXiXT F o.:X<X[.&X5X&XS.!.<X,X,X,X,X,X,X<X,XQ.F.&X5X%X[.0X'.G P iXiXiXiXiXiXiXiXiXiXiXiXiXiXiXiX",
"iXiXiXiXiXiXiXiXiXiXiXiXiXiXiXiXiXiXT k 0.4X2X3Xf.=.Q.0X%X,X,X,X,X,X,X,X,X,X,X6Xf.=.N.6X2X$X+.l T iXiXiXiXiXiXiXiXiXiXiXiXiXiXiX",
"iXiXiXiXiXiXiXiXiXiXiXiXiXiXiXiXiXiXT k e.rX{.= * +   - eX,X,X,X,X,X,X,X,X,X9X%   & * = 1X0Xu.l T iXiXiXiXiXiXiXiXiXiXiXiXiXiXiX",
"iXiXiXiXiXiXiXiXiXiXiXiXiXiXiXiXiXT T l u.rXQ.X uXE.    Q.9X,X,X,X,X,X,X,XeXg.    R.uXX :X4Xn.F L iXiXiXiXiXiXiXiXiXiXiXiXiXiXiX",
"iXiXiXiXiXiXiXiXiXiXiXiXiXiXiXiXiXT T n n.4XyX= O       Q.9X,X,X,X<X,X,X,XeXf.    . o =.yX@XM.Y L iXiXiXiXiXiXiXiXiXiXiXiXiXiXiX",
"iXiXiXiXiXiXiXiXiXiXiXiXiXiXiXiXiXT L F m.4X9X/.      = 9X3X,X,X,X%X,X,X,X2X6X$       >X9X#XS.Q F iXiXiXiXiXiXiXiXiXiXiXiXiXiXiX",
"iXiXiXiXiXiXiXiXiXiXiXiXiXiXiXiXiXT G L M.:X1X9X/.-.h.8X2X>X,X<X,X'.{.3X,X{.6X6X6.-.>X8X1X[.F.o.F T iXiXiXiXiXiXiXiXiXiXiXiXiXiX",
"iXiXiXiXiXiXiXiXiXiXiXiXiXiXiXiXiXT H T D.:X1X,X6XeXeX2X%X,X,X,X%X'.{.,X,X,X{.2XeXtX6X{.1X{.~.9.l T iXiXiXiXiXiXiXiXiXiXiXiXiXiX",
"iXiXiXiXiXiXiXiXiXiXiXiXiXiXiXiXiXT P R D.>X1X,X,X,X,X,X,X,X,X,X,X,X,X,X,X,X<X,X<X,X,X,X1X[.~.0.l T iXiXiXiXiXiXiXiXiXiXiXiXiXiX",
"iXiXiXiXiXiXiXiXiXiXiXiXiXiXiXiXiXT H Q D.$X1X,X,X,X,X,X,X,X,X,X,X<X,X,X,X,X,X,X,X,X,X,X1X].^.0.n T iXiXiXiXiXiXiXiXiXiXiXiXiXiX",
"iXiXiXiXiXiXiXiXiXiXiXiXiXiXiXiXiXT F Q S.!.<X0X,X,X,X,X,X,X,X,X,X,X,X,X,X,X,X,X,X,X<X6X>XS.^.9.l T iXiXiXiXiXiXiXiXiXiXiXiXiXiX",
"iXiXiXiXiXiXiXiXiXiXiXiXiXiXiXiXiXT F X.!.!.S.,XwX7X7X8X5X8X8X8X3X#X6X9X8X8X8X8X0XrXwX|.S.S.^.9.n T iXiXiXiXiXiXiXiXiXiXiXiXiXiX",
"iXiXiXiXiXiXiXiXiXiXiXiXiXiXiXiXiXT F o.!. Xm.Q p.)._.).(.(.(.L.,X8X'.W.(.(.Q.)._.).y.! D.^.!.O.F T iXiXiXiXiXiXiXiXiXiXiXiXiXiX",
"iXiXiXiXiXiXiXiXiXiXiXiXiXiXiXiXiXT n o.~..XM.z j U P 5 3 3 2 ; i.eXs : 3 5 5 5 P x j L S..XS.Q F T iXiXiXiXiXiXiXiXiXiXiXiXiXiX",
"iXiXiXiXiXiXiXiXiXiXiXiXiXiXiXiXiXT n 9.^.XXu.l E C 4 4 t 3 t 3 t #.5 5 t t 5 4 u L E F M.XXD.T H T iXiXiXiXiXiXiXiXiXiXiXiXiXiX",
"iXiXiXiXiXiXiXiXiXiXiXiXiXiXiXiXiXT n 9.^. X0.x Y r r t t t t y t : t t t t t t < a E l u.XXS.Q H T iXiXiXiXiXiXiXiXiXiXiXiXiXiX",
"iXiXiXiXiXiXiXiXiXiXiXiXiXiXiXiXiXT n 9. X~.O.n t r t t t t t t t t t t t t t t t r V U q.XXS.Q P iXiXiXiXiXiXiXiXiXiXiXiXiXiXiX",
"iXiXiXiXiXiXiXiXiXiXiXiXiXiXiXiXiXiXl 0..X].O.7 q t t t t t t t t t t t t t t t t r t k q.XX!.X.F iXiXiXiXiXiXiXiXiXiXiXiXiXiXiX",
"iXiXiXiXiXiXiXiXiXiXiXiXiXiXiXiXiXiXl 0.oX+XS 3 t t t t t t t t t t t t t t t t t t r b q.oX^.Q iXiXiXiXiXiXiXiXiXiXiXiXiXiXiXiX",
"iXiXiXiXiXiXiXiXiXiXiXiXiXiXiXiXiXiXG ! iXe.r 4 t t t t t t t t t t t t t t t t t t t < D b.iXL iXiXiXiXiXiXiXiXiXiXiXiXiXiXiXiX",
"iXiXiXiXiXiXiXiXiXiXiXiXiXiXiXiXiXiXiXiXiX: t s t t t t t t t t t t t t t t t t t t t y t iXiXiXiXiXiXiXiXiXiXiXiXiXiXiXiXiXiXiX",
"iXiXiXiXiXiXiXiXiXiXiXiXiXiXiXiXiXiXiXiXr t t t t t t t u t t t t t t t t t u u r t t t t q t iXiXiXiXiXiXiXiXiXiXiXiXiXiXiXiXiX",
"iXiXiXiXiXiXiXiXiXiXiXiXiXiXiXiXiXiXiXiXu t t t t t r B 7 5 2 2 2 2 2 2 2 5 > B t t t t t u t iXiXiXiXiXiXiXiXiXiXiXiXiXiXiXiXiX",
"iXiXiXiXiXiXiXiXiXiXiXiXiXiXiXiXiXiXiX@ , u t t t 6 t :.;.$._ / / *./ / _ :.;.) 6 t t t t r 1 iXiXiXiXiXiXiXiXiXiXiXiXiXiXiXiXiX",
"iXiXiXiXiXiXiXiXiXiXiXiXiXiXiXiXiXiXiX7.e 1 u t t 3 g d.j.j.k.k.l.k.k.l.j.d.j.4.6 4 t u s 1 @.N.iXiXiXiXiXiXiXiXiXiXiXiXiXiXiXiX",
"iXiXiXiXiXiXiXiXiXiXiXiXiXiXiXiXiX3XeXyX#Xw 3 u t r C S ( ^ _ _ $.&.$._ ^ :.:.6 i r t p < e eXyX2X,XiXiXiXiXiXiXiXiXiXiXiXiXiXiX",
"iXiXiXiXiXiXiXiXiXiXiXiXiXiXiXqX1X,X,XwX2Xd < t r i T 7 3 2 2 5 2 5 2 8 2 *.4.u M r t r ; #.|.7X1X%X,X,XiXiXiXiXiXiXiXiXiXiXiXiX",
"iXiXiXiXiXiXiXiXiXiXiXiXA.P.|.`.`.%X0XiXiXh q r q V Y r t t t t t t t t s ( 3.f B i q q r G k iXwX,X{.,X,XiXiXiXiXiXiXiXiXiXiXiX",
"iXiXiXiXiXiXiXiXiXiXK.H.A.J.`.L.K.P.iXiXj T M t i E N q t t t t t t t 6 s g 4.^ b L i u A E H j iX7X{.{.iXiXiXiXiXiXiXiXiXiXiXiX",
"iXiXiXiXiXiXiXiXH.A.K.iXiXiXiX1XiXiXU.J.F F E T E E u r t t t t t t t t s d :.:.2 T E E T L R H iXiXiXiXiXiXiXiXiXiXiXiXiXiXiXiX",
"iXiXiXiXiXiXiXK.H.iXiXiXiXiXiXiXiXiXiXI.J.n L T T T t t t t t t t t t t s s _ <.3 C E T Y K T T n iXiXiXiXiXiXiXiXiXiXiXiXiXiXiX",
"iXiXiXiXiXiXiXH.iXiXiXiXiXiXiXiXiXiXiXR +Xu.z L E A t r t t t t t t t t y d / i.r B E T Y A T T R iXiXiXiXiXiXiXiXiXiXiXiXiXiXiX",
"iXiXiXiXiXiXH.H.iXiXiXiXiXiXiXiXiXiXT z u.Y.G G E V r t t t t t t t t t t r d / r a E T A C T T T R iXiXiXiXiXiXiXiXiXiXiXiXiXiX",
"iXiXiXiXiXiXA.iXiXiXiXiXiXiXiXiXiXiXT F Y G.t.l E V q t t t t t t t t t r r u 5 r t T T A V T T T T iXiXiXiXiXiXiXiXiXiXiXiXiXiX",
"iXiXiXiXiXH.H.iXiXiXiXiXiXiXiXiXiXT T T F Z.v.l T M r t t t t t t t t t r r t t t t A E T N T T T T T iXiXiXiXiXiXiXiXiXiXiXiXiX",
"iXiXiXiXiXH.H.iXiXiXiXiXiXiXiXiXiXl l l c v.v.l E i r t t t t t t t t t r r t t u q V E T N Y T Y C T iXiXiXiXiXiXiXiXiXiXiXiXiX",
"iXiXiXiXiXH.J.iXiXiXiXiXiXiXiXiXt.t.r.t.0.G.Z.U L t r r t t r t t t t r t q y t t q M E T M V T T C T T iXiXiXiXiXiXiXiXiXiXiXiX",
"iXiXiXiXiXP.H.J.J.J.J.P.J.P.J.I.U.Y.T.Y.Y.T.J.! Z r r t t t r t t t t r u q r u t r p T E M N E T V K T iXiXiXiXiXiXiXiXiXiXiXiX",
"iXiXiXiXiX3.] <.z.z.3.z.1.z.z.1.a.e.s.z.} s. .I N r r t t t q t t u r r p q q u t t y Y W N M E E V A T iXiXiXiXiXiXiXiXiXiXiXiX",
"iXiXiXiXiX[ ] ] 3.1.] 3.] 3.e.` a.1.s.z.] } ) I M q r u t t q t t t r r u r 0 u t t q V W V a T E V V T T iXiXiXiXiXiXiXiXiXiXiX",
"iXiXiXiXiX] <.<.z.a.<.z.1.z.z.} c.z.z.c.<.,.{ E i q r t t t q r u r r u t r 0 t t t q M W V y V E Y N T T iXiXiXiXiXiXiXiXiXiXiX",
"iXiXiXiXiX] ] ] x.a.1.z.} a.z.{ c.a.z.c.<.>. .J t q r u t t q t u r r p u t 0 r t t 4 a E Y p N E T M A T T iXiXiXiXiXiXiXiXiXiX",
"iXiXiXiXiXiX] ' 3.2.} z.2.a.x.a.c.a.c.c.} ,.| Z q r t t u r 0 r t r r t t t 0 r t t t t C E a a T E N V E T iXiXiXiXiXiXiXiXiXiX",
"iXiXiXiXiXiX] ' <.2.[ 1.<.a.3.1.c.2.c.a.,.{ I B q q t t y r 0 r r r t t t u q 0 t t t r N W M y A E V M E T T iXiXiXiXiXiXiXiXiX",
"iXiXiXiXiXiXiX1.' <.} >.,.1.s.,.a.>.>.[ ) L L p 0 r u t u r 0 t y r u t t t r 0 r u t r a W V r V E Y a K T T iXiXiXiXiXiXiXiXiX",
"iXiXiXiXiXiXiXiXiXiXiX| D | | g S | | a Z I C y q t y t t q 0 y r r u t t y r 0 r t t t t L Y s M T E M N E T T iXiXiXiXiXiXiXiX",
"iXiXiXiXiXiXiXiXiXiXiXU U I J i J I J i C W N , q t t t t q 0 r r u t t t u y 0 q t t t q V E a p Y E V p T T T iXiXiXiXiXiXiXiX",
"iXiXiXiXiXiXiXiXiXiXiXY L E M M E E M a I L y 9 r u t u r 0 q r t t t t t t u r 0 r u r r i W N s V E T p V E T T iXiXiXiXiXiXiX",
"iXiXiXiXiXiXiXiXiXiXT T T L p V E T p V W M 9 q t t t t r 0 0 y t t t t t t y r 0 r t t r r Y Y r M T E M p T T T iXiXiXiXiXiXiX",
"iXiXiXiXiXiXiXiXiXT Y T E M p T E M p T E N 0 q r r r q 9 9 0 t t t t t t t t u 0 9 t r t u C E M s C E Y y V T T T iXiXiXiXiXiX",
"iXiXiXiXiXiXiXiXiXY Y E A p C E A p V E T E K V V N B M a p r t t t t t t t t t p iXiXiXiXiXiXiXiXiXiXiXiXiXiXiXiXiXiXiXiXiXiXiX"
};
