/* XPM */
static char *c2NyZWVu[] = {
/* columns rows colors chars-per-pixel */
"64 64 111 2 ",
"   c #303E19",
".  c #35441C",
"X  c #36491E",
"o  c #3A4C1F",
"O  c #374D21",
"+  c #3B4E21",
"@  c #365424",
"#  c #3D5422",
"$  c #365A27",
"%  c #3C5B26",
"&  c #3C542B",
"*  c #365E28",
"=  c #395F28",
"-  c #3E6027",
";  c #376129",
":  c #3C6329",
">  c #3E6A2B",
",  c #3F712D",
"<  c #404A27",
"1  c #434F28",
"2  c #415622",
"3  c #435C24",
"4  c #485F25",
"5  c #44552A",
"6  c #48572C",
"7  c #45592C",
"8  c #4B5C2D",
"9  c #475F30",
"0  c #456226",
"q  c #496526",
"w  c #4C6927",
"e  c #436528",
"r  c #4A652A",
"t  c #446B2A",
"y  c #4B6C29",
"u  c #4D6C28",
"i  c #4E6D29",
"p  c #4E6F29",
"a  c #4D6F2A",
"s  c #506D27",
"d  c #506E28",
"f  c #516F29",
"g  c #44702D",
"h  c #45722C",
"j  c #47722C",
"k  c #47762E",
"l  c #49712B",
"z  c #4A702A",
"x  c #4F7129",
"c  c #4C732B",
"v  c #4F722A",
"b  c #4F742B",
"n  c #4B762D",
"m  c #4C762C",
"M  c #4C772D",
"N  c #47792E",
"B  c #4D782D",
"V  c #4E782C",
"C  c #4F7B2D",
"Z  c #4C7B2E",
"A  c #517028",
"S  c #50732A",
"D  c #51732A",
"F  c #53742A",
"G  c #53752A",
"H  c #53762B",
"J  c #52772B",
"K  c #54762A",
"L  c #53782B",
"P  c #54782B",
"I  c #57782A",
"U  c #557A2B",
"Y  c #567B2B",
"T  c #537A2C",
"R  c #527B2D",
"E  c #517D2E",
"W  c #517F2E",
"Q  c #557C2C",
"!  c #557F2D",
"~  c #5A7D2B",
"^  c #597D2C",
"/  c #466431",
"(  c #4D6531",
")  c #4E6A34",
"_  c #506330",
"`  c #526631",
"'  c #576E35",
"]  c #586F34",
"[  c #577235",
"{  c #607A38",
"}  c #55802D",
"|  c #54832F",
" . c #51842F",
".. c #59812C",
"X. c #5B812C",
"o. c #5A832D",
"O. c #58842E",
"+. c #5C852D",
"@. c #5C872E",
"#. c #5C892E",
"$. c #5E8E2F",
"%. c #518630",
"&. c #508831",
"*. c #5C8C30",
"=. c #618B2E",
"-. c #608C2E",
";. c #63912E",
":. c #67982F",
">. c #649330",
",. c #689730",
"<. c #699930",
/* pixels */
"T q # # w h $ S f 3 3 u t * W 3 u u 2 E ; # # r 3 + # # 2 + 3 : e u 0 . # X.l : X 3 u 2 0 G w y u t t L u > # # w K v = t 0 M { ",
"S G e > w P 2 0 O.3 3 -.u u r u G u # u 0 t S u # 3 3 w 0 3   0 3 0 0 0 3 f 0 l *.3 X 0 G r # w v * : T Q ; e 2 3 0 v T %.3 u ] ",
"; M w C T 3 u w e : @ 0 U q 3 y t h 3   G u 3 % : t @.h t v u u w e ; E Q 0 0 f S y 0 Q ; e 0 v E w 0 3 3 3 r 2 3 - l v G L e r ",
"% u 0 2 C t v 2 # M C e M e H C ; e O.0 % 0 q t t T w t : 3 l u G v l e t * @ w u %.e u h t w ; t q 0 G o u S e w t * l u ; g _ ",
"X.3 S 3 # > : # K ~ w @.t * 0 G v # G } : : q u % 2 0 w 0 K t * r 2 0 0 v C e # %.y e u w q 3 t e 3 0 @ @ U M : ~ i t D G = t 5 ",
"M t E f 3 % O.-.K t S #.: t # # 2 . 3 w h 0 | r o # q o 3 K $.e w 2 . 3 u u c e ; t G w K 2 2 r u 0 h ; M w 0 h y 4 w # 3 e %.' ",
"e : t S 2 o 3 K ; : u 0 u l *.# 3 3 o G O.- t l 2 w u o % > t 3 S C 3 w : L + % ; X.@.= t 0 w : 0 $.L 0 %.3 q : c i % H t t t 8 ",
"w l % # t 3 3 t t : - w u w M l | q ; t w t $ L P : t @.0 @ M u ; t O.v ; h | C 0 y G % @ E %.; h l 0 y S S w t f # t t i D t + ",
"w 0 o 3 k ; 0 P | 0 % k l P t $ % f t t 0 q G y % l h #.0 3 S K - $ q w v 3 X.r 3 G r u 3 v # w L 0 w % t U 3 2 y i @ t w e t ` ",
"- 0 3 G l b 0 # 3 X.w e T q # = % f P 0 A 0 0 u % #.E # f u # # 0 S o 3 U 0 3 c l 0 # u Q 3 X u 3 + O.t l U t % 3 # 0 c S e k ) ",
"Q L E e 2 0 t = 0 y t 3 3 G 0 r P w P + G l ; G Q 0 t w @.t : 3 u K 3 t t ; # u > e b u > 0 t t v % M @.r X.t : # D r + 0 r l 8 ",
"w 2 0 t 2 0 t > w K > e w C t % # l > e q % t u X.E * % % h w O.M % 3 q > @ u u t # S t e 0 e C *.t t u + b t T T e H G % % t ( ",
"% 3 u | 3 v w G 0 u e v G : : t u U * ; u 0 @ 3 G U ; t 0 w u q : : 3 f S 3 w w 0 o u u r q 3 0 3 # e l e T q # y ; t u t t C ) ",
"# L v t = 0 v v # 2 3 + w E e q @.r 0 e 3 4 + 3 0 w 0 U ~ o q % # y w S o 0 $.# % e 0 # w w . u 3 G u # > h q # ; l M w b w h / ",
"w # % : % b l t % G t w P 3 K P h e 0 q q u o 0 u 2 2 0 M X.; 0 3 u L O.3 @ h u T > @ 3 : $ l X.l P 3 # u u q w 3 S v q # 0 h ` ",
"l y b ~ u q h * w 3 t E 0 3 u 3 : 3 0 0 > M K : : U e % y u : M Q e ; t | > $ S G % c q e > C t : t y q 3 c S 0 U t v 3 e ; t ' ",
"$ M $.b t v G t K v # M w $ @ 0 G v u t h e v t U w % ; t % c ~ 3 e t P T e Q O.3 0 f ~ # u %.t t c 0 r ; ; 0 # e > t # 3 C M 1 ",
"0 q 0 - 0 w b ~ r w 0 w E : t T S M 0 G S w 0 3 u 0 # C c 3 u T 3 # 3 @.G r L 3 + M E e . q G . H c o 3 % l b G e = 0 q 0 %.3 + ",
"t 0 r t u G t % 3 t t @ w u 0 | t ; t 2 0 T # o 3 w 3 o 3 w C : ; 0 y l 3 # e w S u ; ; u 0 % 3 w T e @.f u y O r v 2 X.> e 0 6 ",
"; t #.l e t : @ ~ | ; w w w 3 3 t % M O.t : y Q = t 3 # 3 U t : 0 3 t * = w # M O.b > u 3 w > 3 0 % ; l u e t v b v K u $ % 3 ( ",
"u S S t : G v 3 2 0 0 @.%.> 0 # w o 3 O.e @ 3 E t * y @.t $ u 0 + 0 U e # -.Q * @ f u 2 2 S v u . 0 0 # 0 %.% w : ; M e # K t 6 ",
"0 r 3 0 G q v G O % w w t ; e u 2 # 3 # w r O.# E 3 # %.t t P 3 2 w h U 2 w -.C e 3 2 q u . b w 3 G r G 3 3 w t : l U w e 0 t 5 ",
"w u t : w P t y u t t U P v E G # G C # q E S % G u # # v K % M H t * U w % E 3 *.%.e T w % h t 0 0 > T w # w q w H y e : t N % ",
"0 3 Q 0 + t : ; c 0 t w S K @.t ; | k 0 t : e X.t G v # y ~ v : y C w T e t e q q c > @ 3 t ; | ~ 0 ; t X.M : t u 0 # u l G *.8 ",
"q q # w 0 Q | - 0 u u u : ; S t @ w S 0 3 t U G : t 3 % t e 0 t y e H 0 . : > >.3 + % u w l - # u G w e @.% t ~ 3 3 t 3 2 0 g ` ",
"0 % 3 > ; 0 K q   w M Q M t q q S o 0 w S q 3 X 3 y S t % t 0 q t * % 2 T t e O.G 3 3 l e r w # o y E > e l b u 3 y h u 0 e > r ",
"% e P Q E q b 0 2 0 ; w S w w S %.X 3 l l w O # w 2 0 H | S t 2 w h 3 w -.S U e % q u T t 3 # T X.0 O ; > <.w = Q w 2 S t t Z ) ",
"t | y v b l t % y 3 t w X u G t : y 0 = : X.e e u f @ t w 0 : l X.U ~ u e l T l ; # 3 P l % w t : t G t 0 Q M ; % 0 G 3 T C t ( ",
"0 u > ; f T $ t w : Q L @ % 0 l % 3 3 C l 3 t l v 3 ; t 0 r l r y l e r t $ l W : l 0 e $ w O.e - | :.e ~ q e E 3 # t t T t k 8 ",
"e e u - G v l w L e l G l * l u 3 o 3 q u q 0 @.O.# e M w q # 2 y ; t ~ u = w 0 3 u u : ; P v 0 0 v v ; P 2 + O.U 0 > : T y l ( ",
"t h | t % # w 0 l h 3 3 M r e q q w # # H M w 3 t e u u : t 2 3 w t *.H # 0 w w 3 0 @.w l t # 0 : e 3 t t 0 r t c >.U 3 0 : Z [ ",
"b q 0 t y L 2 w L : t 0 G v v G % : H t > @ ~ %.* = 3 X.: e K C y 3 t > @ f M t P l : % #.S # U | w 3 3 ~ 3 S : * v # 2 u : t 5 ",
"w S w v v t ; % u 0 r P M ; y @.h = | E @ 3 X.M : t % r u P | > = S C & 0 *.t * O.P ; t 0 r : y E t G u t w % : N y q e u # - 7 ",
"t #.t e y t # q w 3 2 q l : l q G w o u 0 f 0 u 0 G U X ~ K # ; = u u 3 3 w w = o K G 0 w t t u # * t T c h 3 y L G 0 : > 3 t r ",
"L 0 q e y w 0 3 3 % t u u S G X 3 v + 3 | u X u T q 3 3 C r 3 G 3 # % w ~ f 0 %.% 0 3 w G 2 G v 0 0 # 0 G e b Q # # q S l @.T ) ",
"q + 0 3 2 3 w P # t h S o G t 0 E t e e : t f 3 > l 0 * : e 2 G f w e ; %.~ % ,.@.l t l G % t y P q 0 G 3 % t w 0 ; t 3 0 e N ' ",
"X 2 t ; 3 K P : L b u b 2 b > > O.M 3 0 t l u 3 : E ~ @ : v u = h ~ u t 3 t t e Q T : % q t = | 3 3 t b b t > L 0 t t u 0 t g y ",
"q v t t 3 3 t ; t o w | : v e # 3 3 G u # w u # u S   2 u S u = w w 3 K P 0 ; ; 3 w @ 0 w t * 0 ~ y ; e w w 0 0 0 L w L y O.M 7 ",
"Q 3 G L o 0 G M % # q h > # u S q S q l # w e ; 3 0 w 0 # w 2 3 S 3 w | w 3 # | q 3 O 0 # 0 w 3 v l t K w # 0 3 # G P w ; ; %.' ",
"h % 0 t o q P w 0 w w S 0 2 3 P t M C ; t u e > M H G G q = e ~ E : h 0 r w 2 | Q 3 3 G y 3 3 t t L G 2 | t w w : > l q % e g 8 ",
"$ w b ; e 3 v t M 3 S t 3 w w h ; t u : 0 0 u 3 S M = t O.> : X.#.; % % l @ t P = ; X.l ; e 3 : t # w 3 w C ; 3 y * l u f ~ E 8 ",
"0 3 @.B 3 2 e > % 0 e ; % 0 0 L l 3 3 3 3 U S q + S w e # w 3 3 3 t t @.M ; % r ~ l e w C 0 # 3 0 r = @ v P 3 K G y K u e M | ` ",
"0 o 0 } 0 G e % 0 q v C % 3 + v u # 3 2 3 w C l O S 0 3 3 0 4 X T X.3 2 H w # 3 @.q 3 u y 0 3 0 # M > t C 0 e e 0 K S u e ; t 5 ",
"0 y 3 % > b u u 0 0 y w P @.: G q 3 % 0 e ; ; l =.l 3 2 @ M w r M > M w 2 u u l t # r E 3 w t * | X.2 v 0 # t y 0 $ > S v y N & ",
"o o # e $ e u v b y ; l w t ; % 2 0 , t 3 u t K U ; U X.% * e 2 % ; 0 S 0 0 % ; t @.3 ; t E : t G w 3 q G L = | P @ ; w - h &.r ",
"b 3 3 L # u c > - t > P 3 3 0 0 X S T w 3 2 u u = : U U + v U 3 o 0 K = h w % t 0 X.G @ t G q l 3 q e ; Q ~ 4 0 o 0 G v - t T 8 ",
"t l 0 3 e r L l e G 3 # 0 ~ r y 3 w S o u u # u %.3 w 2 3 U t t q q w t t K #.0 0 r O.w w o q w o G t : e u t # # P S f T 0 e 7 ",
": : @.l > % w 3 % T 3 3 G M > 0 q l > 3 S t t @.0 v >.0 S M * l @.h % ~ w 3 w 0 u w t E 0 % C v 3 H E w -.#.> t u t t G 0 t , [ ",
"u v O.u G y % 3 0 v , e 3 t : e ~ C $ t 3 % : t q P T : t U K G t : P Q t # r T h X.0 ; e e M E ; h w 3 O.S e 0 u : > e + t C 5 ",
"O.P ; 3 # 3 > % 3 O.e h Q u b u u 3 e c S 0 O 3 0 0 = h e 3 w 3 # u 0 ; : @ r t = U U t 3 e G u ; @ 3 l : w u r 3 t X.G e 0 e + ",
"t 3 v t y O.l u 3 w t t S + u G 0 + u y l K # q 3 u T l O.3 : # # o 3 E = O.O.v e 3 S U h w # c >.u @ : : <.e e u w 2 u ; t C ` ",
"l v X.C e c c e f 3 v w . v L t ; u e ; : O.0 0 u @.= : w t : y f 0 Q G u M K M > @ 3 Q l # w t t w U h 0 Q M ; % w w u C l C 9 ",
"u u e * % c * t q e E K + = 3 l % 3 3 T v % e k S 3 = t 0 r y w S k e w M $ l T e l 3 e % w X.e * %.,.e %.3 e U 3 # t l U a h ` ",
"@ 0 C 3 c L u w K e l K l ; l G 4 + 3 q w q 0 @.X.# e v w r # # u = t P u % t 0 3 w w : ; C u e 0 S S ; U 2 o @.U 0 t ; T u a ) ",
"t C | t 3 3 0 0 l h 3 3 K t r q 0 u # 2 v c w r t e u u : u 3 3 r t *.E # r w w 3 r X.t l w 3 0 : e 3 t w r r t c -.S 3 e : N 8 ",
"M e G t c L 3 r T : e 0 S M u l ; : S t > @ ~ %.* = 3 O.: : S C u 3 t : @ D l w U l : = #.v + U %.w 3 3 U 0 S * : S 5 # y ; t 8 ",
"u 2 u S y t ; % u e r U l ; D @.h = %.E # 3 @.c ; t # q u Q Q > % b L @ 0 -.t ; O.P ; e 0 e : u T t C u t u % : l l w e y 3 e 5 ",
"3 3 t e y t # w u 3 2 0 t t M 0 c u o w e f 0 u e T U O ~ G # : - u w 0 3 w t ; O G L q r u t u @ $ t G l l e r U f 0 * : w > e ",
"u # w r b l r # 3 % t f ~ P w + u r + 3 %.y . D H w 3 : M r 2 T 3 # % l s w ~ | # r 3 w w Q #.2 r 0 + r G e 3 K 3 + 0 S u Q t 5 ",
"> y 0 2 3 e t 3 3 e t S w M 0 W S ; e e = y u 0 t l 3 @ > 0 2 v v q e : G v t C H l t w 0 : t M s u G ~ 0 3 e f 0 ; t w r ; %.` ",
"y t t ; 3 0 > : K E u u % * * r u C e q u c ~ 0 % C >.e = T y = t X.v r S G ; % u U ; = u 3 e U # : | u # e , r w t t a e e = _ ",
"w b t t 3 f u U C > 3 2 3 3 w 3 e C q O # 3 S Q t u % T l X.G = % r l &.r 3 | y # 3 % T u # 3 % = > t ; M a l %.H %.O.t ; u T r ",
"> y Q O.M c w e G t > 3 w v P E > ; e % r 2 u %.> e + l t t G v y o t % e u y t c *.e : u t 3 M r c U U 0 3 3 M = t H e a Q %.) ",
"= G S # u l > # q r u #.l t % w l e 3 v M v r c 3 C *.3 u G L t : v E 3 2 O.u ; T ~ t t r 3 > r H 0 q u a u 3 e > t r 0 t w e / "
};
