/* XPM */
static char *result[] = {
/* columns rows colors chars-per-pixel */
"64 64 153 2 ",
"   c #161616",
".  c #181818",
"X  c gray10",
"o  c #232323",
"O  c gray14",
"+  c #252525",
"@  c #272727",
"#  c #282828",
"$  c gray16",
"%  c #2A2A2A",
"&  c gray17",
"*  c #2C2C2C",
"=  c #2D2D2D",
"-  c gray18",
";  c #2F2F2F",
":  c gray19",
">  c #313131",
",  c #323232",
"<  c gray20",
"1  c #343434",
"2  c #353535",
"3  c gray21",
"4  c #373737",
"5  c gray22",
"6  c #393939",
"7  c #3A3A3A",
"8  c gray23",
"9  c #3C3C3C",
"0  c gray24",
"q  c #3E3E3E",
"w  c #3F3F3F",
"e  c gray25",
"r  c #414141",
"t  c gray26",
"y  c #434343",
"u  c #444444",
"i  c gray27",
"p  c #464646",
"a  c gray28",
"s  c #484848",
"d  c #494949",
"f  c gray29",
"g  c #4B4B4B",
"h  c #4C4C4C",
"j  c gray30",
"k  c #4E4E4E",
"l  c gray31",
"z  c #505050",
"x  c #515151",
"c  c gray32",
"v  c #535353",
"b  c gray33",
"n  c #555555",
"m  c #565656",
"M  c gray34",
"N  c #585858",
"B  c gray35",
"V  c #5A5A5A",
"C  c #5B5B5B",
"Z  c gray36",
"A  c #5D5D5D",
"S  c gray37",
"D  c #5F5F5F",
"F  c #606060",
"G  c gray38",
"H  c #626262",
"J  c gray39",
"K  c #646464",
"L  c #656565",
"P  c gray40",
"I  c #676767",
"U  c #686868",
"Y  c DimGray",
"T  c #6A6A6A",
"R  c gray42",
"E  c #6C6C6C",
"W  c #6D6D6D",
"Q  c gray43",
"!  c #6F6F6F",
"~  c gray44",
"^  c #717171",
"/  c #727272",
"(  c gray45",
")  c #747474",
"_  c gray46",
"`  c #767676",
"'  c #777777",
"]  c gray47",
"[  c #797979",
"{  c gray48",
"}  c #7B7B7B",
"|  c #7C7C7C",
" . c gray49",
".. c #7E7E7E",
"X. c gray50",
"o. c #808080",
"O. c #818181",
"+. c gray51",
"@. c #838383",
"#. c #848484",
"$. c gray52",
"%. c #868686",
"&. c gray53",
"*. c #888888",
"=. c #898989",
"-. c gray54",
";. c #8B8B8B",
":. c gray55",
">. c #8D8D8D",
",. c #8E8E8E",
"<. c gray56",
"1. c #909090",
"2. c gray57",
"3. c #929292",
"4. c #939393",
"5. c gray58",
"6. c #959595",
"7. c gray59",
"8. c #979797",
"9. c #989898",
"0. c gray60",
"q. c #9A9A9A",
"w. c #9B9B9B",
"e. c gray61",
"r. c #9D9D9D",
"t. c gray62",
"y. c #9F9F9F",
"u. c #A0A0A0",
"i. c gray63",
"p. c #A2A2A2",
"a. c gray64",
"s. c #A4A4A4",
"d. c #A5A5A5",
"f. c gray65",
"g. c #A7A7A7",
"h. c gray66",
"j. c #A9A9A9",
"k. c #AAAAAA",
"l. c gray67",
"z. c #ACACAC",
"x. c gray68",
"c. c #AEAEAE",
"v. c #AFAFAF",
"b. c gray69",
"n. c #B1B1B1",
"m. c #B2B2B2",
"M. c gray70",
"N. c gray71",
"B. c #B6B6B6",
"V. c #B9B9B9",
"C. c #BBBBBB",
"Z. c #CACACA",
"A. c None",
/* pixels */
"A.A.A.A.A.A.A.A.A.A.A.A.A.A.A.A.A.A.A.A.A.A.A.A.A.A.A.A.A.A.A.A.A.A.A.A.A.A.A.A.A.A.A.A.A.A.A.A.A.A.A.A.A.A.A.A.A.A.A.A.A.A.A.A.",
"A.A.A.A.A.A.A.A.A.A.A.A.A.A.A.A.A.A.A.A.A.A.A.A.A.A.A.A.A.A.A.A.A.A.A.A.A.A.A.A.A.A.A.A.A.A.A.A.A.A.A.A.A.A.A.A.A.A.A.A.A.A.A.A.",
"A.A.A.A.A.A.A.A.A.A.A.A.A.A.A.A.A.A.A.A.A.A.A.A.A.A.A.A.A.A.A.A.A.A.A.A.A.A.A.A.A.A.A.A.A.A.A.A.A.A.A.A.A.A.A.A.A.A.A.A.A.A.A.A.",
"A.A.A.A.A.A.A.A.A.A.A.A.A.A.A.A.A.A.A.A.A.A.A.A.A.A.A.A.A.A.A.A.A.A.A.A.A.A.A.A.A.A.A.A.A.A.A.A.A.A.A.A.A.A.A.A.A.A.A.A.A.A.A.A.",
"A.A.A.A.A.A.A.A.A.A.A.A.A.A.A.A.A.A.A.A.A.A.A.A.A.A.A.A.A.A.A.A.A.A.A.A.A.A.A.A.A.A.A.A.A.A.A.A.A.A.A.A.A.A.A.A.A.A.A.A.A.A.A.A.",
"A.A.A.A.A.A.A.A.A.A.A.A.A.A.A.A.A.A.A.A.A.A.A.A.A.A.A.A.A.A.A.A.A.A.A.A.A.A.A.A.A.A.A.A.A.A.A.A.A.A.A.A.A.A.A.A.A.A.A.A.A.A.A.A.",
"A.A.A.A.A.A.A.A.A.A.A.A.A.A.A.A.A.A.A.A.A.A.A.A.A.A.A.A.A.A.A.A.A.A.A.A.A.A.A.A.A.A.A.A.A.A.A.A.A.A.A.A.A.A.A.A.A.A.A.A.A.A.A.A.",
"A.A.A.A.A.A.A.A.A.A.A.A.A.A.A.A.A.A.A.A.A.A.A.A.A.A.A.A.A.A.A.A.A.A.A.A.A.A.A.A.A.A.A.A.A.A.A.A.A.A.A.A.A.A.A.A.A.A.A.A.A.A.A.A.",
"A.A.A.A.A.A.A.A.A.A.A.A.A.A.A.A.A.A.A.A.A.A.A.A.A.A.A.A.A.A.A.A.A.A.A.A.A.A.A.A.A.A.A.A.A.A.A.A.A.A.A.A.A.A.A.A.A.A.A.A.A.A.A.A.",
"A.A.A.A.A.A.A.A.A.A.A.A.A.A.A.A.A.A.A.A.A.A.A.A.A.A.A.A.A.A.A.A.A.A.A.A.A.A.A.A.A.A.A.A.A.A.A.A.A.A.A.A.A.A.A.A.A.A.A.A.A.A.A.A.",
"A.A.A.A.A.A.A.A.A.A.A.A.A.A.A.A.A.A.A.A.A.A.A.A.A.A.A.A.A.A.A.A.A.A.A.A.A.A.A.A.A.A.A.A.A.A.A.A.A.A.A.A.A.A.A.A.A.A.A.A.A.A.A.A.",
"A.A.A.A.A.A.A.A.A.A.A.A.A.A.A.A.A.A.A.A.A.A.A.A.A.A.A.A.A.A.A.A.A.A.A.A.A.A.A.A.A.A.A.A.A.A.A.A.A.A.A.A.A.A.A.A.A.A.A.A.A.A.A.A.",
"A.A.A.A.A.A.A.A.A.A.A.A.A.A.A.A.A.A.A.A.A.A.A.A.A.A.A.A.A.A.A.A.A.A.A.A.A.A.A.A.A.A.A.A.A.A.A.A.A.A.A.A.A.A.A.A.A.A.A.A.A.A.A.A.",
"A.A.A.A.A.A.A.A.A.A.A.A.A.A.A.A.A.A.A.A.A.A.A.A.A.A.A.A.A.A.A.A.A.A.A.A.A.A.A.A.A.A.A.A.A.A.b V E O...L A.A.A.A.A.A.A.A.A.A.A.A.",
"A.A.A.A.A.A.A.A.A.A.A.A.A.A.A.A.A.A.A.A.A.A.A.A.A.A.A.A.A.A.A.A.A.A.A.A.A.A.A.A.A.A.A.A.A.k j | d.B.k.E M R 4.x.A A.A.A.A.A.A.A.",
"A.A.A.A.A.A.A.A.A.A.A.A.A.A.A.A.A.A.A.A.A.A.A.A.A.A.A.A.A.A.A.A.A.A.A.A.A.A.g k v D F D H n g 0.g.I N _ %.{ P b i A.A.A.A.A.A.A.",
"A.A.A.A.A.A.A.A.A.A.A.A.A.A.A.A.A.A.A.A.A.A.A.A.A.A.A.A.A.A.A.A.A.A.A.A.{ ! ~ [ | X.X.| ' ~ ` -.! , * ] -.D q 2 A.A.A.A.A.A.A.A.",
"A.A.A.A.A.A.A.A.A.A.A.A.A.A.A.A.A.A.A.A.A.A.A.A.A.A.A.A.A._ I W Q ) [ +.2.q.i.e.2.4.7.u.u.8.w.%.^ I I | / V f w A.A.A.A.A.A.A.A.",
"A.A.A.A.A.A.A.A.A.A.A.A.A.A.A.A.A.A.A.A.A.A.A.P Z T ^ ~ O.3.t.f.s.p.k.M.b.k.u.,.| ] %.r.b.m.h.u.i.d.p.=.) ' ~ z A.A.A.A.A.A.A.A.",
"A.A.A.A.A.A.A.A.A.A.A.A.x c S ~ T x x S G U o.:.4.u.h.h.j.x.c.x.x.c.x.m.c.>.] ' W M U { =.u.x.s.y.a.f.y.&. .} ! A.A.A.A.A.A.A.A.",
"A.A.A.A.A.A.A.A.A.A.B K E ` @.>.+._ O.&.%.&.:.3.5.w.g.n.M.N.z.y.k.v.z.b.v.5.} I m z c G Q ) #.&.#.6.N.M.p.$.Q / A.A.A.A.A.A.A.A.",
"A.A.A.A.A.A.A.A.A.S Q _ ..,.6.6.1.,.7.7.6.5.1.>.2.e.j.b.l.9.8.x.M.z.n.v.5.:./ m z m G o.6.7.q.%.U G o.m.V.9.&.:.E A.A.A.A.A.A.A.",
"A.A.A.A.A.A.A.A.S ' #.$.=.1.1.<.1.2.<.<.<.<.,.,.7.u.g.d.9...o.e.r.1.7.4.| X.K l x j S  .q.h.s.2.Y s u S w.C.v.e.Y A.A.A.A.A.A.A.",
"A.A.A.A.A.A.A.Z ' O.X.%.2.2.<.<.<.<.<.<.<.<.<.<.<.,.,.>.@.X.{ ~ W ~ ! _ O.O.^ G v u e p n E &.8.+.D g y _ j.j.#.V A.A.A.A.A.A.A.",
"A.A.A.A.A.A.Z ` +.` ' &.2.1.1.<.<.<.<.<.1.2.1.<.<.<.>.,.,.%...[ ~ W _ o.+.] | ' F x u q 0 A f.x.2.H S Z.*.z &.@.V A.A.A.A.A.A.A.",
"A.A.A.A.A.I O.6.[ W X.1.2.<.2.1.<.<.<.1.4.5.2.1.1.1.2.3.5.*...+.X.G Q o.Q | ../ I m p i Z  .7.i.6.! H =.d 8 #.#.n A.A.A.A.A.A.A.",
"A.A.A.A.A.A.3.i.Q R -.<.&.1.=.-.2.<.<.:.o...;.;.;.:.=.-.:.$.o.$.| m K  .L P ] E c x i i A U L 4.a.-./ s < B &.X.~ ^ A.A.A.A.A.A.",
"A.A.A.A.A.R 7.-.V I %.-.#.=.#.$.:.1.1.#.I D [  .] ] } { ' | o.{ ^ B A T V v { R 9 z k r 7 1 s X.l.h.=.^ A K | =.e.$.A.A.A.A.A.A.",
"A.A.A.A.B >.p.R r K X.=.:.@.-.%.#.3.3.| C l D ( Y P ` / G ` | P ! D b g u R | C t c C t $ * 0 z | 5.+.O.~ L } y.k.5.L A.A.A.A.A.",
"A.A.A.A./ 6.i.E t L o.O.%.>.$.%.>.4.3._ x w f ^ Q U ' ( H '  .P ^ F b d p { L i c m J A.A.A.< 1 > 0 S W Q { 3.i.p.j.O.i A.A.A.A.",
"A.A.A.A. .9.4.D i D  .+.X.%.-.>.3.4.&.! v 0 7 c m z B F z C S n ( J v x v Q c p F B A.A.A.A.A.A.A.A.- N Y } ,.2.7.( i 1 A.A.A.A.",
"A.A.A.A.H 8.=.e 4 M _ O.X...&.2.<.=.+.R f 2 , 1 4 4 w h p a a p C V v m N v p m R A.A.A.A.A.A.A.A.A.A.4 k H ( [ ' f O & A.A.A.A.",
"A.A.A.A.u =.o.: $ u H [ +.O. .*.=.+.o.L w - > - = > 5 w e w e w e x N m b t 7 h B A.A.A.A.A.A.A.A.A.A.A.- u z C c s 9 > A.A.A.A.",
"A.A.A.A.p ` Q 3 % % g ) @.@.o.O.O.O._ S u 4 7 A.A.A.; ; ; ; - > 0 z m M b a 3 - ; A.A.A.A.A.A.A.A.A.A.A.A.; , t p 5 A.A.A.A.A.A.",
"A.A.A.A.s ~ D & & % h ! { @.#.+.X.' Y x q 7 8 A.A.A.A.A.A.- ; - : e z M M n e - = A.A.A.A.A.A.A.A.A.A.A.A.A.A.A.A.A.A.A.A.A.A.A.",
"A.A.A.A.A.n p * * % d F H ~ ^ ~ ^ Y x 7 2 7 A.A.A.A.A.A.A.A.3 3 , 3 d B M N d 3 ; A.A.A.A.A.A.A.A.A.A.A.A.A.A.A.A.A.A.A.A.A.A.A.",
"A.A.A.A.A.t 5 = & 6 j b c V C C F A u , 1 8 A.A.A.A.A.A.A.8 8 8 7 5 p N m m v r > A.A.A.A.A.A.A.A.A.A.A.A.A.A.A.A.A.A.A.A.A.A.A.",
"A.A.A.A.A.a 7 * 4 v B n n n n b v x u 8 7 7 A.A.A.A.A.A.7 7 7 8 6 $ 9 Z B m V h 4 A.A.A.A.A.A.A.A.A.A.A.A.A.A.A.A.A.A.A.A.A.A.A.",
"A.A.A.A.A.A.4 2 b V m n n b m h y y 8 7 7 7 A.A.A.A.A.A.7 7 7 7 7 3 p B M n N c e A.A.A.A.A.A.A.A.A.A.A.A.A.A.A.A.A.A.A.A.A.A.A.",
"A.A.A.A.A.A.w i B M m N b d f t 7 7 6 7 7 A.A.A.A.A.A.A.7 7 7 > 5 A.A.- r n M B j - A.A.A.A.A.A.A.A.A.A.A.A.A.A.A.A.A.A.A.A.A.A.",
"A.A.A.A.A.A.A.f n M z g h i 7 4 6 6 7 7 A.A.A.A.A.A.A.A.7 7 8 = 6 A.A.X > v N B n 9 A.A.A.A.A.A.A.A.A.A.A.A.A.A.A.A.A.A.A.A.A.A.",
"A.A.A.A.A.A.A.s m N f t i q > < 8 7 7 7 7 A.A.A.A.A.A.A.7 7 8 = 0 A.A.O > b B m b p A.A.A.A.A.A.A.A.A.A.A.A.A.A.A.A.A.A.A.A.A.A.",
"A.A.A.A.A.A.A.f m N h u e : A.A.8 7 7 7 7 7 A.A.A.A.A.A.7 7 7 ; r A.A.A.o j V m v y 1 A.A.A.A.A.A.A.A.A.A.A.A.A.A.A.A.A.A.A.A.A.",
"A.A.A.A.A.A.A.d M N j 8 : A.A.A.A.7 7 7 7 7 7 A.A.A.A.A.A.A.7 6 5 g A.A.& q c B v u e A.A.A.A.A.A.A.A.A.A.A.A.A.A.A.A.A.A.A.A.A.",
"A.A.A.A.A.A.A.0 M B g 4 % A.A.A.A.7 7 7 7 7 7 7 A.A.A.A.A.A.7 8 7 # . A.A.n 7 C n x a y A.A.A.A.A.A.A.A.A.A.A.A.A.A.A.A.A.A.A.A.",
"A.A.A.A.A.A.A., d v z e , A.A.A.A.A.7 7 7 7 7 7 7 A.A.A.A.A.7 7 8 9   *.A.G @ b M n h r e A.A.A.A.A.A.A.A.A.A.A.A.A.A.A.A.A.A.A.",
"A.A.A.A.A.A.A.2 b Z J S h A.A.A.A.A.A.7 7 7 7 7 7 7 A.A.A.A.7 7 7 8 + P A.b & g b Z D N s A.A.A.A.A.A.A.A.A.A.A.A.A.A.A.A.A.A.A.",
"A.A.A.A.A.A.A.0 _ } ( | ^ i A.A.A.A.A.A.7 7 7 7 7 A.A.A.A.A.A.7 7 7 8 A.A.- 7 f D ] ) { U q A.A.A.A.A.A.A.A.A.A.A.A.A.A.A.A.A.A.",
"A.A.A.A.A.A.A.> v X.S J +.s A.A.A.A.A.A.A.A.A.A.A.A.A.A.A.A.A.A.A.A.A.A.A.A.* d | =.X.#.@.P u A.A.A.A.A.A.A.A.A.A.A.A.A.A.A.A.A.",
"A.A.A.A.A.A.A.A.3 S t r P s A.A.A.A.A.A.A.A.A.A.A.A.A.A.A.A.A.A.A.A.A.A.A.A.A.q b A 9.} ) a.x A.A.A.A.A.A.A.A.A.A.A.A.A.A.A.A.A.",
"A.A.A.A.A.A.A.A.< k 8 7 n a A.A.A.A.A.A.A.A.A.A.A.A.A.A.A.A.A.A.A.A.A.A.A.A.A.A.6 y A.` I A.n A.A.A.A.A.A.A.A.A.A.A.A.A.A.A.A.A.",
"A.A.A.A.A.A.A.A.A.A.A.A.A.A.A.A.A.A.A.A.A.A.A.A.A.A.A.A.A.A.A.A.A.A.A.A.A.A.A.A.A.A.A.A.A.A.A.A.A.A.A.A.A.A.A.A.A.A.A.A.A.A.A.A.",
"A.A.A.A.A.A.A.A.A.A.A.A.A.A.A.A.A.A.A.A.A.A.A.A.A.A.A.A.A.A.A.A.A.A.A.A.A.A.A.A.A.A.A.A.A.A.A.A.A.A.A.A.A.A.A.A.A.A.A.A.A.A.A.A.",
"A.A.A.A.A.A.A.A.A.A.A.A.A.A.A.A.A.A.A.A.A.A.A.A.A.A.A.A.A.A.A.A.A.A.A.A.A.A.A.A.A.A.A.A.A.A.A.A.A.A.A.A.A.A.A.A.A.A.A.A.A.A.A.A.",
"A.A.A.A.A.A.A.A.A.A.A.A.A.A.A.A.A.A.A.A.A.A.A.A.A.A.A.A.A.A.A.A.A.A.A.A.A.A.A.A.A.A.A.A.A.A.A.A.A.A.A.A.A.A.A.A.A.A.A.A.A.A.A.A.",
"A.A.A.A.A.A.A.A.A.A.A.A.A.A.A.A.A.A.A.A.A.A.A.A.A.A.A.A.A.A.A.A.A.A.A.A.A.A.A.A.A.A.A.A.A.A.A.A.A.A.A.A.A.A.A.A.A.A.A.A.A.A.A.A.",
"A.A.A.A.A.A.A.A.A.A.A.A.A.A.A.A.A.A.A.A.A.A.A.A.A.A.A.A.A.A.A.A.A.A.A.A.A.A.A.A.A.A.A.A.A.A.A.A.A.A.A.A.A.A.A.A.A.A.A.A.A.A.A.A.",
"A.A.A.A.A.A.A.A.A.A.A.A.A.A.A.A.A.A.A.A.A.A.A.A.A.A.A.A.A.A.A.A.A.A.A.A.A.A.A.A.A.A.A.A.A.A.A.A.A.A.A.A.A.A.A.A.A.A.A.A.A.A.A.A.",
"A.A.A.A.A.A.A.A.A.A.A.A.A.A.A.A.A.A.A.A.A.A.A.A.A.A.A.A.A.A.A.A.A.A.A.A.A.A.A.A.A.A.A.A.A.A.A.A.A.A.A.A.A.A.A.A.A.A.A.A.A.A.A.A.",
"A.A.A.A.A.A.A.A.A.A.A.A.A.A.A.A.A.A.A.A.A.A.A.A.A.A.A.A.A.A.A.A.A.A.A.A.A.A.A.A.A.A.A.A.A.A.A.A.A.A.A.A.A.A.A.A.A.A.A.A.A.A.A.A.",
"A.A.A.A.A.A.A.A.A.A.A.A.A.A.A.A.A.A.A.A.A.A.A.A.A.A.A.A.A.A.A.A.A.A.A.A.A.A.A.A.A.A.A.A.A.A.A.A.A.A.A.A.A.A.A.A.A.A.A.A.A.A.A.A.",
"A.A.A.A.A.A.A.A.A.A.A.A.A.A.A.A.A.A.A.A.A.A.A.A.A.A.A.A.A.A.A.A.A.A.A.A.A.A.A.A.A.A.A.A.A.A.A.A.A.A.A.A.A.A.A.A.A.A.A.A.A.A.A.A.",
"A.A.A.A.A.A.A.A.A.A.A.A.A.A.A.A.A.A.A.A.A.A.A.A.A.A.A.A.A.A.A.A.A.A.A.A.A.A.A.A.A.A.A.A.A.A.A.A.A.A.A.A.A.A.A.A.A.A.A.A.A.A.A.A.",
"A.A.A.A.A.A.A.A.A.A.A.A.A.A.A.A.A.A.A.A.A.A.A.A.A.A.A.A.A.A.A.A.A.A.A.A.A.A.A.A.A.A.A.A.A.A.A.A.A.A.A.A.A.A.A.A.A.A.A.A.A.A.A.A."
};
