/* XPM */
static char *result[] = {
/* columns rows colors chars-per-pixel */
"64 64 173 2 ",
"   c #000504",
".  c #000907",
"X  c #070B09",
"o  c #110C0C",
"O  c #302924",
"+  c #411412",
"@  c #621A17",
"#  c #655243",
"$  c #950702",
"%  c #94110B",
"&  c #980012",
"*  c #9B1A11",
"=  c #A60C0B",
"-  c #A50A07",
";  c #B80A0B",
":  c #A3120D",
">  c #A20F1B",
",  c #AE1811",
"<  c #A31814",
"1  c #A4281C",
"2  c #B42019",
"3  c #811D27",
"4  c #AF1728",
"5  c #AD1C2A",
"6  c #A71926",
"7  c #8F222F",
"8  c #9D242E",
"9  c #92222E",
"0  c #9B2433",
"q  c #A3232C",
"w  c #AB252C",
"e  c #AE292F",
"r  c #AD2921",
"t  c #B3292E",
"y  c #BC2A2D",
"u  c #B0242B",
"i  c #AC3D2D",
"p  c #AC2631",
"a  c #CA050A",
"s  c #DD040F",
"d  c #C10E11",
"f  c #CB0C14",
"g  c #C90F19",
"h  c #D30413",
"j  c #D80E15",
"k  c #CD1818",
"l  c #CA1417",
"z  c #D7101A",
"x  c #DC131B",
"c  c #D41C1D",
"v  c #E81719",
"b  c #EC1A1E",
"n  c #CD271B",
"m  c #EC1D20",
"M  c #E01D29",
"N  c #C62720",
"B  c #CE2923",
"V  c #C32B2E",
"C  c #CB2C2D",
"Z  c #D32B20",
"A  c #D42D2D",
"S  c #DB2F2D",
"D  c #CE3128",
"F  c #CF3224",
"G  c #DE312D",
"H  c #D03221",
"J  c #EB2323",
"K  c #E92927",
"L  c #E52F2D",
"P  c #E92C29",
"I  c #E32721",
"U  c #F32C28",
"Y  c #E5312C",
"T  c #E8312C",
"R  c #F2332C",
"E  c #FC342F",
"W  c #E43C32",
"Q  c #FF3832",
"!  c #FC3630",
"~  c #AB4E35",
"^  c #AD4032",
"/  c #A56436",
"(  c #AC6C3C",
")  c #A66C38",
"_  c #A9743B",
"`  c #B0713F",
"'  c #DC4E39",
"]  c #E3493B",
"[  c #E73645",
"{  c #BA4548",
"}  c #BF514B",
"|  c #AD7B41",
" . c #B37542",
".. c #B57B44",
"X. c #BA7C47",
"o. c #BB7E49",
"O. c #8B776B",
"+. c #E15743",
"@. c #DD654E",
"#. c #D96749",
"$. c #C37B47",
"%. c #DD6E52",
"&. c #DA7C5A",
"*. c #D67754",
"=. c #D0746A",
"-. c #748D29",
";. c #7D8541",
":. c #828A1F",
">. c #85972E",
",. c #BE824B",
"<. c #C1864D",
"1. c #C3894F",
"2. c #C58B51",
"3. c #D8885C",
"4. c #CA9156",
"5. c #DA9A5A",
"6. c #E08E5E",
"7. c #D08C60",
"8. c #CE9B69",
"9. c #D59163",
"0. c #D69168",
"q. c #D99B69",
"w. c #E78369",
"e. c #CCA36E",
"r. c #DCA367",
"t. c #DDA569",
"y. c #CBAD76",
"u. c #D1A774",
"i. c #D4AC7B",
"p. c #D0AB77",
"a. c #CBB97E",
"s. c #D0B17C",
"d. c #E0A668",
"f. c #E2AA6B",
"g. c #E2AE67",
"h. c #E7B86F",
"j. c #E0B36E",
"k. c #E9BB72",
"l. c #E9B777",
"z. c #F1C57B",
"x. c #E79381",
"c. c #CDBC82",
"v. c #D0B780",
"b. c #D1BA83",
"n. c #D8B987",
"m. c #DFB488",
"M. c #DCBC8C",
"N. c #DEB394",
"B. c #E6A783",
"V. c #E4B789",
"C. c #ECBF9A",
"Z. c #EBBD97",
"A. c #CDC287",
"S. c #CFCC8F",
"D. c #DEC796",
"F. c #D8CD96",
"G. c #D7D999",
"H. c #EDC19C",
"J. c #E9C99F",
"K. c #F2C39D",
"L. c #EFC8A3",
"P. c #F3C5A4",
"I. c #FBCBA7",
"U. c #F7CBAA",
"Y. c #F9CAAB",
"T. c #FFD0AD",
"R. c #FDCDB0",
"E. c #FFDBB6",
"W. c #FDDDBB",
"Q. c #F3D9B1",
"!. c #F2E0B7",
"~. c #FFEAC2",
"^. c None",
/* pixels */
"^.^.^.^.^.^.^.^.^.^.^.^.^.^.^.^.^.^.^.^.^.^.^.^.^.^.^.T T T T Y T T T T Y T T T T ^.^.^.^.^.^.^.^.^.^.^.^.^.^.^.^.^.^.^.^.^.^.^.",
"^.^.^.^.^.^.^.^.^.^.^.^.^.^.^.^.^.^.^.^.^.^.^.^.T T T T T T T T T T T T T T T T T T T ^.^.^.^.^.^.^.^.^.^.^.^.^.^.^.^.^.^.^.^.^.",
"^.^.^.^.^.^.^.^.^.^.^.^.^.^.^.^.^.^.^.^.^.^.^.^.P T Y T T Y T T T Y T T T T Y T T T T T T ^.^.^.^.^.^.^.^.^.^.^.^.^.^.^.^.^.^.^.",
"^.^.^.^.^.^.^.^.^.^.^.^.^.^.^.^.^.^.^.^.^.^.^.^.P T T T T T T T T T T T T T T T T Y T T T ^.^.^.^.^.^.^.^.^.^.^.^.^.^.^.^.^.^.^.",
"^.^.^.^.^.^.^.^.^.^.^.^.^.^.^.^.^.^.^.^.^.^.^.^.+.m T T T T Y T Y T T T T T T T T T Y T T T ^.^.^.^.^.^.^.^.^.^.^.^.^.^.^.^.^.^.",
"^.^.^.^.^.^.^.^.^.^.^.^.^.^.^.^.^.^.^.^.^.^.^.A.0.J Y T T T T T T T T T Y T T T T T T T Y T ^.^.^.^.^.^.^.^.^.^.^.^.^.^.^.^.^.^.",
"^.^.^.^.^.^.^.^.^.^.^.^.^.^.^.^.^.^.^.^.^.^.^.i.s.] m P T T T T T T Y T T T T Y T T T T T T T ^.^.^.^.^.^.^.^.^.^.^.^.^.^.^.^.^.",
"^.^.^.^.^.^.^.^.^.^.^.^.^.^.^.^.^.^.^.^.^.^.^.u.A.%.b T T Y T T T T T T T T T T T T Y T T T T ^.^.^.^.^.^.^.^.^.^.^.^.^.^.^.^.^.",
"^.^.^.^.^.^.^.^.^.^.^.^.^.^.^.^.^.^.^.^.^.^.^.u.v.0.K K T T T T T Y T T T T T T T T T T T T T ^.^.^.^.^.^.^.^.^.^.^.^.^.^.^.^.^.",
"^.^.^.^.^.^.^.^.^.^.^.^.^.^.^.^.^.^.^.^.^.^.^.i.e.v.+.m T T T Y T T T T T T T Y T T Y T T T T ^.^.^.^.^.^.^.^.^.^.^.^.^.^.^.^.^.",
"^.^.^.^.^.^.^.^.^.^.^.^.^.^.^.^.^.^.^.^.^.^.^.K.e.c.&.b L T T T T T T T Y T T T T T T T T Y T ^.^.^.^.^.^.^.^.^.^.^.^.^.^.^.^.^.",
"^.^.^.^.^.^.^.^.^.^.^.^.^.^.^.^.^.^.^.^.^.^.^.Y.Z.y.8.T K T T T T T Y T T T T T Y T T T T T T ^.^.^.^.^.^.^.^.^.^.^.^.^.^.^.^.^.",
"^.^.^.^.^.^.^.^.^.^.^.^.^.^.^.^.^.^.^.^.^.^.^.U.R.H.c.' m Y T T T T T T T T T T T T T T Y T T ^.^.^.^.^.^.^.^.^.^.^.^.^.^.^.^.^.",
"^.^.^.^.^.^.^.^.^.^.^.^.^.^.^.^.^.^.^.^.^.^.^.V.H.R.Q.w.v P T T T T T Y T T Y T T T T T T T T ^.^.^.^.^.^.^.^.^.^.^.^.^.^.^.^.^.",
"^.^.^.^.^.^.^.^.^.^.^.^.^.^.^.^.^.^.^.^.^.^.^.V.m.P.W.B.I K T T Y T T T T T T T T T Y T T T T ^.^.^.^.^.^.^.^.^.^.^.^.^.^.^.^.^.",
"^.^.^.^.^.^.^.^.^.^.^.^.^.^.^.^.^.^.^.^.^.^.^.O.I.U.L.y.] J T Y T T T T Y T T T T T T T T T Y ^.^.^.^.^.^.^.^.^.^.^.^.^.^.^.^.^.",
"^.^.^.^.^.^.^.^.^.^.^.^.^.^.^.^.^.^.^.^.^.^.^.O E.Y.H.s.' J T T T T T Y T T T T Y T T T T Y T ^.^.^.^.^.^.^.^.^.^.^.^.^.^.^.^.^.",
"^.^.^.^.^.^.^.^.^.^.^.^.^.^.^.^.^.^.^.^.^.^.^.# ~.U.C.c.@.b T T T T T T T T T Y T T T T T T T ^.^.^.^.^.^.^.^.^.^.^.^.^.^.^.^.^.",
"^.^.^.^.^.^.^.^.^.^.^.^.^.^.^.^.^.^.^.^.^.^.^.N.U.U.H.c.3.m P T T T T T T Y T T T T T T T T T T ^.^.^.^.^.^.^.^.^.^.^.^.^.^.^.^.",
"^.^.^.^.^.^.^.^.^.^.^.^.^.^.^.^.^.^.^.^.^.^.^.T.P.P.P.n.9.K P T T Y T T T T T T T T Y T T T T T ^.^.^.^.^.^.^.^.^.^.^.^.^.^.^.^.",
"^.^.^.^.^.^.^.^.^.^.^.^.^.^.^.^.^.^.^.^.^.^.^.P.P.P.P.n.8.W K T T T T T T T Y T T T T T T T T T ^.^.^.^.^.^.^.^.^.^.^.^.^.^.^.^.",
"^.^.^.^.^.^.^.^.^.^.^.^.^.^.^.^.^.^.^.^.^.^.^.P.P.P.U.M.8.T K T T T T T T T T T T Y T T T T Y ^.^.^.^.^.^.^.^.^.^.^.^.^.^.^.^.^.",
"^.^.^.^.^.^.^.^.^.^.^.^.^.^.^.^.^.^.^.^.^.^.^.P.P.P.U.D.7.J P T T T T T T T T T T T T T T T T ^.^.^.^.^.^.^.^.^.^.^.^.^.^.^.^.^.",
"^.^.^.^.^.^.^.^.^.^.^.^.^.^.^.^.^.^.^.^.^.^.^.P.P.P.U.F.%.b T T T T T T T T Y T T T Y T Y T T ^.^.^.^.^.^.^.^.^.^.^.^.^.^.^.^.^.",
"^.^.^.^.^.^.^.^.^.^.^.^.^.^.^.^.^.^.^.^.^.^.^.^.P.Y.L.y.W J T T T T T T T T T T T T T T T Y T ^.^.^.^.^.^.^.^.^.^.^.^.^.^.^.^.^.",
"^.^.^.^.^.^.^.^.^.^.^.^.^.^.^.^.^.^.^.^.^.^.^.^.^.Q.S.#.b T T T T T T T Y T T T Y T T T T T ^.^.^.^.^.^.^.^.^.^.^.^.^.^.^.^.^.^.",
"^.^.^.^.^.^.^.^.^.^.^.^.^.^.^.^.^.^.^.^.^.^.^.^.^.^.*.m P T T T T T T T T T T L T T T T T T ^.^.^.^.^.^.^.^.^.^.^.^.^.^.^.^.^.^.",
"^.^.^.^.^.^.^.^.^.^.^.^.^.^.^.^.^.^.^.^.^.^.^.^.^.^.J U T Y T Y T T Y T T T T T T T T Y T T ^.^.^.^.^.^.^.^.^.^.^.^.^.^.^.^.^.^.",
"^.^.^.^.^.^.^.^.^.^.^.^.^.^.^.^.^.^.^.^.^.^.^.^.^.U T G Y T T T T T T Y T Y T ^.T T T T T ^.^.^.^.^.^.^.^.^.^.^.^.^.^.^.^.^.^.^.",
"^.^.^.^.^.^.^.^.^.^.^.^.^.^.^.^.^.^.^.^.^.^.^.^.^.^.^.q A R T T T T T T T T T T ^.T T T T ^.^.^.^.^.^.^.^.^.^.^.^.^.^.^.^.^.^.^.",
"^.^.^.^.^.^.^.^.^.^.^.^.^.^.^.^.^.^.^.^.^.^.^.^.^.^.^.q S R T T T Y T T T T T T Y ^.T T ^.^.^.^.^.^.^.^.^.^.^.^.^.^.^.^.^.^.^.^.",
"^.^.^.^.^.^.^.^.^.^.^.^.^.^.^.^.^.^.^.^.^.^.^.^.^.^.w q A R T T T T T T T T T T T T ^.^.^.^.^.^.^.^.^.^.^.^.^.^.^.^.^.^.^.^.^.^.",
"^.^.^.^.^.^.^.^.^.^.^.^.^.^.^.^.^.^.^.^.^.^.^.^.^.^.w q A R T T T T Y T T T T T T T ^.^.^.^.^.^.^.^.^.^.^.^.^.^.^.^.^.^.^.^.^.^.",
"^.^.^.^.^.^.^.^.^.^.^.^.^.^.^.^.^.^.^.^.^.^.^.^.^.^.w w A R T T T T T T T T Y T T T T ^.^.^.^.^.^.^.^.^.^.^.^.^.^.^.^.^.^.^.^.^.",
"^.^.^.^.^.^.^.^.^.^.^.^.^.^.^.^.^.^.^.^.^.^.^.^.^.^.w q A U T T T T T T T T T T T T T T ^.^.^.^.^.^.^.^.^.^.^.^.^.^.^.^.^.^.^.^.",
"^.^.^.^.^.^.^.^.^.^.^.^.^.^.^.^.^.^.^.^.^.^.^.^.^.^.w q A R T T T Y T T Y T T T T Y T T T ^.^.^.^.^.^.^.^.^.^.^.^.^.^.^.^.^.^.^.",
"^.^.^.^.^.^.^.^.^.^.^.^.^.^.^.^.^.^.^.^.^.^.^.^.^.w w q A T T T T T T T T T T T T Y T T T Y ^.^.^.^.^.^.^.^.^.^.^.^.^.^.^.^.^.^.",
"^.^.^.^.^.^.^.^.^.^.^.^.^.^.^.^.^.^.^.^.^.^.^.^.w e w q A R T T T Y T T T T Y T T T T T T T T ^.^.^.^.^.^.^.^.^.^.^.^.^.^.^.^.^.",
"^.^.^.^.^.^.^.^.^.^.^.^.^.^.^.^.^.^.^.^.^.^.^.e w w w q A R T T T T T T T T T T T T T T T T T T ^.^.^.^.^.^.^.^.^.^.^.^.^.^.^.^.",
"^.^.^.^.^.^.^.^.^.^.^.^.^.^.^.r.9.-.$.K.W.=.> w w w w q C R T T T T T Y T T T T T T Y T T Y T T T ^.^.^.^.^.^.^.^.^.^.^.^.^.^.^.",
"^.^.^.^.^.^.^.^.^.^.^.^.^.d.3.r j l s 3.l.W.{ > w w w q C R T T T T T T T Y T T T T T T T T Y T T ^.^.^.^.^.^.^.^.^.^.^.^.^.^.^.",
"^.^.^.^.^.^.^.^.^.^.^.^.d.d.% = x h F @.d.l.} & ^.e w q C R T T Y T T T T T T T T Y T T T T A Y T T ^.^.^.^.^.^.^.^.^.^.^.^.^.^.",
"^.^.^.^.^.^.^.^.^.^.^.d.^.^.^.* d x H x.G.f.5.^.^.^.w 8 C R T T T T T Y T T Y T T T S T T T G A R Y T ^.^.^.^.^.^.^.^.^.^.^.^.^.",
"^.^.^.^.^.^.^.^.^.^.d.d.^.^.^.>.$ 2 ^.;.:.^.g.^.^.^.w q C R T T T T T T T T T T T T S G R T T C Y T T T ^.^.^.^.^.^.^.^.^.^.^.^.",
"^.^.^.^.^.^.^.^.^.^.d.^.^.; k g S { a l a [ ^.k.^.^.w q V R T T T T T T T T T T T T T S T T R A C R T T ^.^.^.^.^.^.^.^.^.^.^.^.",
"^.^.^.^.^.^.^.^.^.d.d.^.% d j h H : f h c n ^.k.^.^.w q V R T T T Y T T T Y T Y T T T A S T T T V S T T T ^.^.^.^.^.^.^.^.^.^.^.",
"^.^.^.^.^.^.^.^.^.d.d.^.^.= z Z n < ; z Z B ^.k.^.6 w q V R T T T T T T T T T Y L T T S A T T R A V R T T T ^.^.^.^.^.^.^.^.^.^.",
"^.^.^.^.^.^.^.^.^.f.f.^.^.i = N #.^.1 , A 6.h.z.^.6 6 q y T T T T T T L Y T T T A Y T R C A R T T y A R Y T ^.^.^.^.^.^.^.^.^.^.",
"^.^.^.^.^.^.^.^.^.d.q.r.r.f.f.r.t.t.t.t.t.r.r.j.^.5 w q w Y T T T T T T L L T R S S R T A V R T R G t Y R T T ^.^.^.^.^.^.^.^.^.",
"^.^.^.^.^.^.^.^.^. .( X.,.` o. .o. . .o. .o._ _ ^.5 w 8 8 T T T T T T T S S R T G A T T R V A R T R V y R T Y ^.^.^.^.^.^.^.^.^.",
"^.^.^.^.^.^.^.^.^.) ( o.,.( X. .,.X.o.1.,.1. ._ ~ 5 u 8 8 T T T T T T T L S T T T C G T T Y t Y R T T t V T ^.^.^.^.^.^.^.^.^.^.",
"^.^.^.^.^.^.^.^.^.( ( o.<. .o. .,.o.1.2.,.4.X.,.~ 4 w 9 8 T R T T T T T T C L T R C A R T R V y R T T S t ^.^.^.^.^.^.^.^.^.^.^.",
"^.^.^.^.^.^.^.^.^.^./  .<. .o. .<.o.2.2.,.4. ...i 4 q 7 8 S R T T T T T R A S T T S C T T T T t C R T T ^.^.^.^.^.^.^.^.^.^.^.^.",
"^.^.^.^.^.^.^.^.^.^.( /  . . . .o.o.,.<.2.,.) ^.^.5 p 0 p P R T T T T T T A C R T Y V T T T R Y p C T ^.^.^.^.^.^.^.^.^.^.^.^.^.",
"^.^.^.^.^.^.^.^.^.^.^.) (  . .(  . . . ...) | ^.^.^.^.^.3 y R T T T T T T S C R T T V S T T T R C C ^.^.^.^.^.^.^.^.^.^.^.^.^.^.",
"^.^.^.^.^.^.^.^.^.^.^.^.^.^.^.^.^.^.^.^.^.^.^.^.^.^.^.^.. @ Q T T T T T R S V T T T V A R T Y T ^.^.^.^.^.^.^.^.^.^.^.^.^.^.^.^.",
"^.^.^.^.^.^.^.^.^.^.^.^.^.^.^.^.^.^.^.^.^.^.^.^.^.^.. X . + ! T T T T T T G V Y R R V C R Y T ^.^.^.^.^.^.^.^.^.^.^.^.^.^.^.^.^.",
"^.^.^.^.^.^.^.^.^.^.^.^.^.^.^.^.^.^.^.^.^.^.^.^.^.^.^.o . o L ! Y T T T T T V S T R V V R T ^.^.^.^.^.^.^.^.^.^.^.^.^.^.^.^.^.^.",
"^.^.^.^.^.^.^.^.^.^.^.^.^.^.^.^.^.^.^.^.^.^.^.^.^.^.^.^.^.^.Q T T T T Y T T y S T R C V ^.^.^.^.^.^.^.^.^.^.^.^.^.^.^.^.^.^.^.^.",
"^.^.^.^.^.^.^.^.^.^.^.^.^.^.^.^.^.^.^.^.^.^.^.^.^.^.^.^.^.^.R T T T T T T T y S R T ^.^.^.^.^.^.^.^.^.^.^.^.^.^.^.^.^.^.^.^.^.^.",
"^.^.^.^.^.^.^.^.^.^.^.^.^.^.^.^.^.^.^.^.^.^.^.^.^.^.^.^.^.^.^.T T T T T T T V S ^.^.^.^.^.^.^.^.^.^.^.^.^.^.^.^.^.^.^.^.^.^.^.^.",
"^.^.^.^.^.^.^.^.^.^.^.^.^.^.^.^.^.^.^.^.^.^.^.^.^.^.^.^.^.^.^.T T T T T T T ^.^.^.^.^.^.^.^.^.^.^.^.^.^.^.^.^.^.^.^.^.^.^.^.^.^.",
"^.^.^.^.^.^.^.^.^.^.^.^.^.^.^.^.^.^.^.^.^.^.^.^.^.^.^.^.^.^.^.^.T T T T ^.^.^.^.^.^.^.^.^.^.^.^.^.^.^.^.^.^.^.^.^.^.^.^.^.^.^.^.",
"^.^.^.^.^.^.^.^.^.^.^.^.^.^.^.^.^.^.^.^.^.^.^.^.^.^.^.^.^.^.^.^.^.^.^.^.^.^.^.^.^.^.^.^.^.^.^.^.^.^.^.^.^.^.^.^.^.^.^.^.^.^.^.^."
};
