/* XPM */
static char *result[] = {
/* columns rows colors chars-per-pixel */
"64 64 167 2 ",
"   c #000605",
".  c #000907",
"X  c #070B09",
"o  c #130D0C",
"O  c #352D27",
"+  c #441513",
"@  c #661B18",
"#  c #695546",
"$  c #930F0A",
"%  c #950702",
"&  c #990012",
"*  c #9B1810",
"=  c #A70B09",
"-  c #B9090B",
";  c #A4110D",
":  c #A20F1B",
">  c #AF1911",
",  c #A21814",
"<  c #AE271F",
"1  c #A3261B",
"2  c #B4201A",
"3  c #811E27",
"4  c #AD1A29",
"5  c #A71926",
"6  c #8F222F",
"7  c #95232E",
"8  c #9E242D",
"9  c #9B2433",
"0  c #A3232C",
"q  c #AC242C",
"w  c #AE292F",
"e  c #B0252B",
"r  c #B3292E",
"t  c #BC2A2D",
"y  c #AB392A",
"u  c #AD2631",
"i  c #AC3F32",
"p  c #CE0009",
"a  c #C6070B",
"s  c #C20E12",
"d  c #CC0C14",
"f  c #CC0816",
"g  c #D80914",
"h  c #CC1818",
"j  c #CA1417",
"k  c #DB121B",
"l  c #D71A1C",
"z  c #E81718",
"x  c #EC1A1D",
"c  c #CD261B",
"v  c #D0201E",
"b  c #EC1E20",
"n  c #E11F2A",
"m  c #C72720",
"M  c #CE2923",
"N  c #C32B2E",
"B  c #CB2C2D",
"V  c #D32B20",
"C  c #D42D2D",
"Z  c #DB2F2D",
"A  c #CF3221",
"S  c #CE3229",
"D  c #DE302C",
"F  c #D03324",
"G  c #EB2323",
"H  c #E92927",
"J  c #E92D2A",
"K  c #E52B26",
"L  c #F22C28",
"P  c #E5312C",
"I  c #E8312C",
"U  c #F2332C",
"Y  c #FD352F",
"T  c #E33E32",
"R  c #FF3832",
"E  c #FC3630",
"W  c #AB4E34",
"Q  c #A56435",
"!  c #A76A39",
"~  c #AC6C3C",
"^  c #AC733D",
"/  c #DC4C38",
"(  c #E4473A",
")  c #E1513F",
"_  c #B83E45",
"`  c #BC4B48",
"'  c #AF7C41",
"]  c #B37542",
"[  c #B57A44",
"{  c #B97B47",
"}  c #BB7E49",
"|  c #8D786C",
" . c #D95E44",
".. c #E15945",
"X. c #DA694B",
"o. c #C67D4A",
"O. c #DD6751",
"+. c #DA7A59",
"@. c #D67653",
"#. c #CF7268",
"$. c #748E29",
"%. c #7C8740",
"&. c #83891E",
"*. c #87952D",
"=. c #BE824B",
"-. c #B18042",
";. c #C1854D",
":. c #C38A4F",
">. c #C48B51",
",. c #D18B5E",
"<. c #DF855A",
"1. c #CA9156",
"2. c #DA9A5A",
"3. c #E0905E",
"4. c #D58F65",
"5. c #CE9968",
"6. c #D69160",
"7. c #D99A68",
"8. c #E78067",
"9. c #CCA46F",
"0. c #DCA367",
"q. c #DDA568",
"w. c #CCA973",
"e. c #D1A774",
"r. c #D4AC7B",
"t. c #D0AA76",
"y. c #CCB279",
"u. c #D1B07B",
"i. c #E0A669",
"p. c #E2AA6B",
"a. c #E2AA67",
"s. c #E7B86F",
"d. c #E0B36E",
"f. c #E9BB72",
"g. c #E9B778",
"h. c #F1C67C",
"j. c #E79682",
"k. c #CDBB81",
"l. c #D3B984",
"z. c #DFB488",
"x. c #DBBD8C",
"c. c #DEB495",
"v. c #E5A581",
"b. c #E4B789",
"n. c #ECBF9A",
"m. c #EABD97",
"M. c #CEC387",
"N. c #CECC8E",
"B. c #DEC896",
"V. c #D7CC95",
"C. c #D6D999",
"Z. c #EDC09C",
"A. c #E8CA9F",
"S. c #F2C49E",
"D. c #EFC8A2",
"F. c #F3C5A3",
"G. c #F6C8A7",
"H. c #FBCBA7",
"J. c #F9CAAB",
"K. c #FFD0AD",
"L. c #FDCEB0",
"P. c #FEDBB7",
"I. c #FCDDBA",
"U. c #F2D9B1",
"Y. c #F2E0B6",
"T. c #FFEBC3",
"R. c None",
/* pixels */
"R.R.R.R.R.R.R.R.R.R.R.R.R.R.R.R.R.R.R.R.R.R.R.I I I I I P I I I I I I I I R.R.R.R.R.R.R.R.R.R.R.R.R.R.R.R.R.R.R.R.R.R.R.R.R.R.R.",
"R.R.R.R.R.R.R.R.R.R.R.R.R.R.R.R.R.R.R.R.R.I I I I I I I I I I I P I I I I I I I R.R.R.R.R.R.R.R.R.R.R.R.R.R.R.R.R.R.R.R.R.R.R.R.",
"R.R.R.R.R.R.R.R.R.R.R.R.R.R.R.R.R.R.R.I I I I I I I I I I I P I I I I I I I I I R.R.R.R.R.R.R.R.R.R.R.R.R.R.R.R.R.R.R.R.R.R.R.R.",
"R.R.R.R.R.R.R.R.R.R.R.R.R.R.R.R.R.R.R.I I I I I I I I I I I I I I I I J I I I H R.R.R.R.R.R.R.R.R.R.R.R.R.R.R.R.R.R.R.R.R.R.R.R.",
"R.R.R.R.R.R.R.R.R.R.R.R.R.R.R.R.R.R.I I I P I I P I I I I P I I I I I I I I x ..R.R.R.R.R.R.R.R.R.R.R.R.R.R.R.R.R.R.R.R.R.R.R.R.",
"R.R.R.R.R.R.R.R.R.R.R.R.R.R.R.R.R.R.I I I I I I I I I I I I I P I I I I I P G 4.M.R.R.R.R.R.R.R.R.R.R.R.R.R.R.R.R.R.R.R.R.R.R.R.",
"R.R.R.R.R.R.R.R.R.R.R.R.R.R.R.R.R.I I P I I I I I I I I I I I P I I I I I G ( r.r.R.R.R.R.R.R.R.R.R.R.R.R.R.R.R.R.R.R.R.R.R.R.R.",
"R.R.R.R.R.R.R.R.R.R.R.R.R.R.R.R.R.I I I I I I P I I P I I I I P I I I I I x O.k.e.R.R.R.R.R.R.R.R.R.R.R.R.R.R.R.R.R.R.R.R.R.R.R.",
"R.R.R.R.R.R.R.R.R.R.R.R.R.R.R.R.R.I I I I I I I I I I I I I P I I I P I J H 7.k.e.R.R.R.R.R.R.R.R.R.R.R.R.R.R.R.R.R.R.R.R.R.R.R.",
"R.R.R.R.R.R.R.R.R.R.R.R.R.R.R.R.R.I I I I I I I I P I I I I I I I I I I x ) l.9.r.R.R.R.R.R.R.R.R.R.R.R.R.R.R.R.R.R.R.R.R.R.R.R.",
"R.R.R.R.R.R.R.R.R.R.R.R.R.R.R.R.R.I I I I I I I I I I I I I I I P I I P x +.y.9.Z.R.R.R.R.R.R.R.R.R.R.R.R.R.R.R.R.R.R.R.R.R.R.R.",
"R.R.R.R.R.R.R.R.R.R.R.R.R.R.R.R.R.I I I I I I I I I I I P I I I I I I P P 5.y.Z.J.R.R.R.R.R.R.R.R.R.R.R.R.R.R.R.R.R.R.R.R.R.R.R.",
"R.R.R.R.R.R.R.R.R.R.R.R.R.R.R.R.R.I I I I J I I P I I I P P I I I I I x / k.Z.L.J.R.R.R.R.R.R.R.R.R.R.R.R.R.R.R.R.R.R.R.R.R.R.R.",
"R.R.R.R.R.R.R.R.R.R.R.R.R.R.R.R.R.I I I I I I I I I I I I I P I I I J z 8.Y.J.m.b.R.R.R.R.R.R.R.R.R.R.R.R.R.R.R.R.R.R.R.R.R.R.R.",
"R.R.R.R.R.R.R.R.R.R.R.R.R.R.R.R.R.I I I I I P I I I I P P I I I I I H K v.I.F.b.b.R.R.R.R.R.R.R.R.R.R.R.R.R.R.R.R.R.R.R.R.R.R.R.",
"R.R.R.R.R.R.R.R.R.R.R.R.R.R.R.R.R.I I I I I I I I I I I I I I I I P G T t.D.G.H.| R.R.R.R.R.R.R.R.R.R.R.R.R.R.R.R.R.R.R.R.R.R.R.",
"R.R.R.R.R.R.R.R.R.R.R.R.R.R.R.R.R.I I I I I I I I I P I I I I I I J x  .y.Z.K.P.O R.R.R.R.R.R.R.R.R.R.R.R.R.R.R.R.R.R.R.R.R.R.R.",
"R.R.R.R.R.R.R.R.R.R.R.R.R.R.R.R.R.I I I I I I I I I I I I I P I I J x X.k.n.J.T.# R.R.R.R.R.R.R.R.R.R.R.R.R.R.R.R.R.R.R.R.R.R.R.",
"R.R.R.R.R.R.R.R.R.R.R.R.R.R.R.R.I I I I I I I P I I I I P I I I I J b +.k.Z.J.J.c.R.R.R.R.R.R.R.R.R.R.R.R.R.R.R.R.R.R.R.R.R.R.R.",
"R.R.R.R.R.R.R.R.R.R.R.R.R.R.R.R.I I I I I I I I I I P I I I I I I J J 6.l.F.G.F.K.R.R.R.R.R.R.R.R.R.R.R.R.R.R.R.R.R.R.R.R.R.R.R.",
"R.R.R.R.R.R.R.R.R.R.R.R.R.R.R.R.I I I P I I I I I I I I I I I I I H I 5.l.F.F.F.F.R.R.R.R.R.R.R.R.R.R.R.R.R.R.R.R.R.R.R.R.R.R.R.",
"R.R.R.R.R.R.R.R.R.R.R.R.R.R.R.R.R.I I P I P I I I I I I I P I I I H I 5.x.J.F.F.F.R.R.R.R.R.R.R.R.R.R.R.R.R.R.R.R.R.R.R.R.R.R.R.",
"R.R.R.R.R.R.R.R.R.R.R.R.R.R.R.R.R.I I P I I I I I I I I I I I I I J J ,.B.J.F.F.F.R.R.R.R.R.R.R.R.R.R.R.R.R.R.R.R.R.R.R.R.R.R.R.",
"R.R.R.R.R.R.R.R.R.R.R.R.R.R.R.R.R.I I I I I I P I I I J I I I I I P b X.V.J.F.F.F.R.R.R.R.R.R.R.R.R.R.R.R.R.R.R.R.R.R.R.R.R.R.R.",
"R.R.R.R.R.R.R.R.R.R.R.R.R.R.R.R.R.R.I I I I I I I I I I I I I P I I G I w.D.J.F.R.R.R.R.R.R.R.R.R.R.R.R.R.R.R.R.R.R.R.R.R.R.R.R.",
"R.R.R.R.R.R.R.R.R.R.R.R.R.R.R.R.R.R.I I I I I I P I I I I I I I P I I b X.N.U.R.R.R.R.R.R.R.R.R.R.R.R.R.R.R.R.R.R.R.R.R.R.R.R.R.",
"R.R.R.R.R.R.R.R.R.R.R.R.R.R.R.R.R.R.I I I I I I I I I I I P I P I P I J G @.R.R.R.R.R.R.R.R.R.R.R.R.R.R.R.R.R.R.R.R.R.R.R.R.R.R.",
"R.R.R.R.R.R.R.R.R.R.R.R.R.R.R.R.R.R.I I I I I I I I I P I I I P I I I I L G R.R.R.R.R.R.R.R.R.R.R.R.R.R.R.R.R.R.R.R.R.R.R.R.R.R.",
"R.R.R.R.R.R.R.R.R.R.R.R.R.R.R.R.R.R.R.I I I I I R.I P I I I I P I I I P D U L R.R.R.R.R.R.R.R.R.R.R.R.R.R.R.R.R.R.R.R.R.R.R.R.R.",
"R.R.R.R.R.R.R.R.R.R.R.R.R.R.R.R.R.R.R.I I I I R.I I I I I I I I I P U Z 8 R.R.R.R.R.R.R.R.R.R.R.R.R.R.R.R.R.R.R.R.R.R.R.R.R.R.R.",
"R.R.R.R.R.R.R.R.R.R.R.R.R.R.R.R.R.R.R.R.I I R.I I I I I I I I I I I U C 0 R.R.R.R.R.R.R.R.R.R.R.R.R.R.R.R.R.R.R.R.R.R.R.R.R.R.R.",
"R.R.R.R.R.R.R.R.R.R.R.R.R.R.R.R.R.R.R.R.R.R.I I I I I I I P I I I I U C 0 w R.R.R.R.R.R.R.R.R.R.R.R.R.R.R.R.R.R.R.R.R.R.R.R.R.R.",
"R.R.R.R.R.R.R.R.R.R.R.R.R.R.R.R.R.R.R.R.R.R.I I I I I I I I I I I P U C 0 q R.R.R.R.R.R.R.R.R.R.R.R.R.R.R.R.R.R.R.R.R.R.R.R.R.R.",
"R.R.R.R.R.R.R.R.R.R.R.R.R.R.R.R.R.R.R.R.R.P I I I I I P I I I I I I U Z q q R.R.R.R.R.R.R.R.R.R.R.R.R.R.R.R.R.R.R.R.R.R.R.R.R.R.",
"R.R.R.R.R.R.R.R.R.R.R.R.R.R.R.R.R.R.R.R.I I I I I P I I P I I P I I U C 0 q R.R.R.R.R.R.R.R.R.R.R.R.R.R.R.R.R.R.R.R.R.R.R.R.R.R.",
"R.R.R.R.R.R.R.R.R.R.R.R.R.R.R.R.R.R.R.I I I I I I I I I I I I I I I U C 0 q R.R.R.R.R.R.R.R.R.R.R.R.R.R.R.R.R.R.R.R.R.R.R.R.R.R.",
"R.R.R.R.R.R.R.R.R.R.R.R.R.R.R.R.R.R.I I I I I P I I I I P I I I I I I C 0 q q R.R.R.R.R.R.R.R.R.R.R.R.R.R.R.R.R.R.R.R.R.R.R.R.R.",
"R.R.R.R.R.R.R.R.R.R.R.R.R.R.R.R.R.I I I I I I I I I I P I I I I I I U C 0 w q q R.R.R.R.R.R.R.R.R.R.R.R.R.R.R.R.R.R.R.R.R.R.R.R.",
"R.R.R.R.R.R.R.R.R.R.R.R.R.R.R.R.I I I I I P I I I I I I I I I P I J U C 0 q q w w R.R.R.R.R.R.R.R.R.R.R.R.R.R.R.R.R.R.R.R.R.R.R.",
"R.R.R.R.R.R.R.R.R.R.R.R.R.R.R.I I I P I I I I J P I I I I I I I I I U C 0 q q q q : #.I.F.o.$.2.7.R.R.R.R.R.R.R.R.R.R.R.R.R.R.R.",
"R.R.R.R.R.R.R.R.R.R.R.R.R.R.R.I I Z I I I I I I I I I I P I I I I I U B 0 q q q : ` P.g.<.g f g < ,.i.R.R.R.R.R.R.R.R.R.R.R.R.R.",
"R.R.R.R.R.R.R.R.R.R.R.R.R.R.I I D Z I I I I I I I I I I I I I I I I U B 0 q w R.& ` g.q.O.A f k = $ i.i.R.R.R.R.R.R.R.R.R.R.R.R.",
"R.R.R.R.R.R.R.R.R.R.R.R.R.I I U C Z U I I D I I I P I I I I P I I I U B 8 q R.R.R.2.p.C.j.M l s * R.R.R.i.R.R.R.R.R.R.R.R.R.R.R.",
"R.R.R.R.R.R.R.R.R.R.R.R.I I I P B U I I P Z I I I I I I I I I I I I U B 0 w R.R.R.d.R.&.%.R.2 % *.R.R.R.i.i.R.R.R.R.R.R.R.R.R.R.",
"R.R.R.R.R.R.R.R.R.R.R.R.I P U B C U I I C Z I I I I I I I I I I I P U N 0 q R.R.f.i.R.p h a ` n d h - R.R.i.R.R.R.R.R.R.R.R.R.R.",
"R.R.R.R.R.R.R.R.R.R.R.I I U P N I I U Z C U I I I I I I P I I I I I L N 0 q R.R.f.R.c v g d ; A d k s $ R.p.i.R.R.R.R.R.R.R.R.R.",
"R.R.R.R.R.R.R.R.R.R.I I I U N B U I U B Z U I Z D I I I I I I I I I U N 0 q 5 R.s.R.M A k - * M V k = R.R.i.a.R.R.R.R.R.R.R.R.R.",
"R.R.R.R.R.R.R.R.R.R.I I U C t I I U Z N U J P Z I I I D I I I I I I I t 0 5 5 R.h.s.8.F > 1 q.X.M ; y R.R.p.a.R.R.R.R.R.R.R.R.R.",
"R.R.R.R.R.R.R.R.R.I I U P r Z U I U N Z U I C Z U I I D I I I I I I I q 0 q 4 R.d.0.0.q.0.q.q.q.0.i.i.q.q.0.i.R.R.R.R.R.R.R.R.R.",
"R.R.R.R.R.R.R.R.R.I U U r N U I U B N U I I C D I I Z Z I I I I I I I 0 8 e 4 R.^ ~ { ] } ] [ } ] } ] o.[ ~ ] R.R.R.R.R.R.R.R.R.",
"R.R.R.R.R.R.R.R.R.R.I N r I I U I r Z U U P B I I I Z D I I I I I I J 8 7 e 4 W ^ [ >.=.>.} { =.] } ~ =.{ ~ ~ R.R.R.R.R.R.R.R.R.",
"R.R.R.R.R.R.R.R.R.R.R.u C U I U t N U I U B B U I P C I I I I I I U P 8 6 w 4 W -.[ 1.=.>.:.} =.] } ] =.{ ~ ~ R.R.R.R.R.R.R.R.R.",
"R.R.R.R.R.R.R.R.R.R.R.R.I I U B r I U I U B C U U C B U I I P I I U P 8 6 0 4 i -.[ 1.=.:.:.=.;.[ =.] =.] Q R.R.R.R.R.R.R.R.R.R.",
"R.R.R.R.R.R.R.R.R.R.R.R.R.U B u Z U I I I N P I U C B U I I I I I U P u 9 q e R.R.! =.:.;.=.{ } ] [ ~ { Q ~ R.R.R.R.R.R.R.R.R.R.",
"R.R.R.R.R.R.R.R.R.R.R.R.R.R.N B U I I I Z t I I U B C U I I I I I U t 3 R.R.R.R.R.R.~ [ [ ] ] ] ] ~ ] ~ ! R.R.R.R.R.R.R.R.R.R.R.",
"R.R.R.R.R.R.R.R.R.R.R.R.R.R.R.R.I I I U C N U I I N Z U I I I I I R @   R.R.R.R.R.R.R.R.R.R.R.R.R.R.R.R.R.R.R.R.R.R.R.R.R.R.R.R.",
"R.R.R.R.R.R.R.R.R.R.R.R.R.R.R.R.R.I I I B N U I I N P I I I I I I Y + . X . R.R.R.R.R.R.R.R.R.R.R.R.R.R.R.R.R.R.R.R.R.R.R.R.R.R.",
"R.R.R.R.R.R.R.R.R.R.R.R.R.R.R.R.R.R.R.U N B U I D t P I I I I I E I o . o R.R.R.R.R.R.R.R.R.R.R.R.R.R.R.R.R.R.R.R.R.R.R.R.R.R.R.",
"R.R.R.R.R.R.R.R.R.R.R.R.R.R.R.R.R.R.R.R.N B U U Z t I I P I I I I R R.R.R.R.R.R.R.R.R.R.R.R.R.R.R.R.R.R.R.R.R.R.R.R.R.R.R.R.R.R.",
"R.R.R.R.R.R.R.R.R.R.R.R.R.R.R.R.R.R.R.R.R.R.I I D t I I I I I I I U R.R.R.R.R.R.R.R.R.R.R.R.R.R.R.R.R.R.R.R.R.R.R.R.R.R.R.R.R.R.",
"R.R.R.R.R.R.R.R.R.R.R.R.R.R.R.R.R.R.R.R.R.R.R.R.C N I I I I I I I R.R.R.R.R.R.R.R.R.R.R.R.R.R.R.R.R.R.R.R.R.R.R.R.R.R.R.R.R.R.R.",
"R.R.R.R.R.R.R.R.R.R.R.R.R.R.R.R.R.R.R.R.R.R.R.R.R.R.P U I I I I I R.R.R.R.R.R.R.R.R.R.R.R.R.R.R.R.R.R.R.R.R.R.R.R.R.R.R.R.R.R.R.",
"R.R.R.R.R.R.R.R.R.R.R.R.R.R.R.R.R.R.R.R.R.R.R.R.R.R.R.R.I I I I R.R.R.R.R.R.R.R.R.R.R.R.R.R.R.R.R.R.R.R.R.R.R.R.R.R.R.R.R.R.R.R.",
"R.R.R.R.R.R.R.R.R.R.R.R.R.R.R.R.R.R.R.R.R.R.R.R.R.R.R.R.R.R.R.R.R.R.R.R.R.R.R.R.R.R.R.R.R.R.R.R.R.R.R.R.R.R.R.R.R.R.R.R.R.R.R.R."
};
