/* XPM */
static char *result[] = {
/* columns rows colors chars-per-pixel */
"64 64 251 2 ",
"   c black",
".  c #0F0B07",
"X  c #340406",
"o  c #3C0D0B",
"O  c #440E0D",
"+  c #5C1312",
"@  c #6A1714",
"#  c #6E1714",
"$  c #6D1815",
"%  c #701715",
"&  c #721816",
"*  c #7C1A17",
"=  c #7C1A18",
"-  c #4C3C24",
";  c #811B18",
":  c #841C19",
">  c #861C19",
",  c #871D1A",
"<  c #8A1D1A",
"1  c #8C1E1B",
"2  c #8D1E1B",
"3  c #911F1C",
"4  c #931F1C",
"5  c #96201D",
"6  c #9D211E",
"7  c #A1221F",
"8  c #A1231F",
"9  c #A2221F",
"0  c #A3221F",
"q  c #A72320",
"w  c #A72420",
"e  c #AA2420",
"r  c #AC2521",
"t  c #AE2421",
"y  c #AF2521",
"u  c #B22622",
"i  c #B52623",
"p  c #B62622",
"a  c #B62623",
"s  c #B82723",
"d  c #B92824",
"f  c #BC2824",
"g  c #BD2824",
"h  c #BF2924",
"j  c #C12925",
"k  c #C22925",
"l  c #C42A25",
"z  c #C52A25",
"x  c #C62A26",
"c  c #C72A26",
"v  c #C82A26",
"b  c #C92A26",
"n  c #C92B27",
"m  c #CA2A26",
"M  c #CA2B26",
"N  c #CB2B27",
"B  c #CC2B27",
"V  c #CE2C27",
"C  c #CF2C27",
"Z  c #CC2C28",
"A  c #CF2C28",
"S  c #D02928",
"D  c #D52B29",
"F  c #D52A2A",
"G  c #D72B2A",
"H  c #D02C28",
"J  c #D12C28",
"K  c #D22C28",
"L  c #D42D28",
"P  c #D82E29",
"I  c #D92E29",
"U  c #D82C2A",
"Y  c #DA2C2A",
"T  c #DB2C2A",
"R  c #DB2D2A",
"E  c #DC2D2A",
"W  c #DD2D2A",
"Q  c #DE2D2B",
"!  c #DD2F2A",
"~  c #DE2F2A",
"^  c #DF2F2A",
"/  c #DE2E2B",
"(  c #DF2E2B",
")  c #E02F2A",
"_  c #E02E2B",
"`  c #E12E2B",
"'  c #E02F2B",
"]  c #E12F2B",
"[  c #E22F2B",
"{  c #E0302B",
"}  c #E1302B",
"|  c #E2302B",
" . c #E3302B",
".. c #E4302B",
"X. c #E5302B",
"o. c #E6302B",
"O. c #E6312B",
"+. c #E4302C",
"@. c #E5302C",
"#. c #E6302C",
"$. c #E6312C",
"%. c #E7312C",
"&. c #E8312C",
"*. c #E9312C",
"=. c #EA312C",
"-. c #EB312C",
";. c #EA322C",
":. c #EB322C",
">. c #EA322D",
",. c #EB322D",
"<. c #EC322D",
"1. c #ED322D",
"2. c #EE322D",
"3. c #EF322D",
"4. c #EE332E",
"5. c #EF332E",
"6. c #F0322D",
"7. c #F1322D",
"8. c #F0332D",
"9. c #F1332D",
"0. c #F0332E",
"q. c #F2332E",
"w. c #F3332E",
"e. c #F5332E",
"r. c #F4342E",
"t. c #F5342F",
"y. c #F6342F",
"u. c #F6352F",
"i. c #F7352F",
"p. c #F8342F",
"a. c #FA352F",
"s. c #FD362F",
"d. c #F83530",
"f. c #F93630",
"g. c #FA3630",
"h. c #FB3631",
"j. c #FD3530",
"k. c #FC3630",
"l. c #FE3630",
"z. c #FF3631",
"x. c #FF3731",
"c. c #FF3732",
"v. c #FF3832",
"b. c #FF3833",
"n. c #FF3933",
"m. c #FF3A33",
"M. c #FF3934",
"N. c #FF3A34",
"B. c #FF3B34",
"V. c #FF3B35",
"C. c #FF3C35",
"Z. c #FF3C36",
"A. c #FF3E38",
"S. c #FF3F39",
"D. c #A26133",
"F. c #A36234",
"G. c #A56435",
"H. c #A86838",
"J. c #A96939",
"K. c #AA693A",
"L. c #A96C3B",
"P. c #AB6E3C",
"I. c #AE6D3C",
"U. c #AD6E3E",
"Y. c #AE6F3E",
"T. c #AF703F",
"R. c #B0703F",
"E. c #B0713F",
"W. c #B17240",
"Q. c #B27240",
"!. c #B27340",
"~. c #B27341",
"^. c #B37543",
"/. c #B37642",
"(. c #B47542",
"). c #B57543",
"_. c #B47643",
"`. c #B57643",
"'. c #B57743",
"]. c #B47644",
"[. c #B47744",
"{. c #B67946",
"}. c #B77946",
"|. c #B77B47",
" X c #B87945",
".X c #B87A44",
"XX c #B97B44",
"oX c #B87B45",
"OX c #B87B47",
"+X c #B97C48",
"@X c #B97D48",
"#X c #B97D49",
"$X c #BB7D49",
"%X c #BB7E49",
"&X c #BC7E4A",
"*X c #BC7F4A",
"=X c #BD7F4B",
"-X c #997D6A",
";X c #BD804B",
":X c #BF824B",
">X c #BF854C",
",X c #BA977C",
"<X c #C0864C",
"1X c #C1854F",
"2X c #C2884E",
"3X c #C2894E",
"4X c #C38A4E",
"5X c #C58C4F",
"6X c #C48A52",
"7X c #C58C50",
"8X c #C58C52",
"9X c #C88F52",
"0X c #CD945A",
"qX c #D0995E",
"wX c #D39A5E",
"eX c #D49B60",
"rX c #D59B60",
"tX c #D49B61",
"yX c #D49C61",
"uX c #D59C61",
"iX c #D59D61",
"pX c #D69D61",
"aX c #D59E62",
"sX c #D79F62",
"dX c #DEA462",
"fX c #DEA562",
"gX c #DEA567",
"hX c #DFA567",
"jX c #E1A869",
"kX c #E1A96B",
"lX c #E0AB6B",
"zX c #E2AA6C",
"xX c #E2AB6D",
"cX c #E3AB6D",
"vX c #E3AC6E",
"bX c #E5AF6D",
"nX c #E6B06F",
"mX c #E4AF70",
"MX c #E4B071",
"NX c #E4B171",
"BX c #E5B077",
"VX c #E9B172",
"CX c #EDB876",
"ZX c #F7B873",
"AX c #FFC879",
"SX c #F4C7A5",
"DX c #F7CBAF",
"FX c #FFD1AE",
"GX c #FFE2B9",
"HX c #FFE6BA",
"JX c None",
/* pixels */
"JXJXJXJXJXJXJXJXJXJXJXJXJXJXJXJXJXJXJXJXJXJXJXJXJXJXJXJXJXJXJXJXJXJXJXJXJXJXJXJXJXJXJXJXJXJXJXJXJXJXJXJXJXJXJXJXJXJXJXJXJXJXJXJX",
"JXJXJXJXJXJXJXJXJXJXJXJXJXJXJXJXJXJXJXJXJXJXJXJXJXJXJXJXJXJXJXJXJXJXJXJXJXJXJXJXJXJXJXJXJXJXJXJXJXJXJXJXJXJXJXJXJXJXJXJXJXJXJXJX",
"JXJXJXJXJXJXJXJXJXJXJXJXJXJXJXJXJXJXJXJXJX& 2 9 u g z b b x h i q 4 = JXJXJXJXJXJXJXJXJXJXJXJXJXJXJXJXJXJXJXJXJXJXJXJXJXJXJXJXJX",
"JXJXJXJXJXJXJXJXJXJXJXJXJXJXJXJXJX8 P i.v.N.N.n.v.c.x.z.z.x.x.v.n.M.N.n.z.{ r JXJXJXJXJXJXJXJXJXJXJXJXJXJXJXJXJXJXJXJXJXJXJXJXJX",
"JXJXJXJXJXJXJXJXJXJXJXJXJXJXJX< N.V.l.6.=.&.&.&.&.&.&.&.&.&.&.&.&.&.&.*.1.a.N.V.Z JXJXJXJXJXJXJXJXJXJXJXJXJXJXJXJXJXJXJXJXJXJXJX",
"JXJXJXJXJXJXJXJXJXJXJXJXJXJX@ S.r.o.&.&.&.&.&.&.&.&.&.&.&.&.&.&.&.&.&.&.&.&.%.*.N.v.JXJXJXJXJXJXJXJXJXJXJXJXJXJXJXJXJXJXJXJXJXJX",
"JXJXJXJXJXJXJXJXJXJXJXJXJXJX! c.$.&.&.&.&.&.&.&.&.&.&.&.&.&.&.&.&.&.&.&.&.&.&.&.X.c.f.JXJXJXJXJXJXJXJXJXJXJXJXJXJXJXJXJXJXJXJXJX",
"JXJXJXJXJXJXJXJXJXJXJXJXJXJXj.6.&.&.&.&.&.&.&.&.&.&.&.&.&.&.&.&.&.&.&.&.&.&.&.&.&.X.Z.t JXJXJXJXJXJXJXJXJXJXJXJXJXJXJXJXJXJXJXJX",
"JXJXJXJXJXJXJXJXJXJXJXJXJXJXc.,.&.&.&.&.&.&.&.&.&.&.&.&.&.&.&.&.&.&.&.&.&.&.&.&.&.&.7.v.JXJXJXJXJXJXJXJXJXJXJXJXJXJXJXJXJXJXJXJX",
"JXJXJXJXJXJXJXJXJXJXJXJXJXJXc.<.&.&.&.&.&.&.&.&.&.&.&.&.&.&.&.&.&.&.&.&.&.&.&.&.&.&.O.C.: JXJXJXJXJXJXJXJXJXJXJXJXJXJXJXJXJXJXJX",
"JXJXJXJXJXJXJXJXJXJXJXJXJXJXx.<.&.&.&.&.&.&.&.&.&.&.&.&.&.&.&.&.&.&.&.&.&.&.&.&.&.&.&.v.j JXJXJXJXJXJXJXJXJXJXJXJXJXJXJXJXJXJXJX",
"JXJXJXJXJXJXJXJXJXJXJXJXJXJXx.<.&.&.&.&.&.&.&.&.&.&.&.&.&.&.&.&.&.&.&.&.&.&.&.&.&.&.&.p.&.JXJXJXJXJXJXJXJXJXJXJXJXJXJXJXJXJXJXJX",
"JXJXJXJXJXJXJXJXJXJXJXJXJXJXc.,.&.&.&.&.&.&.&.&.&.&.&.&.&.&.&.&.&.&.&.&.&.&.&.&.&.&.&.2.j.JXJXJXJXJXJXJXJXJXJXJXJXJXJXJXJXJXJXJX",
"JXJXJXJXJXJXJXJXJXJXJXJXJXJXv.,.&.&.&.&.&.&.&.&.&.&.&.&.&.&.&.&.&.&.&.&.&.&.&.&.&.&.&.;.v.JXJXJXJXJXJXJXJXJXJXJXJXJXJXJXJXJXJXJX",
"JXJXJXJXJXJXJXJXJXJXJXJXJXJXv.:.&.&.&.&.&.&.&.&.&.&.&.&.&.&.&.&.&.&.&.&.&.&.&.&.&.&.&.&.N.# JXJXJXJXJXJXJXJXJXJXJXJXJXJXJXJXJXJX",
"JXJXJXJXJXJXJXJXJXJXJXJXJXJXv.:.&.&.&.&.&.&.&.&.&.&.&.&.&.&.&.&.&.&.&.&.&.&.&.&.&.&.&.&.N., JXJXJXJXJXJXJXJXJXJXJXJXJXJXJXJXJXJX",
"JXJXJXJXJXJXJXJXJXJXJXJXJXJXb.=.&.&.&.&.&.&.&.&.&.&.&.&.&.&.&.&.&.&.&.&.&.&.&.&.&.&.&.&.n.6 JXJXJXJXJXJXJXJXJXJXJXJXJXJXJXJXJXJX",
"JXJXJXJXJXJXJXJXJXJXJXJXJXJXb.=.&.&.&.&.&.&.&.&.&.&.&.&.&.&.&.&.&.&.&.&.&.&.&.&.&.&.&.&.b.y JXJXJXJXJXJXJXJXJXJXJXJXJXJXJXJXJXJX",
"JXJXJXJXJXJXJXJXJXJXJXJXJXJXb.=.&.&.&.&.&.&.&.&.&.&.&.&.&.&.&.&.&.&.&.&.&.&.&.&.&.&.&.&.c.f JXJXJXJXJXJXJXJXJXJXJXJXJXJXJXJXJXJX",
"JXJXJXJXJXJXJXJXJXJXJXJXJXJXn.=.&.&.&.&.&.&.&.&.&.&.&.&.&.&.&.&.&.&.&.&.&.&.&.&.&.&.&.&.x.l JXJXJXJXJXJXJXJXJXJXJXJXJXJXJXJXJXJX",
"JXJXJXJXJXJXJXJXJXJXJXJXJXJXn.=.&.&.&.&.&.&.&.&.&.&.&.&.&.&.&.&.&.&.&.&.&.&.&.&.&.&.&.&.z.b JXJXJXJXJXJXJXJXJXJXJXJXJXJXJXJXJXJX",
"JXJXJXJXJXJXJXJXJXJXJXJXJXJXn.=.&.&.&.&.&.&.&.&.&.&.&.&.&.&.&.&.&.&.&.&.&.&.&.&.&.&.&.&.z.v JXJXJXJXJXJXJXJXJXJXJXJXJXJXJXJXJXJX",
"JXJXJXJXJXJXJXJXJXJXJXJXJXJXn.=.&.&.&.&.&.&.&.&.&.&.&.&.&.&.&.&.&.&.&.&.&.&.&.&.&.&.&.&.x.k JXJXJXJXJXJXJXJXJXJXJXJXJXJXJXJXJXJX",
"JXJXJXJXJXJXJXJXJXJXJXJXJXJXn.=.&.&.&.&.&.&.&.&.&.&.&.&.&.&.&.&.&.&.&.&.&.&.&.&.&.&.&.&.v.a JXJXJXJXJXJXJXJXJXJXJXJXJXJXJXJXJXJX",
"JXJXJXJXJXJXJXJXJXJXJXJXJXJXb.;.&.&.&.&.&.&.&.&.&.&.&.&.&.&.&.&.&.&.&.&.&.&.&.&.&.&.&.&.n.0 JXJXJXJXJXJXJXJXJXJXJXJXJXJXJXJXJXJX",
"JXJXJXJXJXJXJXJXJXJXJXJXJXJXv.,.&.&.&.&.&.&.&.&.&.&.&.&.&.&.&.&.&.&.&.&.&.&.&.&.&.&.&.&.N.> JXJXJXJXJXJXJXJXJXJXJXJXJXJXJXJXJXJX",
"JXJXJXJXJXJXJXJXJXJXJXJXJXJXl.1.&.&.&.&.&.&.&.&.&.&.&.&.&.&.&.&.&.&.&.&.&.&.&.&.&.&.&.&.N.JXJXJXJXJXJXJXJXJXJXJXJXJXJXJXJXJXJXJX",
"JXJXJXJXJXJXJXJXJXJXJXJXJXJX2.e.&.&.&.&.&.&.&.&.&.&.&.&.&.&.&.&.&.&.&.&.&.&.&.&.&.&.&.9.j.JXJXJXJXJXJXJXJXJXJXJXJXJXJXJXJXJXJXJX",
"JXJXJXJXJXJXJXJXJXJXJXJXJXJXL l.&.&.&.&.&.&.&.&.&.&.&.&.&.&.&.&.&.&.&.&.&.&.&.&.&.&.%.x.B JXJXJXJXJXJXJXJXJXJXJXJXJXJXJXJXJXJXJX",
"JXJXJXJXJXJXJXJXJXJXJXJXJXJXe N.%.&.&.&.&.&.&.&.&.&.&.&.&.&.&.&.&.&.&.&.&.&.&.&.&.&.o.Z.* JXJXJXJXJXJXJXJXJXJXJXJXJXJXJXJXJXJXJX",
"JXJXJXJXJXJXJXJXJXJXJXJXJXJXJXZ.=.&.&.&.&.&.&.&.&.&.&.&.&.&.&.&.&.&.&.&.&.&.&.&.&.$.d.k.JXJXJXJXJXJXJXJXJXJXJXJXJXJXJXJXJXJXJXJX",
"JXJXJXJXJXJXJXJXJXJXJXJXJXJXJXm A.3.%.&.&.&.&.&.&.&.&.&.&.&.&.&.&.&.&.&.&.&.&.%.%.a.S.% JXJXJXJXJXJXJXJXJXJXJXJXJXJXJXJXJXJXJXJX",
"JXJXJXJXJXJXJXJXJXJXJXJXJXJXJXJXd v.V.N.n.z.8.&.&.&.&.&.&.&.&.&.&.&.&.&.%.o.y.M.B.g.; JXJXJXJXJXJXJXJXJXJXJXJXJXJXJXJXJXJXJXJXJX",
"JXJXJXJXJXJXJXJXJXJXJXJXJXJXJXJXJXJX$ 1 w N y.x.%.&.&.&.&.&.&.&.&.&.&.X.0.B.>.7 JXJXJXJXJXJXJXJXJXJXJXJXJXJXJXJXJXJXJXJXJXJXJXJX",
"JXJXJXJXJXJXJXJXJXJXJXJXJXJXJXJXJXJXJXJXJXJXJX3 u.3.-.%.&.&.&.&.&.&.%.5.h.5 JXJXJXJXJXJXJXJXJXJXJXJXJXJXJXJXJXJXJXJXJXJXJXJXJXJX",
"JXJXJXJXJXJXJXJXJXJXJXJXJXJXJXJXJXJXJXJXJXJXJX+ q.L =.1.%.&.&.&.%.=.w.u.JXJXJXJXJXJXJXJXJXJXJXJXJXJXJXJXJXJXJXJXJXJXJXJXJXJXJXJX",
"JXJXJXJXJXJXJXJXJXJXJXJXJXJXJXJXJXJXJXJXJXJXJXs y.c n X.2.&.&.&.2.:.P 1.JXJXJXJXJXJXJXJXJXJXJXJXJXJXJXJXJXJXJXJXJXJXJXJXJXJXJXJX",
"JXJXJXJXJXJXJXJXJXJXJXJXJXJXJXJXJXJXJXJXJXJXJXO.t.) V c  .3.<.2.} B c a.p JXJXJXJXJXJXJXJXJXJXJXJXJXJXJXJXJXJXJXJXJXJXJXJXJXJXJX",
"JXJXJXJXJXJXJXJXJXJXJXJXJXJXJXJXJXJXJXJXJXJXJXf.*.$.| K M ~ $.P c A ^ s.J JXJXJXJXJXJXJXJXJXJXJXJXJXJXJXJXJXJXJXJXJXJXJXJXJXJXJX",
"JXJXJXJXJXJXJXJXJXJXJXJXJXJXJXJXJXJXJXJXJXJXJX*.$.&.$. .P C H C I  .$.<.4.JXJXJXJXJXJXJXJXJXJXJXJXJXJXJXJXJXJXJXJXJXJXJXJXJXJXJX",
"JXJXJXJXJXJXJXJXJXJXJXJXJXJXJXJXJXJXJXJXJXJXJX%.&.&.&.$...) ~ | @.%.&.@.,.JXJXJXJXJXJXJXJXJXJXJXJXJXJXJXJXJXJXJXJXJXJXJXJXJXJXJX",
"JXJXJXJXJXJXJXJXJXJXJXJXJXJXJXJXJXJXJXJXJXJX&.&.&.&.&.&.%.%.%.%.&.&.&.&.&.JXJXJXJXJXJXJXJXJXJXJXJXJXJXJXJXJXJXJXJXJXJXJXJXJXJXJX",
"JXJXJXJXJXJXJXJXJXJXJXJXJXJXJXJXJXJXJXJXJXJX&.&.&.&.&.&.&.*.*.&.&.&.&.&.&.*.JXJXJXJXJXJXJXJXJXJXJXJXJXJXJXJXJXJXJXJXJXJXJXJXJXJX",
"JXJXJXJXJXJXJXJXJXJXJXJXJXJXJXJXJXJXJXJXJXJX&.&.&.&.&.&.&.&.&.&.&.&.&.&.&.=.b.JXJXJXJXJXJXJXJXJXJXJXJXJXJXJXJXJXJXJXJXJXJXJXJXJX",
"JXJXJXJXJXJXJXJXJXJXJXJXJXJXJXJXJXJXJXJXJXJX&.&.&.&.&.&.&.&.&.&.&.&.&.&.&.1.z.o         -XHXBXfXxXJXJXJXJXJXJXJXJXJXJXJXJXJXJXJX",
"JXJXJXJXJXJXJXJXJXJXJXJXJXJXJXJXJXJXJXJXJXJX&.&.&.&.&.&.&.&.&.&.&.&.&.&.&.<.x.O         ,XGXSXJXdXvXmXJXJXJXJXJXJXJXJXJXJXJXJXJX",
"JXJXJXJXJXJXJXJXJXJXJXJXJXJXJXJXJXJXJXJXJXJX&.&.&.&.&.&.&.&.&.&.&.&.&.&.&.1.m.X   . - JXJXFXDXJXJXJXzXNXJXJXJXJXJXJXJXJXJXJXJXJX",
"JXJXJXJXJXJXJXJXJXJXJXJXJXJXJXJXJXJXJXJXJXJX&.&.&.&.&.&.&.&.&.&.&.&.&.&.&.JXJXJXJXjXAXJXJXJXJXJXJXJXJXcXMXJXJXJXJXJXJXJXJXJXJXJX",
"JXJXJXJXJXJXJXJXJXJXJXJXJXJXJXJXJXJXJXJXJXJX&.&.&.&.&.&.&.&.&.&.&.&.&.&.&.JXJXJXJXZXJXJXJXJXJXJXJXJXJXJXkXJXJXJXJXJXJXJXJXJXJXJX",
"JXJXJXJXJXJXJXJXJXJXJXJXJXJXJXJXJXJXJXJXJXJX&.&.&.&.&.&.&.&.&.&.&.&.&.&.&.JXJXJXbXgXJXJXJXJXJXJXJXJXJXJXhXJXJXJXJXJXJXJXJXJXJXJX",
"JXJXJXJXJXJXJXJXJXJXJXJXJXJXJXJXJXJXJXJXJXJX&.&.&.&.&.&.&.*.#.#.*.&.&.&.&.JXJXJXlXJXJXJXJXJXJXJXJXJXJXJXJXJXJXJXJXJXJXJXJXJXJXJX",
"JXJXJXJXJXJXJXJXJXJXJXJXJXJXJXJXJXJXJXJXJXJX&.&.&.&.&.&.&.*.+.#.*.&.&.&.&.JXJXJXnXVXJXJXJXJXJXJXJXJXJXJXCXJXJXJXJXJXJXJXJXJXJXJX",
"JXJXJXJXJXJXJXJXJXJXJXJXJXJXJXJXJXJXJXJXJXJX&.&.&.&.&.&.&.*.[ #.*.&.&.&.&.JXJXJXwX0XeXrXsXpXuXaXiXuXtXyXqXJXJXJXJXJXJXJXJXJXJXJX",
"JXJXJXJXJXJXJXJXJXJXJXJXJXJXJXJXJXJXJXJXJXJX&.&.&.&.&.&.&.&._ %.*.&.&.&.&.JXJXJXL.G.].(.!.Q.'.).~..XXX[.D.JXJXJXJXJXJXJXJXJXJXJX",
"JXJXJXJXJXJXJXJXJXJXJXJXJXJXJXJXJXJXJXJXJXJX&.&.&.&.&.&.*.#.Q &.&.&.&.&.&.JXJXJXL.~.1X+X{.OX*X&X>X3X5X6XW.JXJXJXJXJXJXJXJXJXJXJX",
"JXJXJXJXJXJXJXJXJXJXJXJXJXJXJXJXJXJXJXJXJXJX&.&.&.%.&.&.;. .E *.&.&.&.&.&.JXJXJXP.H.;X%X|.@X=X:X2X<X7X8XR.JXJXJXJXJXJXJXJXJXJXJX",
"JXJXJXJXJXJXJXJXJXJXJXJXJXJXJXJXJXJXJXJXJXJX&.;.@.+.*.&.;.` R *.&.&.&.&.&.JXJXJXJXF.T. X^.}.$X*X2X4X9X#XJ.JXJXJXJXJXJXJXJXJXJXJX",
"JXJXJXJXJXJXJXJXJXJXJXJXJXJXJXJXJXJXJXJXJXJX&.;.( @.*.&.:./ Y ;.&.&.&.&.&.JXJXJXJXJXK.E.U.Y.`._./.oX'.I.JXJXJXJXJXJXJXJXJXJXJXJX",
"JXJXJXJXJXJXJXJXJXJXJXJXJXJXJXJXJXJXJXJXJX&.;...R *.&.&.;.E Y ;.&.&.&.&.&.JXJXJXJXJXJXJXJXJXJXJXJXJXJXJXJXJXJXJXJXJXJXJXJXJXJXJX",
"JXJXJXJXJXJXJXJXJXJXJXJXJXJXJXJXJXJXJXJXJX&.:.Q R ;.&.&.*.Y T *.&.&.&.&.&.JXJXJXJXJXJXJXJXJXJXJXJXJXJXJXJXJXJXJXJXJXJXJXJXJXJXJX",
"JXJXJXJXJXJXJXJXJXJXJXJXJXJXJXJXJXJXJXJXJX*.*.U / :.&.*.&.U R *.*.&.&.&.&.JXJXJXJXJXJXJXJXJXJXJXJXJXJXJXJXJXJXJXJXJXJXJXJXJXJXJX",
"JXJXJXJXJXJXJXJXJXJXJXJXJXJXJXJXJXJXJXJXJX;.@.D ] :.&.;.#.F R *.*.&.&.&.&.&.JXJXJXJXJXJXJXJXJXJXJXJXJXJXJXJXJXJXJXJXJXJXJXJXJXJX",
"JXJXJXJXJXJXJXJXJXJXJXJXJXJXJXJXJXJXJXJXJX:._ S ' :.&.;. .G R %.*.&.&.&.&.&.JXJXJXJXJXJXJXJXJXJXJXJXJXJXJXJXJXJXJXJXJXJXJXJXJXJX",
"JXJXJXJXJXJXJXJXJXJXJXJXJXJXJXJXJXJXJXJXJXJX+.W  .;.&.&.JXJXJXJXJXJXJXJXJXJXJXJXJXJXJXJXJXJXJXJXJXJXJXJXJXJXJXJXJXJXJXJXJXJXJXJX"
};
