/* XPM */
static char *result[] = {
/* columns rows colors chars-per-pixel */
"64 64 228 2 ",
"   c black",
".  c #070808",
"X  c #1E1814",
"o  c #181F25",
"O  c #1C2125",
"+  c #2D3338",
"@  c #7A0014",
"#  c #7E0E22",
"$  c #493C32",
"%  c #654F3F",
"&  c #394045",
"*  c #5B5450",
"=  c #6D5849",
"-  c #7A6555",
";  c #960808",
":  c #9E1914",
">  c #9A1115",
",  c #A30805",
"<  c #B90A0C",
"1  c #A6130F",
"2  c #A20B1B",
"3  c #B1111E",
"4  c #BB231D",
"5  c #A32D1A",
"6  c #9C1421",
"7  c #871123",
"8  c #AB1425",
"9  c #A51A24",
"0  c #A31D28",
"q  c #A81826",
"w  c #B71C27",
"e  c #AB0D22",
"r  c #8C212E",
"t  c #95222E",
"y  c #9C232D",
"u  c #8A2936",
"i  c #8A303C",
"p  c #A4242D",
"a  c #AC252C",
"s  c #AD292F",
"d  c #B2262C",
"f  c #BB252B",
"g  c #B4292E",
"h  c #BB292D",
"j  c #A83226",
"k  c #AD2E30",
"l  c #AB3533",
"z  c #B63733",
"x  c #B73828",
"c  c #CC0D15",
"v  c #D40914",
"b  c #CD1619",
"n  c #D4161C",
"m  c #E7080E",
"M  c #E9161A",
"N  c #EA1B1D",
"B  c #E81415",
"V  c #F71D1D",
"C  c #EA0616",
"Z  c #CD271D",
"A  c #ED211E",
"S  c #C51D26",
"D  c #EA1D20",
"F  c #E11C22",
"G  c #C42B2D",
"H  c #CB2C2C",
"J  c #CA2429",
"K  c #D32D2D",
"L  c #DC2E2C",
"P  c #D82525",
"I  c #D23223",
"U  c #DE302C",
"Y  c #D13827",
"T  c #C83632",
"R  c #D73A31",
"E  c #CB392E",
"W  c #E92323",
"Q  c #E92926",
"!  c #E42E2A",
"~  c #E82E2A",
"^  c #E62727",
"/  c #FB2D2A",
"(  c #F32828",
")  c #E4312C",
"_  c #E9312C",
"`  c #E6382E",
"'  c #F3332C",
"]  c #FA342C",
"[  c #E73B33",
"{  c #EA3C33",
"}  c #E73730",
"|  c #8B5E27",
" . c #AC4C3D",
".. c #B24D3D",
"X. c #B74837",
"o. c #B65539",
"O. c #AE4A30",
"+. c #9B7A3D",
"@. c #A66536",
"#. c #AB6B3B",
"$. c #A46738",
"%. c #B6693C",
"&. c #A8723E",
"*. c #DB4934",
"=. c #CC4F35",
"-. c #E64A3C",
";. c #E94337",
":. c #E1513D",
">. c #9E4449",
",. c #B84343",
"<. c #AE5C44",
"1. c #AF5541",
"2. c #B35943",
"3. c #886A56",
"4. c #8D735F",
"5. c #8F784A",
"6. c #AE6E4C",
"7. c #B86748",
"8. c #AB7E44",
"9. c #A87A41",
"0. c #B37542",
"q. c #B57A45",
"w. c #BA7D46",
"e. c #BB7E49",
"r. c #BA744E",
"t. c #BC7851",
"y. c #997C67",
"u. c #BE7167",
"i. c #D25A47",
"p. c #E55342",
"a. c #E45A46",
"s. c #E75C48",
"d. c #EB5543",
"f. c #D56E50",
"g. c #E5644D",
"h. c #E86448",
"j. c #E66C55",
"k. c #E47757",
"l. c #EF7F6C",
"z. c #CF7567",
"x. c #6FA71B",
"c. c #68D52B",
"v. c #BE824B",
"b. c #B38247",
"n. c #B38D59",
"m. c #B48E75",
"M. c #AF9272",
"N. c #AEA563",
"B. c #AEA864",
"V. c #B0A764",
"C. c #C1834D",
"Z. c #C68B51",
"A. c #CA9155",
"S. c #E28559",
"D. c #F4835F",
"F. c #DE8A65",
"G. c #DC966B",
"H. c #D09878",
"J. c #E28B67",
"K. c #E18764",
"L. c #E1936C",
"P. c #E39A63",
"I. c #DCAC7C",
"U. c #DAA675",
"Y. c #DAB37E",
"T. c #DEAC69",
"R. c #E1A668",
"E. c #E4AC6D",
"W. c #E1A967",
"Q. c #E3AD7C",
"!. c #E3B478",
"~. c #DED179",
"^. c #E3C47A",
"/. c #E8C47C",
"(. c #BDBEBF",
"). c #8F9090",
"_. c #E19D86",
"`. c #D6AB8A",
"'. c #DDB382",
"]. c #DABA84",
"[. c #DCBE88",
"{. c #D4AE90",
"}. c #E3A38A",
"|. c #EDA58A",
" X c #F5A88B",
".X c #E4B382",
"XX c #E8B38C",
"oX c #E5B886",
"OX c #EABD94",
"+X c #EEBD9B",
"@X c #E8B798",
"#X c #F6BB9A",
"$X c #DAC38B",
"%X c #DAC88F",
"&X c #DBCC91",
"*X c #DBD899",
"=X c #E3C48E",
"-X c #EAC88C",
";X c #E3CB93",
":X c #EDC19B",
">X c #E6C89B",
",X c #F1C29D",
"<X c #FCCB9B",
"1X c #E3D499",
"2X c #F1D492",
"3X c #DBE09E",
"4X c #ECCCA2",
"5X c #EAC2A2",
"6X c #F3C5A3",
"7X c #F5C9A5",
"8X c #F6C9A9",
"9X c #FACDAB",
"0X c #F9C9A8",
"qX c #EDD3A8",
"wX c #F9D5AB",
"eX c #FCD6B1",
"rX c #F4DBB4",
"tX c #FEDBB4",
"yX c #FFDDB8",
"uX c #F5D5B1",
"iX c #EFCEB0",
"pX c #F6E2BB",
"aX c #FEE3BC",
"sX c #F6E3B4",
"dX c #FFEAC2",
"fX c #FFF5C8",
"gX c #F7FCFF",
"hX c None",
/* pixels */
"hXhXhXhXhXhXhXhXhXhXhXhXhXhXhXhXhXhXhXhXhXhXhXhXhXhXhXhXhXhX_ _ _ _ _ _ _ ~ hXhXhXhXhXhXhXhXhXhXhXhXhXhXhXhXhXhXhXhXhXhXhXhXhXhX",
"hXhXhXhXhXhXhXhXhXhXhXhXhXhXhXhXhXhXhXhXhXhXhXhXhXhXhX_ _ _ _ _ _ ) ) _ ) _ _ _ hXhXhXhXhXhXhXhXhXhXhXhXhXhXhXhXhXhXhXhXhXhXhXhX",
"hXhXhXhXhXhXhXhXhXhXhXhXhXhXhXhXhXhXhXhXhXhXhXhXhX_ _ _ _ _ _ _ _ _ ) _ ) _ _ _ _ _ hXhXhXhXhXhXhXhXhXhXhXhXhXhXhXhXhXhXhXhXhXhX",
"hXhXhXhXhXhXhXhXhXhXhXhXhXhXhXhXhXhXhXhXhXhXhXhX_ _ _ _ ~ ~ ~ ~ ~ ~ ~ _ _ ~ ~ _ _ _ _ hXhXhXhXhXhXhXhXhXhXhXhXhXhXhXhXhXhXhXhXhX",
"hXhXhXhXhXhXhXhXhXhXhXhXhXhXhXhXhXhXhXhXhXhXhX_ _ _ Q N D ^ W W W W W N F W D M W _ _ _ hXhXhXhXhXhXhXhXhXhXhXhXhXhXhXhXhXhXhXhX",
"hXhXhXhXhXhXhXhXhXhXhXhXhXhXhXhXhXhXhXhXhXhX_ _ Q M ~ g.J.G.L.J.F.K.F.F.K.J.J.j.} M ~ _ _ hXhXhXhXhXhXhXhXhXhXhXhXhXhXhXhXhXhXhX",
"hXhXhXhXhXhXhXhXhXhXhXhXhXhXhXhXhXhXhXhXhX_ _ M ^ j..X;X;X=X=X%X$X$X$X=X;X;X;X1XoXg.M Q ` hXhXhXhXhXhXhXhXhXhXhXhXhXhXhXhXhXhXhX",
"hXhXhXhXhXhXhXhXhXhXhXhXhXhXhXhXhXhXhXhX_ ~ M p.Q.1X=X.X.X.X.XoX.XI..XoX.X.XQ..X;X1Xk.M ~ _ hXhXhXhXhXhXhXhXhXhXhXhXhXhXhXhXhXhX",
"hXhXhXhXhXhXhXhXhXhXhXhXhXhXhXhXhXhXhXhX_ N g.1X;XQ..XoXOX+X+X+X:X,X,X:X+X+XOXoXQ..X1Xg.M _ _ hXhXhXhXhXhXhXhXhXhXhXhXhXhXhXhXhX",
"hXhXhXhXhXhXhXhXhXhXhXhXhXhXhXhXhXhXhX_ W } oX=XQ.OX,X6X8X7X7X8X8X8X8X8X8X8X7X6X:XOX=X=X;.N _ hXhXhXhXhXhXhXhXhXhXhXhXhXhXhXhXhX",
"hXhXhXhXhXhXhXhXhXhXhXhXhXhXhXhXhXhXhX) M k.;XoX,X8X8X6X,X6X6X6X6X6X6X6X6X6X6X6X8X8X+X;XJ.N ) hXhXhXhXhXhXhXhXhXhXhXhXhXhXhXhXhX",
"hXhXhXhXhXhXhXhXhXhXhXhXhXhXhXhXhXhXhX~ W L.;X7X9X0X0X8X6X6X6X6X6X6X6X6X6X6X6X6X7X7X9X7X=X-.N _ hXhXhXhXhXhXhXhXhXhXhXhXhXhXhXhX",
"hXhXhXhXhXhXhXhXhXhXhXhXhXhXhXhXhXhX_ Q _ Q.wX7X+XOXOX:X8X6X6X6X6X6X6X6X6X6X6X+XOXOX:X7XsXS.B _ hXhXhXhXhXhXhXhXhXhXhXhXhXhXhXhX",
"hXhXhXhXhXhXhXhXhXhXhXhXhXhXhXhXhXhX_ D *.4X8XOX<XwX<XI.'.8X6X6X6X6X6X6X6X6X'.Y.<XwX,X:XiXXX! Q hXhXhXhXhXhXhXhXhXhXhXhXhXhXhXhX",
"hXhXhXhXhXhXhXhXhXhXhXhXhXhXhXhXhXhX) N s.qX9X9Xm.4.m.yX,X6X6X6X6X6X6X6X6X+X7XeXm.3.H.eX9X1X:.N _ hXhXhXhXhXhXhXhXhXhXhXhXhXhXhX",
"hXhXhXhXhXhXhXhXhXhXhXhXhXhXhXhXhXhX) N j.pX+X= * +   - aX6X6X6X6X6X6X6X6X0XyX%   & * = 8XwXk.M _ hXhXhXhXhXhXhXhXhXhXhXhXhXhXhX",
"hXhXhXhXhXhXhXhXhXhXhXhXhXhXhXhXhX_ ) N k.sX`.X gX).    {.tX,X6X6X6X6X6X8XaXm.    (.gXX 6XqXF.W ~ hXhXhXhXhXhXhXhXhXhXhXhXhXhXhX",
"hXhXhXhXhXhXhXhXhXhXhXhXhXhXhXhXhX_ ~ W F.qXfX= O       `.yX6X6X6X6X6X6X6XaXm.    . o 3.fX;XU.) ~ hXhXhXhXhXhXhXhXhXhXhXhXhXhXhX",
"hXhXhXhXhXhXhXhXhXhXhXhXhXhXhXhXhX_ ~ W G.qXaX{.      = yX7X6X6X6X,X6X6X6X7XeX$       5XyX:XI.[ W hXhXhXhXhXhXhXhXhXhXhXhXhXhXhX",
"hXhXhXhXhXhXhXhXhXhXhXhXhXhXhXhXhX_ Q ~ L.4X6XyX{.3.M.tX9X5X6X8X6XXX+X8X6X6XeXeXy.4.@XtX6XOXY.-.W _ hXhXhXhXhXhXhXhXhXhXhXhXhXhX",
"hXhXhXhXhXhXhXhXhXhXhXhXhXhXhXhXhX_ Q ) U.7X8X5XtXaXaX9X,X6X6X6X,XXX+X8X6X6X6X0XdXdXeX#X8XOX].p.N _ hXhXhXhXhXhXhXhXhXhXhXhXhXhX",
"hXhXhXhXhXhXhXhXhXhXhXhXhXhXhXhXhX) Q ` U.4X8X6X6X6X6X6X6X6X6X6X6X6X6X6X6X6X6X6X6X6X6X6X8X+X].a.D _ hXhXhXhXhXhXhXhXhXhXhXhXhXhX",
"hXhXhXhXhXhXhXhXhXhXhXhXhXhXhXhXhX_ W [ U.:X8X6X6X6X6X6X6X6X6X6X6X6X6X6X6X6X6X6X6X6X6X6X0XoX].a.N _ hXhXhXhXhXhXhXhXhXhXhXhXhXhX",
"hXhXhXhXhXhXhXhXhXhXhXhXhXhXhXhXhX_ W ;.I.'.8XuX6X6X6X6X6X6X6X,X6X6X6X6X6X6X6X6X6X6X6XuX5XI.[.p.D _ hXhXhXhXhXhXhXhXhXhXhXhXhXhX",
"hXhXhXhXhXhXhXhXhXhXhXhXhXhXhXhXhX_ W ;.'.].Q.6XdXrXrXuXtXtXtXtX7X,XwXtXtXtXtXtXeXrXpX#XI.Y.[.p.N _ hXhXhXhXhXhXhXhXhXhXhXhXhXhX",
"hXhXhXhXhXhXhXhXhXhXhXhXhXhXhXhXhX_ W -.'.$XF.[ l.|. X|.}.}.}._.6XtXXX_.}.}.}.|. X|.j.{ I.].'.-.W _ hXhXhXhXhXhXhXhXhXhXhXhXhXhX",
"hXhXhXhXhXhXhXhXhXhXhXhXhXhXhXhXhX_ D -.].%XL.M B ( P q 9 9 8 ; z.aXs 2 q q 9 9 ^ A m ~ Q.$XI.} W _ hXhXhXhXhXhXhXhXhXhXhXhXhXhX",
"hXhXhXhXhXhXhXhXhXhXhXhXhXhXhXhXhX_ W -.[.&Xk.D ' ! q p a q a 9 a ,.9 a a a p 6 a ~ ' W L.&XI._ Q _ hXhXhXhXhXhXhXhXhXhXhXhXhXhX",
"hXhXhXhXhXhXhXhXhXhXhXhXhXhXhXhXhX_ D p.[.$Xa.V ! p p a a a a a a 2 a a a a a a p f ' N j.*XI.} Q _ hXhXhXhXhXhXhXhXhXhXhXhXhXhX",
"hXhXhXhXhXhXhXhXhXhXhXhXhXhXhXhXhX_ D p.$X].;.D p p a a a a a a a a a a a a a a p p K V s.&XI.} ^ hXhXhXhXhXhXhXhXhXhXhXhXhXhXhX",
"hXhXhXhXhXhXhXhXhXhXhXhXhXhXhXhXhXhXN a.%X.X;.w p a a a a a a a a a a a a a a a a p p D s.%X'.;.W hXhXhXhXhXhXhXhXhXhXhXhXhXhXhX",
"hXhXhXhXhXhXhXhXhXhXhXhXhXhXhXhXhXhXN a.3X-XT 9 a a a a a a a a a a a a a a a a s s y b d.3X$X} hXhXhXhXhXhXhXhXhXhXhXhXhXhXhXhX",
"hXhXhXhXhXhXhXhXhXhXhXhXhXhXhXhXhXhX~ { hXf.0 a a a a d a a a a a a a a a a a a a a a 6 R D.hX~ hXhXhXhXhXhXhXhXhXhXhXhXhXhXhXhX",
"hXhXhXhXhXhXhXhXhXhXhXhXhXhXhXhXhXhXhXhXhX2 a a a a a p a a a s a a a a a a a a a a a s a hXhXhXhXhXhXhXhXhXhXhXhXhXhXhXhXhXhXhX",
"hXhXhXhXhXhXhXhXhXhXhXhXhXhXhXhXhXhXhXhXp p a a a a d d d p p s a a a a a a d d p a a a a y a hXhXhXhXhXhXhXhXhXhXhXhXhXhXhXhXhX",
"hXhXhXhXhXhXhXhXhXhXhXhXhXhXhXhXhXhXhXhXd d a a a a p S w 8 e 8 3 8 8 8 8 8 8 J s a a a a d a hXhXhXhXhXhXhXhXhXhXhXhXhXhXhXhXhX",
"hXhXhXhXhXhXhXhXhXhXhXhXhXhXhXhXhXhXhX@ 7 s d a a q g 7.6.<.1.1...1...1.1.7.6.o.w p a a d p 7 hXhXhXhXhXhXhXhXhXhXhXhXhXhXhXhXhX",
"hXhXhXhXhXhXhXhXhXhXhXhXhXhXhXhXhXhXhXu.i 7 s a a q z n.N.N.B.N.V.N.N.V.N.n.N.r.w 0 a a p # >.H.hXhXhXhXhXhXhXhXhXhXhXhXhXhXhXhX",
"hXhXhXhXhXhXhXhXhXhXhXhXhXhXhXhXhX8XaXfX5Xr 9 d s p L T l 1.o.2.2.<.1.1...7.6.w f p p d 6 i aXfX9X6XhXhXhXhXhXhXhXhXhXhXhXhXhXhX",
"hXhXhXhXhXhXhXhXhXhXhXhXhXhXhXuX8X6X6XpX9Xz > a p g ' w 9 8 8 8 8 8 8 e 8 1.r.d J p d a 6 ,.#XrX8X,X6X6XhXhXhXhXhXhXhXhXhXhXhXhX",
"hXhXhXhXhXhXhXhXhXhXhXhXW.U.c.!..X6XuXhXhXn y p t K ) p p a a a s a a q k X.t.l P h y y p Q N hXrX4X@X6X8XhXhXhXhXhXhXhXhXhXhXhX",
"hXhXhXhXhXhXhXhXhXhXR.G.Z O.j :.W.E.hXhXm } G s f ' H p a a a a s a s a k l t.>.S _ f d U ' ^ m hXrX#X+XhXhXhXhXhXhXhXhXhXhXhXhX",
"hXhXhXhXhXhXhXhXW.R.i.: c v v I g.hX~.E.W W ' ~ ' ' f p a a a a a a a a k z 7.<.8 _ ' ' _ ~ ` Q hXhXhXhXhXhXhXhXhXhXhXhXhXhXhXhX",
"hXhXhXhXhXhXhXE.T.hXhX; b b c I J hXhX!.E.D ~ _ _ ~ s p a a a a a a a a k k 2.r.9 L ' _ ) ) ~ _ W hXhXhXhXhXhXhXhXhXhXhXhXhXhXhX",
"hXhXhXhXhXhXhXW.hXhXhX| , c P Z 5.x.hX` -Xk.B ~ ~ ! p a a a a a a a a a s k ..C.p J ' _ ) U _ _ } hXhXhXhXhXhXhXhXhXhXhXhXhXhXhX",
"hXhXhXhXhXhXR.R.hX< b 4 1 1 4 v 4 n F B k.^.~ Q ' L p a a a a a a a a d p p k ..p f ' _ U L _ _ ~ } hXhXhXhXhXhXhXhXhXhXhXhXhXhX",
"hXhXhXhXhXhXR.hX: < v v Z I , n v c Y P ` T.a.A ' H p a a s d a a a a a s p w q p g _ _ ) K _ _ _ _ hXhXhXhXhXhXhXhXhXhXhXhXhXhX",
"hXhXhXhXhXR.W.hX; < n b Z H ; n b b I U ^ P.S.N ' G y a a a p a a a a a p p s a p p ) ' ) H _ _ _ _ _ hXhXhXhXhXhXhXhXhXhXhXhXhX",
"hXhXhXhXhXR.R.hXhX> < F Z hXj , c I n N C S.S.N _ h p a a a p s a a g p p p a a d y K ] _ H U _ _ ! _ hXhXhXhXhXhXhXhXhXhXhXhXhX",
"hXhXhXhXhXR.E.hXhXf.5 X.f.hXhXj x Y h.h.h.E.P.Q ~ d p a a a p d a a a p s p p a a y G ' _ G K ' ) L _ _ hXhXhXhXhXhXhXhXhXhXhXhX",
"hXhXhXhXhXE.W.E.T.E.!.E.E.E.E.!.^.^.^.^.^.^.E.{ P p p a a a p s a d p p d y p a a p g _ ' G H ' _ U U _ hXhXhXhXhXhXhXhXhXhXhXhX",
"hXhXhXhXhXw.0.0.C.v.w.C.w.C.Z.%.C.C.w.C.0.b.=.] K y p a a a p p a a p p d p p d a a s U ] H h ' _ K L _ hXhXhXhXhXhXhXhXhXhXhXhX",
"hXhXhXhXhX@.#.#.f.w.6.w.&.e.v.#.C.w.b.C.#.&.o./ G 6 p a a a p p d a p p d p y a a a y K ] K g ) ' L K ' _ hXhXhXhXhXhXhXhXhXhXhX",
"hXhXhXhXhX#.0.q.v.w.&.v.0.C.C.0.Z.C.Z.A.&.8.%._ h y p d a a y a d p p d g p t a a a y G ] L s L ' U H _ _ hXhXhXhXhXhXhXhXhXhXhX",
"hXhXhXhXhX#.#.#.n.v.0.v.0.C.C.q.Z.C.C.A.0.8.=.~ p y p s d a y p g p p a a p t p d s 0 f ' ) g H ' _ G U _ _ hXhXhXhXhXhXhXhXhXhX",
"hXhXhXhXhXhX@.@.C.b.0.C.0.C.C.w.A.C.Z.A.&.b.*.P p y d s a p t p d p p s d a t y d a a p L ' h h _ ' H K ' _ hXhXhXhXhXhXhXhXhXhX",
"hXhXhXhXhXhX#.@.%.b.$.q.9.e.v.q.A.e.Z.v.5.%./ J t y a a g p t p p p a a a a y t a a a p H ] G k L ] K G ' _ _ hXhXhXhXhXhXhXhXhX",
"hXhXhXhXhXhXhXq.#.%.&.b.9.q.b.9.b.8.b.$.o.( ( d t p d a d p t p p p d a a d p t p d a p f ] K p K ' ) h ! _ _ hXhXhXhXhXhXhXhXhX",
"hXhXhXhXhXhXhXhXhXhXhX*.R *.*.z T ;.*.h P / U y y a a a s y t s p a a a a a p t p a a a p ~ ) s G _ ' h H ' _ _ hXhXhXhXhXhXhXhX",
"hXhXhXhXhXhXhXhXhXhXhX( ( ( W f ^ / ^ h ! ] H t y d a d a t t p p g a a a d a y y a a a p K ' h g ) ] K g _ _ _ hXhXhXhXhXhXhXhX",
"hXhXhXhXhXhXhXhXhXhXhX_ ~ ' G h ' ' G h ' ~ a t p d a d p t y p a a a a a a d y t p d a p h ] H s K ' _ g K ' _ _ hXhXhXhXhXhXhX",
"hXhXhXhXhXhXhXhXhXhX_ _ ' _ g K ' ) g K / G r t s a a a y t y a d a a a a a g p t y s p p y _ L s h _ ' G g _ _ _ hXhXhXhXhXhXhX",
"hXhXhXhXhXhXhXhXhX_ _ ) ' G g ' ' H g _ ' H t y a y p y r r t d s a a a a a a a t r p s a g L ] G k L ' ) k H ' _ _ hXhXhXhXhXhX",
"hXhXhXhXhXhXhXhXhX_ _ ' U g K ' U g K ' _ ' ! K K H J G h h p p a a a a a a d p h hXhXhXhXhXhXhXhXhXhXhXhXhXhXhXhXhXhXhXhXhXhXhX"
};
