/* XPM */
static char *_a820953ebd24c16f5ebc6776c805039RyKDu1so6oM712As[] = {
/* columns rows colors chars-per-pixel */
"64 64 241 2 ",
"   c None",
".  c #130000",
"X  c #1C0102",
"o  c #230202",
"O  c #2B030C",
"+  c #28080B",
"@  c #390A0A",
"#  c #2E0A13",
"$  c #3D0D1A",
"%  c #330B13",
"&  c #3A1618",
"*  c #2F1818",
"=  c #3B1E20",
"-  c #372020",
";  c #480E06",
":  c #4C1008",
">  c #52110A",
",  c #5B150B",
"<  c #420B19",
"1  c #4D131D",
"2  c #43171B",
"3  c #591816",
"4  c #64180E",
"5  c #641B12",
"6  c #6B1E15",
"7  c #761C19",
"8  c #7D1E0F",
"9  c #4D2119",
"0  c #7A250F",
"q  c #652112",
"w  c #6D2114",
"e  c #6E291C",
"r  c #73241B",
"t  c #7C2B1E",
"y  c #782715",
"u  c #7C311C",
"i  c #491A23",
"p  c #5B1C25",
"a  c #581834",
"s  c #56272B",
"d  c #58322B",
"f  c #5B3933",
"g  c #56262D",
"h  c #662726",
"j  c #7B2624",
"k  c #7D2B23",
"l  c #752621",
"z  c #6B3529",
"x  c #7A3625",
"c  c #672A32",
"v  c #773736",
"b  c #6C3D36",
"n  c #734C3D",
"m  c #784742",
"M  c #785245",
"N  c #6B5144",
"B  c #832B12",
"V  c #8A2D14",
"C  c #822A18",
"Z  c #843315",
"A  c #8B3415",
"S  c #84331D",
"D  c #8C3819",
"F  c #933415",
"G  c #933B19",
"H  c #993D1B",
"J  c #973917",
"K  c #80220F",
"L  c #822B24",
"P  c #843324",
"I  c #8A3424",
"U  c #853B23",
"Y  c #8C3B24",
"T  c #88392B",
"R  c #923D25",
"E  c #923D2B",
"W  c #943529",
"Q  c #873D33",
"!  c #913A32",
"~  c #96431E",
"^  c #9C441D",
"/  c #9D481F",
"(  c #A2441D",
")  c #A44A1F",
"_  c #A54819",
"`  c #A6501F",
"'  c #8C4127",
"]  c #9E4523",
"[  c #9E4921",
"{  c #97432B",
"}  c #884338",
"|  c #94433B",
" . c #994833",
".. c #A34D23",
"X. c #A74A25",
"o. c #A65125",
"O. c #AA5325",
"+. c #A5532A",
"@. c #AB562A",
"#. c #AE5A2C",
"$. c #AF5925",
"%. c #B35D2C",
"&. c #B25826",
"*. c #A85735",
"=. c #B45E32",
"-. c #B5612D",
";. c #B9632C",
":. c #BC692F",
">. c #AB6135",
",. c #B56431",
"<. c #BA6533",
"1. c #BD6933",
"2. c #B7693C",
"3. c #BD733A",
"4. c #BC7437",
"5. c #C56B3A",
"6. c #C1743B",
"7. c #C47B3C",
"8. c #C97739",
"9. c #C1662F",
"0. c #875947",
"q. c #975846",
"w. c #925353",
"e. c #904A40",
"r. c #976A57",
"t. c #98765B",
"y. c #96654F",
"u. c #A1654C",
"i. c #B66C44",
"p. c #BD7244",
"a. c #A5725A",
"s. c #B87757",
"d. c #B07A69",
"f. c #C17441",
"g. c #C57A42",
"h. c #C4794A",
"j. c #D47B46",
"k. c #C67F53",
"l. c #D1843C",
"z. c #B58561",
"x. c #BE976A",
"c. c #B68976",
"v. c #BC9A75",
"b. c #C68144",
"n. c #CC8345",
"m. c #CC8A4B",
"M. c #CA8749",
"N. c #D98748",
"B. c #DA9848",
"V. c #C58558",
"C. c #DC8C53",
"Z. c #DC8B58",
"A. c #DB9657",
"S. c #CE9051",
"D. c #E28B47",
"F. c #E4934A",
"G. c #E39846",
"H. c #E49B5B",
"J. c #E39855",
"K. c #DEA15D",
"L. c #E8A358",
"P. c #F2A857",
"I. c #F4B15D",
"U. c #EFA04C",
"Y. c #C58967",
"T. c #C8946D",
"R. c #D59868",
"E. c #CD9974",
"W. c #D89F77",
"Q. c #E49C62",
"!. c #E39F6B",
"~. c #DCA665",
"^. c #DEA869",
"/. c #CAA579",
"(. c #D5A978",
"). c #DBB37A",
"_. c #DEB16B",
"`. c #EAA364",
"'. c #EDAA66",
"]. c #E5A26B",
"[. c #EAA669",
"{. c #EDAA6C",
"}. c #E3A868",
"|. c #F3AC68",
" X c #ECB667",
".X c #F4B46D",
"XX c #F3BC6D",
"oX c #F8BA68",
"OX c #EBAC74",
"+X c #ECAF78",
"@X c #E7A673",
"#X c #F0AD75",
"$X c #EEB174",
"%X c #EBBC74",
"&X c #EDB27A",
"*X c #E7BA78",
"=X c #F2B574",
"-X c #F3BC73",
";X c #F2B67B",
":X c #F4BB7D",
">X c #F9BC77",
",X c #EDC47D",
"<X c #EEC57A",
"1X c #FBC473",
"2X c #F3C47B",
"3X c #FBCB7C",
"4X c #F6C47A",
"5X c #FAD57C",
"6X c #FDCC6F",
"7X c #CB9F86",
"8X c #D9AC86",
"9X c #D9B486",
"0X c #D2B296",
"qX c #E9BB87",
"wX c #F4BD81",
"eX c #F0B486",
"rX c #E7B48D",
"tX c #EDC487",
"yX c #F5C383",
"uX c #F9C585",
"iX c #F4CC84",
"pX c #FACD81",
"aX c #FBCA8D",
"sX c #F7C28B",
"dX c #FCD385",
"fX c #F4D48D",
"gX c #FEDB8B",
"hX c #F9D687",
"jX c #F2C894",
"kX c #FDDD92",
"lX c #F6D999",
"zX c #ECCC8D",
"xX c #FFE48B",
"cX c #FFE58A",
"vX c #FFE395",
"bX c #FFE69A",
"nX c #FBE899",
"mX c #FFF39C",
"MX c #FFF3AD",
"NX c #FAE9AF",
"BX c #F2CAA3",
/* pixels */
"                                                                                                                                ",
"                                                                                                                                ",
"                                                                                                                                ",
"                                                                                                                                ",
"                                                                                                                                ",
"                                                                                                                                ",
"                                                                                                                                ",
"                                                                                                                                ",
"                                                                                                                                ",
"                                                                                                                                ",
"                                                                                                                                ",
"                                              /.                                                                                ",
"                                    (.hXpX,XtX3X3X/.                                                                            ",
"                                    9X0XzXiXoX*X)./.                                                                            ",
"                                          gX6X(.v.                                                                              ",
"                                        2XgXgX*XT.                                                                              ",
"                                      hX3X).v.fXXX`.$X+X).8X8X                                                                  ",
"                                      cXv.f d _.gXoX'..X>X>X*XqX(.T.c.                                                          ",
"                                    gXiXN . X >.dXvX{.#X;X>X>XuX>X|.`.{.(./.v.                                                  ",
"                                  xXhXt.* . > y S.nX3X{.OX;X;XwXuXyX#X{.|.>X=XP.`.]./.                                          ",
"                                hXcXT.- X : 0 0 o._.bX1X{.#X+X;XyXuX:XOX{.>X>X.XP.L.L.].qX                                      ",
"                                cX).f . @ B F F Z >.fXhX=X[.+XOX;XyXyXOXR.OX;X:X$XP.U.P..XjX                                    ",
"                              gXfXN X @ 4 F ) / V D b.fXhX|.=XOX+X:XuX&X].@X;X:X&X{.L.L.'.U.L.                                  ",
"                            gXcXt.* o 4 V / ` ~ D A ^ ~.vXpX{.OX+XOX2XuX$X].].$X:X:X].H.H.H.{.=X                                ",
"                          gXgXx.& o , B ^ o.` ~ ~ G A #.*XnX X|.OX+X&X:X:X$X].].=X;X;X[.J.J.H.#X&X                              ",
"                          cX/.d X ; V H o.o./ / / / G A 4.hXhX=X{.;XOX&X:X=X{.].].{.;X;XQ.J.J.].&X&X                            ",
"                        xXtX0.o @ 7 J o.o.[ / ..[ [ / A / M.vXiX|.OXOX&X&X:X$XOX].Q.[.;X=XH.J.J.{.&X                            ",
"                      gXxXr.# O 4 F o.&.o./ / o...[ / / G o.~.gXuX`.;XOXOX;X%X$XOXOXQ.Q.;XOXJ.N.J.#X;X                          ",
"                      cXx.i o 6 V ) ,.#.o.[ ..O.o.[ / o.^ F #.%XvXXX{.=X&X+X&X$X$X%X{.H.Q.=X#XZ.N.J.OX;X                        ",
"                    gX(.g o > F ) #.#.@.o.o...@.O.....o.o.^ G g.iXgX{.{.;XOX+X+X{.$X:XOXZ.[.=X[.C.N.Q.;X&X                      ",
"                  cX,XM O @ B _ ;.+.~ [ @.@.o.$.@.o.o.@.@...H [ S.bX4X{.OX:XOXOX$X[.=XyXOXZ.!.:XQ.j.N.`.;X&X                    ",
"                xXgXr.# # 4 H %.;.] Z [ +.@.o.o.O.O.+.......[ F o.~.gX1X`.;X&X@XOX{.'.=XuX[.Q.{.wXR.j.N.OX&X&X                  ",
"                cXd.2 X , V ` ,.@.D A ..+.+.o...o.@.@...] ..$.^ H -.<XdX.X{.=X;X@X+X[.{.:X:X].Q.:XOXC.j.D.#XeX+X                ",
"              5X*Xg o 3 V O.<.1.&.o.o.;.%.%.;.%.%.1.9.-.@.%.1.:.&.@.C.pXhX`.=X;X+X@XOX'.{.uX:X`.[.wX].h.5.Z.|.#X&X              ",
"            MX%Xc O h B.G.G.J.G.F.F.F.F.F.F.F.F.F.F.F.D.D.F.F.F.D.D.j.oXgX-X`.OX:X@XOXOX{.$X:X;X[.;X;XQ.f.f.Z.#XwX#X            ",
"          MX%Xq.$ n (.mXbXkXkXgXgXgXgXdXdXpX5X6X3X3X1X1X1X1XoX1XoXI.U.oXdXgX-X-XaXsXsXwXyX:XpXaXuXaXaXaX@Xj.j.Q.wXaXaX          ",
"        NXdXq.1 h ).mXlXlXlXfXfXfXfXzX,X<X<X<X<X%X1X<X1X<XXXXXoX XI.I.U.'.hXdXXX{.wX:X&XeX=X=X%XwX;X:XiXwXZ.5.j.Q.;X:X          ",
"      lXkX).g % u.L.L.b.M.m.M.p.b.b.6.3.4.4.l.4.5.4.l.4.7.7.n.m.m.m.b.7.l.K.*XS.=.3.p.i.2.f.6.3.f.p.p.g.k.2.X.X.=.f.8.g.V.      ",
"                  qXR.*.^ X.%.-.( o.7.G.B.m.S.B.L.B.#./ +.%.) *.V.T.*.o.1.f. .e 6 6 r q 5 q q q 5 q q q 5 5 5 4 , x             ",
"                  0X(.i.D A -.A.7.g.~.iX<X).).<XiX%Xb.3.n.1.F X.E.9X*...;.,.r 4 6 4 5 5 , 4 4 , > > > > ; : : : @ 3             ",
"                  0X@XV.{ H 6.3XvXlX8Xc.c.c.c.d.c.7XtXnXhXb.J #.(.rXi.&.;.*.t r P P P P U t t k t y w w w w 6 5 , z             ",
"                  0XrXp...O.8.}.nXlXa.1 p c c a a w.qXNXzX8.O.2.W.8X>.&.:.*.t 6 k r t Y ' 3 q U F Z y B D D t r y y.            ",
"                    8Xi.X.&.8.R.zXjXd.p a v v c c w.OXBXrX7.$.1.R.W.*.:.l.2.P r t t S R T $ i x A B 0 0 D ' P t S 0.            ",
"                  8XT.i.+.X.1.R.rXeXs.s p b m c s w.@XrX(.1._ =.Y.T.*.9.n.2.P r L t S R Q # $ x F B 0 u D D L t L               ",
"                  T.z.s.@.( %.}.fXtXu.# + 9 s + X n 9XzX~.;.H @.V.Y.*.%.4.{ t r k u L R Y % 2 ' _ J Z A D S r r E               ",
"                    8Xh.+.( ;.A.bXvXy.. . % & . . z tXMX2X9.H -.T.E.+.;.6.U w r t t S W ' % & ' _ ~ Z A A P u t }               ",
"                    W.k.*.) %.J.pXiXz.n n M 0.n n a.^.2XK.<.) 2.R.T.+.:.7. .L L T P E X.x * & x A B 0 B Z Y { !  .              ",
"                  E.T.k.,.) &.n.n.n.K.3X<X*X,X X4XXX8.1.;.@.X.f.R.Y.=.5.l.*.{ E { { X.+.Q # & u B 0 0 B S { *.*.u.              ",
"                    W.k.@.O.&.&.^ ..8.G.G.U..Xl.G.B.&.H H &.O.g.T.Y.;.8.8.Y I R W Y R ( x + & ' _ F B A Z ' X. .a.              ",
"                    d.h.=.=.=.=.#.#.=.=.<.3.h.=.%.<.=.#.*.#.&.i.s.i.2.f.*.r r l t t L I x + & ' _ V A A u U T T                 ",
"                  q. .W E | E E  .{ W L I I W W W I E E Q L I I W W W z g 1 1 1 1 1 p h z X & U F B B ~ t 1 2 1                 ",
"                    T 7 L L L L j j j k l l j L L j l l 7 l 7 7 7 7 7 < O $ $ $ $ $ 2 q e * 9 u K 0 B F y % X +                 ",
"                    w.! | e.e.! | | | | | | Q v v T ! | Q } e.} Q Q } c i i g g s i i h U z z D A B S x z s i i                 ",
"                                                                                                                                ",
"                                                                                                                                ",
"                                                                                                                                ",
"                                                                                                                                ",
"                                                                                                                                ",
"                                                                                                                                ",
"                                                                                                                                ",
"                                                                                                                                ",
"                                                                                                                                ",
"                                                                                                                                ",
"                                                                                                                                "
};
