/* XPM */
static char *result[] = {
/* columns rows colors chars-per-pixel */
"64 64 16 1 ",
"  c #ECECEC",
". c #F1F1F1",
"X c gray95",
"o c #F3F3F3",
"O c #F4F4F4",
"+ c #F6F6F6",
"@ c gray97",
"# c #F8F8F8",
"$ c #F9F9F9",
"% c gray98",
"& c #FBFBFB",
"* c gray99",
"= c #FDFDFD",
"- c #FEFEFE",
"; c white",
": c None",
/* pixels */
"::::::::::::::::::::::::::::::::::::::::::::::::::::::::::::::::",
"::::::::::::::::::::::::::::::::::::::::::::::::::::::::::::::::",
"::::::::::::::::::::::::::::::::::::::::::::::::::::::::::::::::",
"::::::::::::::::::::::::::::::::::::::::::::::::::::::::::::::::",
"::::::::::::::::::::::::::::::::::::::::::::::::::::::::::::::::",
"::::::::::::::::::::::::::::::::::::::::::::::::::::::::::::::::",
"::::::::::::::::::::::::::::::::::::::::::::::::::::::::::::::::",
"::::::::::::::::::::::::::::::::::::::::::::::::::::::::::::::::",
"::::::::::::::::::::::::::::::::::::::::::::::::::::::::::::::::",
"::::::::::::::::::::::::::::::&&&*::::::::::::::::::::::::::::::",
":::::::::::::::::::::::::::::=;;;;;*::::::::::::::::::::::::::::",
"::::::::::::::::::::::::::::=;;;;;;;=:::::::::::::::::::::::::::",
":::::::::::::::::::::::::::%;;;;;;;;;:::::::::::::::::::::::::::",
":::::::::::::::::::::::::::--;;;;;;;;*::::::::::::::::::::::::::",
"::::::::::::::::::::::::::%-*;;;;;;;;-::::::::::::::::::::::::::",
"::::::::::::::::::::::::::=&*;;;;;;;;;::::::::::::::::::::::::::",
"::::::::::::::::::::::::::=:-;;;;;;;;;::::::::::::::::::::::::::",
"::::::::::::::::::::::::::-:-;;;;;;;;;::::::::::::::::::::::::::",
"::::::::::::::::::::::::::=$;;;;;;;;;;::::::::::::::::::::::::::",
"::::::::::::::::::::::::::**-::-;&:=;-::::::::::::::::::::::::::",
"::::::::::::::::::::::::::&&:::&;:::=&::::::::::::::::::::::::::",
"::::::::::::::::::::::::::%$:::*-:::%%::::::::::::::::::::::::::",
":::::::::::::::::::::::::::%:::=-:::@#::::::::::::::::::::::::::",
":::::::::::::::::::::::::::*:::=*=::%:::::::::::::::::::::::::::",
"::::::::::::::::::::::::::@;=*--*;*=-*::::::::::::::::::::::::::",
"::::::::::::::::::::::::::#;;;;&:;;;;=::::::::::::::::::::::::::",
":::::::::::::::::::::::::::=;;;::;;;-:::::::::::::::::::::::::::",
"::::::::::::::::::::::::::::&;;*-;;-::::::::::::::::::::::::::::",
":::::::::::::::::::::::::::::=;;;;;:::::::::::::::::::::::::::::",
"::::::::::::::::::::::::::::::-;;;=:::::::::::::::::::::::::::::",
":::::::::::::::::::::+::::::=:: .::=::::::::::::::::::::::::::::",
"::::::::::::::::::::*;=:::::=::o#::=::::::*#::::::::::::::::::::",
"::::::::::::::::::::-;;:::::=::::::=:::::%;;::::::::::::::::::::",
":::::::::::::::::::-;;;-::::=$:::::-:::::-;;*:::::::::::::::::::",
"::::::::::::::::::=;;;;;::::*-::::-=::::&;;;;:::::::::::::::::::",
"::::::::::::::::::-;=*;;-::::;*XX*;:::::;;;;;-::::::::::::::::::",
"::::::::::::::::::-;=O%;;-:::=;;;;=::::-;;;*;;::::::::::::::::::",
"::::::::::::::::::*;;=Oo;;-:::=;;-::::-;;;*$;;::::::::::::::::::",
":::::::::::::::::::::&-=;;;-&:::::::&;;;@O#-;-::::::::::::::::::",
":::::::::::::::::::::::*-;;;;&:::::=;;;;**-*::::::::::::::::::::",
":::::::::::::::::::::::::=;;;;*:::*;;;;-*:::::::::::::::::::::::",
"::::::::::::::::::::::::::*-;;;*:*;;;-*:::::::::::::::::::::::::",
"::::::::::::::::::::::::::::-;;;*@=;=:::::::::::::::::::::::::::",
":::::::::::::::::::::::::::::&-;;-O:::::::::::::::::::::::::::::",
":::::::::::::::::::::::::::::#%;;;=:::::::::::::::::::::::::::::",
":::::::::::::::::::::::::::=;;@+-;;-::::::::::::::::::::::::::::",
":::::::::::::::::::::::::*-;;;-::-;;;&::::::::::::::::::::::::::",
"::::::::::::::::::$;;;;;;;;;;=::::-;;;*:::::::::::::::::::::::::",
"::::::::::::::::::-*$;;;;;;-$::::::*;;;;;===%:::::::::::::::::::",
"::::::::::::::::::-;;;;;;;-:::::::::*;&-;;;=-:::::::::::::::::::",
":::::::::::::::::::;-=;;;*::::::::::::=$;;;*;%::::::::::::::::::",
"::::::::::::::::::::;%%;*:::::::::::::&*%;;;;:::::::::::::::::::",
"::::::::::::::::::::-$%=:::::::::::::::-@+%-::::::::::::::::::::",
":::::::::::::::::::::*&:::::::::::::::::-%-:::::::::::::::::::::",
":::::::::::::::::::::::::::::::::::::::::==:::::::::::::::::::::",
"::::::::::::::::::::::::::::::::::::::::::::::::::::::::::::::::",
"::::::::::::::::::::::::::::::::::::::::::::::::::::::::::::::::",
"::::::::::::::::::::::::::::::::::::::::::::::::::::::::::::::::",
"::::::::::::::::::::::::::::::::::::::::::::::::::::::::::::::::",
"::::::::::::::::::::::::::::::::::::::::::::::::::::::::::::::::",
"::::::::::::::::::::::::::::::::::::::::::::::::::::::::::::::::",
"::::::::::::::::::::::::::::::::::::::::::::::::::::::::::::::::",
"::::::::::::::::::::::::::::::::::::::::::::::::::::::::::::::::",
"::::::::::::::::::::::::::::::::::::::::::::::::::::::::::::::::"
};
