/* XPM */
static char *d2FsbA__[] = {
/* columns rows colors chars-per-pixel */
"64 64 176 2 ",
"   c #201416",
".  c #261B1B",
"X  c #291D1E",
"o  c #27211D",
"O  c #2A201F",
"+  c #2F2D1C",
"@  c #322C1F",
"#  c #2D1E23",
"$  c #2D2322",
"%  c #312525",
"&  c #332A25",
"*  c #342628",
"=  c #362B29",
"-  c #392E2C",
";  c #373326",
":  c #393426",
">  c #3C3C26",
",  c #3C322E",
"<  c #3D3A2B",
"1  c #3C2D31",
"2  c #3E3331",
"3  c #40372E",
"4  c #413C2C",
"5  c #413633",
"6  c #453935",
"7  c #483C37",
"8  c #453539",
"9  c #49373D",
"0  c #463B39",
"q  c #4A3D3A",
"w  c #503F3F",
"e  c #3E4423",
"r  c #3F4C22",
"t  c #3D5422",
"y  c #3D5B25",
"u  c #3D6027",
"i  c #414426",
"p  c #444C26",
"a  c #484F27",
"s  c #44432C",
"d  c #48462F",
"f  c #464B2A",
"g  c #494C2C",
"h  c #445424",
"j  c #495326",
"k  c #435C24",
"l  c #4B5C26",
"z  c #46512A",
"x  c #4B532B",
"c  c #465E28",
"v  c #4D5B2A",
"b  c #50552E",
"n  c #535D2C",
"m  c #464233",
"M  c #4A4534",
"N  c #474832",
"B  c #4D4B33",
"V  c #464138",
"C  c #4C413D",
"Z  c #4D493B",
"A  c #514F36",
"S  c #51443E",
"D  c #524C3C",
"F  c #4E5132",
"G  c #525434",
"H  c #585737",
"J  c #555B32",
"K  c #595B36",
"L  c #54523B",
"P  c #59563E",
"I  c #5D5C3C",
"U  c #446227",
"Y  c #4B6326",
"T  c #4C6827",
"R  c #446628",
"E  c #4A6528",
"W  c #446B2A",
"Q  c #4B6B29",
"!  c #526426",
"~  c #536B27",
"^  c #596C27",
"/  c #53632B",
"(  c #58662C",
")  c #536C29",
"_  c #5B6B2C",
"`  c #44742D",
"'  c #4C722B",
"]  c #477D2F",
"[  c #4B7A2E",
"{  c #52732A",
"}  c #5B7329",
"|  c #53792C",
" . c #5B7A2B",
".. c #5B6331",
"X. c #5C6A30",
"o. c #5D613E",
"O. c #5F7333",
"+. c #61752D",
"@. c #627D2A",
"#. c #616C33",
"$. c #60633C",
"%. c #657333",
"&. c #4C3E41",
"*. c #4D3F41",
"=. c #503E41",
"-. c #4D4141",
";. c #4E4341",
":. c #4F4441",
">. c #4F4442",
",. c #474A40",
"<. c #4C4A46",
"1. c #504441",
"2. c #524641",
"3. c #504542",
"4. c #524543",
"5. c #534545",
"6. c #514744",
"7. c #524644",
"8. c #534845",
"9. c #554946",
"0. c #554A46",
"q. c #584A47",
"w. c #554649",
"e. c #564B48",
"r. c #594D4A",
"t. c #594D4B",
"y. c #565244",
"u. c #585243",
"i. c #5D5A42",
"p. c #5B524D",
"a. c #5D4D51",
"s. c #545654",
"d. c #5F5250",
"f. c #5E5651",
"g. c #5E5452",
"h. c #5F5956",
"j. c #5F5158",
"k. c #5B5C5A",
"l. c #625652",
"z. c #635A55",
"x. c #665E5A",
"c. c #685D5E",
"v. c #6B7747",
"b. c #66764B",
"n. c #6A635D",
"m. c #6E6D5C",
"M. c #676664",
"N. c #6D6661",
"B. c #6F6862",
"V. c #716B63",
"C. c #756C6A",
"Z. c #6C706C",
"A. c #7A7967",
"S. c #77706A",
"D. c #79736D",
"F. c #6B7370",
"G. c #7D7574",
"H. c #7F7974",
"J. c #817C76",
"K. c #837A7B",
"L. c #518530",
"P. c #67862C",
"I. c #85817B",
"U. c #88857E",
"Y. c #787D83",
"T. c #788285",
"R. c #888181",
"E. c #878A85",
"W. c #8D8985",
"Q. c #8F8989",
"!. c #918D8B",
"~. c #95938B",
"^. c #8B9593",
"/. c #9D9C95",
"(. c #9F9E98",
"). c #A1A19A",
/* pixels */
"C ;.;.;.:.:.:.3.:.:.;.;.;.C 6 2 2 ;.1.8.8.t.t.t.<.>.<.t.l.t.3.:.8.e.e.8.2 - 5 V q 8 0 6 q q 7 q 6 , 6 q 5 q q S q 3 = 5 0 q 1.3.",
";.;.3.3.:.:.:.:.8.8.;.C ;.C ;.6 2 - 2 q <.8.t.l.g.5.&.5.3.8 5 , 2 8 2 C 2 = , , 5 7 C q q q C q 5 7 q q q C q q S S , q 0 0 ;.C ",
";.3.;.C C 3.3.3.8.e.C ;.5.C 0 ;.;.8 8 5 5 0 q e.h.0 = = = - 6 , - , : = , = = % = , 8 q C S q 6 3 6 C 7 q 0 6 6 q 7 3 8 5 C 5.Z ",
"C ;.3.0 6 5.C 3.4.:.e.e.5.0 q <.5.;.&.;.2 2 - 1 8.= 2 6 3 3 8 3 , 6 5 8 6 , 2 , : = = 2 V q 5 6 6 , 7 C q 6 6 0 7 6 5 A L q 5.3.",
";.;.;.;.C 3.3.;.C 5.8.t.g.C ;.5.3.B Z 5.3., M Z 2 = q q 5 q 3 , 5 6 6 q q 6 7 , , , = = 8 7 0 q q q C q q 7 q q 7 1 g ' Y 8.C q ",
"C 3.3.C 3.;.;.8.t.e.e.e.e.C ;.;.F R ~ x x c ^ s $ 2 S S q 6 C 5 2 2 6 7 6 6 6 5 7 5 : & = 6 C C q 3.S q q S q 9 9 - f ` c 4.8 q ",
";.;.3.3.3.S 3.5.t.t.8.C 8 1.&.&.A Q ) h h ' Q f 2 C 3.q w C C 7 5 5 6 q q 6 6 q 7 7 5 < 5 , 2 ;.C q q C q q 6 s J 5 C N V q ;.1.",
"q q S 3.q q 3.3.3.2.;.q &.&.y.D M J o.%.{ k P.b - ;.S C w C C q 7 7 6 6 q 7 5 C C 5 0 8.n.g.q 6 8 : M 7 A 4 f E Q m 2 8 ;.;.C ;.",
"1.D S 8.C C 5.q.8.3.q L u.8 F k Y i.e.3.M ( b , 8 q.C q q C q q 0 0 0 6 , 6 7 6 5 m p.z.B.J.H.q = l U p R l j R ' H - 8 1.q &.1.",
"q 3.3.3.3.8.q.3.q.e.9 n ' H s U W G 4.q q.m % - 7 3.q 6 0 :.S 7 7 6 0 C q C C , 7 e.z.V.D.U.Q.g.4 } T f n x ; l s G N C q C 1.Z ",
"1.8.2.3.5.8.e.8.q.5.q x y / _ +.X.x l Q F % - 5 , 3 6 0 7 C q 6 9 3.3.8.2.S C 5 2 5.z.C.J.K.A.O.l f x v s % $ < b k k P &.q q C ",
"5.q S 8.q.e.8.8.5.7 x N G _ E _ H J R | s % 5 5 5 , 5 6 7 5 6 1 7 w.3.Z 3.q q C 2 6 C y.N.C.i.R U = j ] x M r x P.Q k M q q ;.;.",
"1.2.2.w.8.q.8.q.9 j u x u.^ R U > = p x & - , 5 5 3 5 3 C C 2 M ( n 5 7 q C q q C , e R 2 F / z Y J ( / i v U Q a x _ S 9 q q 3.",
"4.e.w.5.3.q.q.8 m _ [ F 0 J ~ Y L :.q % f ' : - 5 5 , 5 q 6 - n ` Q f m 3.7 5 6 0 % N F :.Y k x ^ { ( , A ~ Q ~ x S D 9 S 3.3.3.",
"8.2.8.2.8.e.e.8 c / Z 5 % N.A.V.K.J.C.c.I c @ & , 5 5 5 5 5 1 B ~ Y k j 5 d Y G , 2 3.w.l.u.m m { R ! / } ! #.X.m 5 q S S 2.8.8.",
"e.8.q.q.8.q q 6 F M % X C I.K.G.D.V.N.n.t., h > * 5 2 - 5 8 M a n ! E R a x ] ! = q t.t.t.a.w.;.B i d ~ R b g x C 9 S 3.S 2.q.e.",
"1.2.q &.q v ! m = 1 = % q.S.n.n.n.z.p.y.:., B N = , , , * 1 g ` c > ) { J M ..B % 2 8.e.r.q.l.a.8 f v v s f k ' F 5 6 q C 4.e.3.",
"8 M J M 4 E L.s X - 5 - 5 z.p.p.y.8.8.8.5 q G.!.n.- % 4 x , s Q x 3 B s 5 9 S S 5 = 6 3.4.3.y.L H Q R v q u.E | M # 2 0 5 6 q 3.",
"- g Q ' n s x = & - 7 5 O C p.y.8.r.4.q & x.J.C.C.C $ e W s = 6 7 5 - 5 3.S 8 4.3.2 = 0 e.3.v W x ^ ' / &.5.D D = > 5 8 - , , 5 ",
"% 4 c Q a # % = , 5 , 5 - & 8.p.8.C , $ & e.z.t.:.- = 2 N 5 q 0 ;.C 5 C 8.q 6 6 q 0 , 8 a.e.B z m 8.B Z 5.8.w.&.7 ' z 5 2 - & = ",
"% 3 j i - % , , 2 6 , 5 6 $ - 3.6 & $ $ = - 2 - & % 6 6 &.C :.3.3.C 7 7 5 6 6 5 6 6 2 6 e.l.:.8 8.3.9 ;.e.8.3.1.Z N 4 6 C 2 = = ",
"- = % - , 5 5 6 q 2 , 6 6 5 & = & $ $ , 5 ; O o & 1 6 q C C C q q S q q 6 6 6 2 = = , , q 8.q.3.:.5.4.3.5.3.1.;.q.9 = 5 5 2 = , ",
"- , - 5 5 3 , 5 Z 5 2 2 5 m 5 , = ; 2 6 7 2 , h f 2 6 q C q 6 0 5 7 0 8 q , $ , e.n.0 & , V :.:.C ;.;.:.1.q ;.q g.q.= 5 , % = : ",
"5 3 5 , - , 3 , , 6 6 , 7 6 7 5 2 2 6 7 6 6 , - , 5 7 5 7 C 6 6 6 7 0 5 = , z.I.~.~.e.e 6 8 q 8 q ;.q ;.C C q ;.q.8.2 - , = - 5 ",
"3 3 3 - - 2 2 2 2 5 5 5 7 7 8 5 C 0 0 0 8 6 s < - 5 5 5 6 q 0 7 6 0 6 1 8.U.).~.J.S.z.f f 8 :.q 6 ;.0 0 Z C &.Z 8.3.2 = 2 , - 5 ",
"- & - 5 , , 2 5 5 5 2 5 6 6 5 7 C 0 6 q 8 2 Y y - 5 6 6 6 6 6 6 6 6 - Z U.W.J.D.V.z.p.x l 6 3.8.q 6 C ;.7 8 9 C q q , & - , - , ",
", , 8 5 , , 2 5 5 2 5 5 , 7 0 0 q q q C 1 % s s , , 2 6 6 6 7 6 5 5 : 5.S.V.n.n.z.l.5., 8 B Q B &.8 0 &.8 M M 1 5 - 5 1 * : , , ",
", 3 - - 6 2 , , 5 < 5 7 C 6 5 0 q 5 , - < j n , = 7 5 5 6 7 5 5 5 7 5 q n.n.n.z.p.p.7 7 &.n U i m C = - B ^ } F - 5 C 5 , - , 3 ",
"5 - - - 5 5 , , 6 6 7 e.C - 5 2 , 2 1 = Y ` Q _ 5 5 q 3 5 7 7 6 6 7 6 7 p.z.l.p.q.7 4 ~ ! - 4 l U < : ~ ^ T ' j e _ B Z 5 - , 5 ",
"5 3 5 5 5 5 5 7 6 q 6 6 , 2 8.:.C 3.;.6 j Q Q n 5 1 6 5 5 , q 7 0 q 6 5 q 3.e.Z 5 % 4 ` ~ = * Y ` s 6 ' ^ ! k j / W h 5 - - , 5 ",
"5 5 5 5 3 5 5 6 6 8 , - ;.5.5.e.e.:.C r p n _ < # 5 - 6 5 q 7 5 6 7 6 , - , 4 - & X - g A 9 3.I K C : , n Y j b  .v g & $ - - 5 ",
"5 1 5 5 7 5 7 7 q 7 , 6 <.;.C 3.q 1 2 U h s _ .., e f , - 5 5 7 5 6 8 8 : $ & % O * - 9 q S e.5.q S q 6 Q U _ ^ k J #.j B 3 - 5 ",
"2 2 5 5 6 5 6 6 q 5 1 0 C C ;.8 N z : 5 6 ! R ' K i E 5 - = - , , = f s , - & $ * - 3 q q S S S S S S S A K ^ { p ! ~ W ^ - - 5 ",
"5 6 7 6 6 7 q C 5 = 0 0 0 C 0 , Y ` x 8 6 j ' | f = 7 S 5.Z 5 = - = p j x l = < 4 & 5 7 7 S S C w q q S =.q b T T f h l > = , 5 ",
", , , 2 5 5 5 3 , - 2 1 5 2 - - n E b s B B a s : = q S C 3.7 q q q q S T Y s ^ l 4 5 7 7 S S S q q S S w 1.q N o.7 A L - : - 5 ",
"= - - , - - = = 5 q 6 2 2 2 5 7 - M ( y l 6 # # 5 q S q q q C C S q 3.&.Z V B | R s 5 7 7 q w q q q S w S =.q q 7 8.5.9 5 5 5 = ",
"2 6 6 7 5 7 5 3 ;.Z S 3.S S S e.= f @.R h & = :.9 q q q S C C S C C q C 3.&.5 a x 4 5 5 6 7 7 5 5 C q q C S q 7 w S 2.3.8 2 , , ",
"7 7 q q q S 5.C C <.q w q S q q b Q v v / & - q q q C q C 3.q C q q 0 q 7 9 d k j B 5 C 5 8 - 5 w 7 7 q C 6 7 C q q 3.5.3.3 = 6 ",
"6 5 5 6 q q S q 5 q S S C C 0 - n [ p / ( % - 5 7 6 6 q C 3.C q 7 8 6 5 5 , Y ` T _ Q ( 7 - : = 5 7 7 7 5 , q q 7 C C C 1.2 , 0 ",
"5 6 5 , 5 5 8 7 6 q w C 5 5 - 5 4 , J { { i % 5 8 6 5 6 q q 6 V 6 7 6 2 5 q P H B i W ~ , c.E.n., 3 7 5 6 6 C C 7 7 0 5.Z , , 5 ",
"5 5 5 5 5 6 5 5 , 7 7 q n.G.<.f b , M  .k > - 5 < 6 6 6 6 2 7 6 6 C 2 2 5 q 9 D V n h e k.^.^.^.h.5 5 6 C 7 7 C C 7 q Z 7 - 2 5 ",
", : 5 5 5 , < 5 5 5 - 5.T.Y.b.t W ( ( Q h & , 5 5 5 2 2 0 0 5 0 2 6 , 5 q q q / ' x & = M.Y.Z.F.k.- , 0 C q 7 q q q C 6 5 2 2 2 ",
"- - 2 5 5 , 2 , 5 5 - 6 <.,.N T Y e _ R p * 2 3 5 5 , , 0 7 2 2 6 2 - C 8.7 C _ ' h , d Z k.k.s.0 5 5 5 6 q C q q q C 6 = : 2 , ",
", , 5 , 5 5 5 5 3 5 3 * > h + + ..m.m.v.d X 2 , , , 5 6 , 5 0 2 2 2 2 6 S q q A G C B ' j # $ - , 7 7 5 6 C 6 C C C q 5 - = 2 3 ",
", - , 3 , 3 , , 5 3 3 % < y , l.~./.R.G.h.& & 5 5 5 5 2 2 2 5 5 6 2 q 5 5 C q 5 5 9 C j l i : - 7 6 7 7 7 q 6 0 C C 0 2 2 - - , ",
"- 3 , , , , - - 5 - * = - N J.(.W.J.S.n.z.C 5 , , 2 , 2 6 7 5 , 2 C 7 C 5 5 7 7 5 C 8 B { R g 5 6 6 7 q 6 5 q 6 3.5.6 = , - & = ",
"- & - , = - - - * - - 3 - z.U.S.C.V.x.g.8.q S 3 , 2 2 2 < 6 5 5 5 7 0 8 5 7 q q q 7 8 B ' { B - 5 6 6 6 q 5 5 7 C C C , & 5 q 6 ",
"3.3 % % * f v p X = 5 5 - p.S.n.n.z.z.p.3.- 3 6 2 2 5 2 2 5 2 5 7 5 7 Z S 7 7 7 q q 7 - A A g B q 2 6 6 7 6 5 C C q 0 - , 1.e.8.",
"C 5.6 1 < c y t = $ - : 4 y.n.x.z.g.p.8.6 - 5 5 5 , 5 5 5 7 7 7 5 5 2 7 Z 5 5 q q q 7 6 2 - Y T 5 2 0 6 6 7 6 C Z 7 2 - 4.g.:.;.",
"q 5.8.8.0 r y h > z j n W v :.g.p.e.Z 2 % , 7 5 5 3 3 , , 5 6 6 6 6 6 6 6 6 5 6 6 8 7 Z &.6 f a < 7 6 6 7 0 0 q w.0 , 2 C 3.C C ",
":.<.C 6 2 N e $ x ` j / E j 5 3.Z 5 # & & & 5 5 7 5 5 5 5 5 6 6 6 6 6 6 8 7 8 5 6 2 5 8 6 2 3 h y 4 2 5 7 6 q q q q 2 , 0 8 q C ",
"8 q q 6 2 0 $ X / P.g g n : % & = & : E / $ = 5 5 5 8 3 , , 2 6 6 6 6 6 6 6 5 2 2 6 6 5 5 1 7 k k < 5 6 5 , q 7 0 8 2 = 5 q C C ",
"0 2 8 6 6 2 % f ' / / ! } J > .   z Q Q ' v e - 5 S 7 , 2 5 , 2 5 7 7 6 6 8 7 3 5 q 6 8 5 7 7 M , 2 6 8 6 6 q C q 6 6 - = q 2 2 ",
"6 2 ,.C 2 &.0 U Q { } U ) @.k z 2 2 < s g | f $ - 3 = - 7 7 6 , 5 5 5 5 5 5 5 6 6 6 5 5 5 7 6 6 = = 2 6 2 6 6 q 6 6 5 5 = 2 2 0 ",
"1 C <.q <.<.&.2 j x p h {  .W k 2 2 2 2 = 2 2 2 , , = = , 7 6 , 5 q 6 6 5 5 6 6 5 7 5 5 5 5 5 5 8 , & 2 2 5 5 8 6 2 3 2 < f 2 0 ",
"2 <.;.;.;.;.;.&.&.2 & b B e / n 8 0 6 0 ;.2 5 C q 8 6 2 = - : 5 - 5 q 5 3 7 7 5 5 3 6 7 8 5 5 5 7 , & - 0 Z 7 2 = , c x v R - 1 ",
"q <.C &.;.4.<.;.&.<.5.8 # . , C 6 0 6 q q 0 0 0 q q 8 V - , n.G.n.6 2 2 6 5 * , g 3 5 5 8 5 7 6 5 5 ) a 4 ^ n G s f R ' B 7 q - ",
";.q ;.;.;.q ;.4.;.q <.2 , > > C 0 0 0 q q ;.0 C :.;.Z 8 6 x.H.H.J.x.6 : = < < g ' < & M 5 5 6 3 - = f j v R Q / ) E B A q q 8 2 ",
"q <.;.<.&.;.r.g.&.;.&.V h t Y B 2 ;.C C q ;.&.C 4.>.:.C Z p.p.g.p.8.n Y > c { _ ! x > Y 3 & - % = = = = j R i s / J q 9 q , % 0 ",
";.q C ;.;.;.<.-.3.3.;.V t y y f 0 &.0 C <.&.1.;.4.4.:.4.0 q Z <.S q M s : ! { v T { M , , - = 3 5 6 C 6 - : d ! R v 8 7 2 , C C ",
"0 V ;.&.-.-.-.<.>.>.>.0 j r l M 2 ;.6 0 ;.;.&.;.w.>.8.t.2 = 6 6 , , &.2 = , 3 s k Y M * - 3 7 q C C S 7 - % 5 / | f = - = 0 <.q ",
"1.&.;.V C -.V ;.>.<.t.w.Z 6 , C q C &.0 C C C >.8.e.8.e.8.= % % = 0 4.5.&.- * - = , 5 , , 7 S C q 6 q 5 2 q 8 7 C - 2 2 6 C q :.",
";.C <.;.&.&.;.0 >.>.w.e.<.2 2 q C q C :.;.;.;.q :.t.t.4.8.t.0 q >.8.e.C 0 q , % - 6 6 5 6 q 6 q 5 5 3 - 6 0 q 8 5 2 - 0 C 0 ;.;.",
"V &.;.&.5.>.,.&.;.>.>.>.;.;.6 q C ;.:.3.<.8.e.4.;.4.d.e.e.p.8.t.t.e.4.;.q 5 3 5 8 7 6 q 7 6 6 7 q 6 5 8 C C q q q 6 ; - 0 q ;.;."
};
