/* XPM */
static char *f1433ebb53e242d9b4eb85574ba229b5A0OKA3Pp8HiTstL4[] = {
/* columns rows colors chars-per-pixel */
"64 64 154 2 ",
"   c None",
".  c #161616",
"X  c #181818",
"o  c gray10",
"O  c #232323",
"+  c gray14",
"@  c #252525",
"#  c #272727",
"$  c #282828",
"%  c gray16",
"&  c #2A2A2A",
"*  c gray17",
"=  c #2C2C2C",
"-  c #2D2D2D",
";  c gray18",
":  c #2F2F2F",
">  c gray19",
",  c #313131",
"<  c #323232",
"1  c gray20",
"2  c #343434",
"3  c #353535",
"4  c gray21",
"5  c #373737",
"6  c gray22",
"7  c #393939",
"8  c #3A3A3A",
"9  c gray23",
"0  c #3C3C3C",
"q  c gray24",
"w  c #3E3E3E",
"e  c #3F3F3F",
"r  c gray25",
"t  c #414141",
"y  c gray26",
"u  c #434343",
"i  c #444444",
"p  c gray27",
"a  c #464646",
"s  c gray28",
"d  c #484848",
"f  c #494949",
"g  c gray29",
"h  c #4B4B4B",
"j  c #4C4C4C",
"k  c gray30",
"l  c #4E4E4E",
"z  c gray31",
"x  c #505050",
"c  c #515151",
"v  c gray32",
"b  c #535353",
"n  c gray33",
"m  c #555555",
"M  c #565656",
"N  c gray34",
"B  c #585858",
"V  c gray35",
"C  c #5A5A5A",
"Z  c #5B5B5B",
"A  c gray36",
"S  c #5D5D5D",
"D  c gray37",
"F  c #5F5F5F",
"G  c #606060",
"H  c gray38",
"J  c #626262",
"K  c gray39",
"L  c #646464",
"P  c #656565",
"I  c gray40",
"U  c #676767",
"Y  c #686868",
"T  c DimGray",
"R  c #6A6A6A",
"E  c gray42",
"W  c #6C6C6C",
"Q  c #6D6D6D",
"!  c gray43",
"~  c #6F6F6F",
"^  c gray44",
"/  c #717171",
"(  c #727272",
")  c gray45",
"_  c #747474",
"`  c gray46",
"'  c #767676",
"]  c #777777",
"[  c gray47",
"{  c #797979",
"}  c gray48",
"|  c #7B7B7B",
" . c #7C7C7C",
".. c gray49",
"X. c #7E7E7E",
"o. c gray50",
"O. c #808080",
"+. c #818181",
"@. c gray51",
"#. c #838383",
"$. c #848484",
"%. c gray52",
"&. c #868686",
"*. c gray53",
"=. c #888888",
"-. c #898989",
";. c gray54",
":. c #8B8B8B",
">. c gray55",
",. c #8D8D8D",
"<. c #8E8E8E",
"1. c gray56",
"2. c #909090",
"3. c gray57",
"4. c #929292",
"5. c #939393",
"6. c gray58",
"7. c #959595",
"8. c gray59",
"9. c #979797",
"0. c #989898",
"q. c gray60",
"w. c #9A9A9A",
"e. c #9B9B9B",
"r. c gray61",
"t. c #9D9D9D",
"y. c gray62",
"u. c #9F9F9F",
"i. c #A0A0A0",
"p. c gray63",
"a. c #A2A2A2",
"s. c gray64",
"d. c #A4A4A4",
"f. c #A5A5A5",
"g. c gray65",
"h. c #A7A7A7",
"j. c gray66",
"k. c #A9A9A9",
"l. c #AAAAAA",
"z. c gray67",
"x. c #ACACAC",
"c. c gray68",
"v. c #AEAEAE",
"b. c #AFAFAF",
"n. c gray69",
"m. c #B1B1B1",
"M. c #B2B2B2",
"N. c gray70",
"B. c #B4B4B4",
"V. c gray71",
"C. c #B6B6B6",
"Z. c #B9B9B9",
"A. c gray73",
"S. c #CACACA",
/* pixels */
"                                                                                                                                ",
"                                                                                                                                ",
"                                                                                                                                ",
"                                                                                                                                ",
"                                                                                                                                ",
"                                                                                                                                ",
"                                                                                                                                ",
"                                                                                                                                ",
"                                                                                                                                ",
"                                                                                                                                ",
"                                                                                                                                ",
"                                                                                                                                ",
"                                                                                                                                ",
"                        L X.+.W B m                                                                                             ",
"              S v.6.Y B W l.C.f.} l l                                                                                           ",
"              a m L } &.` B Y f.e.f m K S K K x x f                                                                             ",
"                4 q S =.} = , ( =.` ( ` X.+.X.X.} W W }                                                                         ",
"                u f B ( X.Y Y ( &.t.6.i.i.6.5.5.t.i.t.5.+.} ` W W L `                                                           ",
"                x ( ` ` =.i.f.i.i.f.M.M.t.&.` X.,.i.l.M.M.l.i.f.l.t.5.+.( ( Y S L                                               ",
"                W X.X.&.t.f.f.i.f.v.i.=.} Y m W } ` ,.v.M.v.v.v.v.v.v.l.f.l.t.5.,.+.L K K x x Y ( K x x                         ",
"                ( W &.i.M.C.6.&.&.&.` W K x l m L X.5.v.v.v.v.l.t.v.C.M.M.f.e.5.5.=.=.&.=.+.` +.,.+.` W L B                     ",
"              W ,.&.e.A.M.X.K Y &.e.6.6.+.K m x m ( ,.5.v.M.l.C.v.6.6.v.M.l.t.5.,.5.6.6.6.6.,.5.6.6.,.X.` W K                   ",
"              Y t.v.A.e.S a f Y 5.i.l.e.X.S l x l K X.X.5.6.5.t.e.+.X.e.f.f.i.6.,.,.5.,.5.,.5.5.5.5.,.=.&.&.` S                 ",
"              B +.l.l.` u f K +.e.=.W m a q a m K ( +.+.` ( W W ( } +.+.,.5.,.,.5.,.5.,.,.,.,.,.,.,.5.5.&.+.+.` S               ",
"              S +.=.x =.S.S K 5.v.f.S q q u x K ` X.` +.+.` W ( } X.&.,.,.,.,.5.5.,.5.5.,.,.,.5.,.5.,.5.=.` ` +.` S             ",
"              m &.+.9 f =.K W 6.t.6.X.S a a m Y ( X.X.W +.W K +.+.X.=.6.5.5.5.,.,.5.5.5.5.,.,.,.5.5.,.5.5.X.( } 6.+.Y           ",
"            ( ( X.=.B 4 f ( =.i.6.L Y S a a x x W } L L X.L m X.&.+.&.,.=.=.=.,.=.,.X.+.,.,.,.5.=.=.5.&.,.=.W W i.5.            ",
"            +.t.=.} K S ( =.l.l.X.a 4 9 u x x q Y } m B Y S B ( } X.} ` } X.` } X.} S Y +.5.5.,.&.&.=.&.=.&.Y B =.e.Y           ",
"          L 6.l.i.} L ( +.+.6.X.x q = & u B x u S X.Y a f m S W L X.` K ( ` L Y ( S x B } 5.5.+.&.=.&.,.=.X.L u W i.,.B         ",
"        a +.l.f.i.5.X.W W S q , , 4       L m x a L } a f m K ( L X.` K ` ` Y ( ( f u x ` 5.5.,.&.+.,.&.+.+.L u W i.6.(         ",
"        4 a ( 6.5.,.} Y B =                 B K a x W m x m K ( m K B x K B x m x 9 q m W =.5.5.,.=.&.X.+.X.S a K 5.e.X.        ",
"        = + f ` } ( K l 9                     W m a m B m m B S a a f a f q 4 9 4 , 4 f W +.=.5.5.&.X.X.+.` m 4 u =.6.K         ",
"        , q f x S l a =                       B l 9 u m m B x u q u u u q 9 = = = , = q L +.+.=.=.X.+.+.} K u & = +.=.a         ",
"            9 a u 4 =                         , = 4 a m B m l q , = = , = ,       9 9 a S ` +.+.+.+.+.&.` f & & 4 W ` a         ",
"                                              = = u m m B x u = = , =             9 9 q x Y } X.+.+.+.} W l & = = K W f         ",
"                                              = 4 f B B B f 4 , 4 4                 9 4 9 x Y ( ( ( ( K K f & = = a m           ",
"                                              , u m m m B a 9 9 9 9 9               9 , , u S K B S B m m l 9 & = 4 u           ",
"                                              9 f B B B S q & 4 9 9 9 9             9 9 9 a x x m m m m m B x 9 = 9 a           ",
"                                              u x B m B B a 4 9 9 9 9 9             9 4 9 9 u u l m m m m m B m 4 9             ",
"                                            = l B m m u =     4 , 4 9 9               9 9 9 9 9 u f f x B m B B a q             ",
"                                            q m B B m , o     9 = 9 9 9                 9 9 4 4 9 9 a f l x B m f               ",
"                                            a m B B m , +     q = 9 9 9               9 9 9 9 9 , , q u u f B m f               ",
"                                          4 u x B B l O       u = 9 9 9             9 9 9 4 9 9     , u u l B m f               ",
"                                          q a m B x q &     f 9 9 9               9 9 9 9 9 9         = 9 l B B f               ",
"                                        u a x m S 9 m     . + 9 9 9             9 9 9 4 9 9 9         & 4 f B m q               ",
"                                      u u f m B m + K   =.. q 9 9 9           9 9 9 9 9 9 9           , u l m f ,               ",
"                                      f B S S m l & m   L + 9 9 9 9         9 9 9 9 9 9 4             l S K B m 4               ",
"                                    q Y } ` } S f 9 =     q 9 9 4             9 4 9 9 4             u ( X.( X.` q               ",
"                                  a L &.+.+.=.X.f =                                                 f +.K S X.x ,               ",
"                                  x f.( X.6.S x q                                                   f L u u S 4                 ",
"                                  m   Y `   a 9                                                     f m 9 q l ,                 ",
"                                                                                                                                ",
"                                                                                                                                ",
"                                                                                                                                ",
"                                                                                                                                ",
"                                                                                                                                ",
"                                                                                                                                ",
"                                                                                                                                ",
"                                                                                                                                ",
"                                                                                                                                ",
"                                                                                                                                ",
"                                                                                                                                ",
"                                                                                                                                ",
"                                                                                                                                "
};
